<svg width="255" height="215" viewBox="0 0 255 215" fill="none" xmlns="http://www.w3.org/2000/svg">
<path d="M123.112 1.97046L117.43 37.5853H80.5117L123.112 1.97046Z" fill="#008080" fill-opacity="0.04"/>
<path d="M117.431 38.4185H80.5122C80.1604 38.4185 79.8493 38.2 79.727 37.8704C79.6085 37.5407 79.7085 37.1704 79.9752 36.9482L122.575 1.32964C122.842 1.10741 123.22 1.07408 123.52 1.24445C123.823 1.41482 123.986 1.75556 123.931 2.10001L118.249 37.7185C118.19 38.1222 117.842 38.4185 117.431 38.4185ZM82.8085 36.7519H116.72L121.938 4.03704L82.8085 36.7519Z" fill="#008080" fill-opacity="0.04"/>
<path d="M126.517 68.9222C126.261 68.9222 126.006 68.8037 125.843 68.5815L123.594 65.5148C123.343 65.1704 123.391 64.6889 123.709 64.4C124.028 64.1148 124.513 64.1148 124.828 64.4074C124.843 64.4222 124.861 64.437 124.876 64.4555C124.891 64.4704 124.906 64.4889 124.917 64.5037C124.954 64.5481 124.994 64.6074 125.035 64.6629L127.187 67.5963C127.457 67.9666 127.38 68.4889 127.009 68.7592C126.861 68.8703 126.691 68.9222 126.517 68.9222Z" fill="#008080" fill-opacity="0.04"/>
<mask id="mask0_6038_3157" style="mask-type:luminance" maskUnits="userSpaceOnUse" x="123" y="64" width="5" height="5">
<path d="M126.517 68.9222C126.261 68.9222 126.006 68.8037 125.843 68.5815L123.594 65.5148C123.343 65.1704 123.391 64.6889 123.709 64.4C124.028 64.1148 124.513 64.1148 124.828 64.4074C124.843 64.4222 124.861 64.437 124.876 64.4555C124.891 64.4704 124.906 64.4889 124.917 64.5037C124.954 64.5481 124.994 64.6074 125.035 64.6629L127.187 67.5963C127.457 67.9666 127.38 68.4889 127.009 68.7592C126.861 68.8703 126.691 68.9222 126.517 68.9222Z" fill="white"/>
</mask>
<g mask="url(#mask0_6038_3157)">
<path d="M126.046 67.2407L135.387 79.9741C134.831 79.2148 134.238 78.4778 133.609 77.7593C126.701 69.8889 116.631 65.9518 105.935 65.9518C101.294 65.9518 96.5385 66.6926 91.8681 68.1741L82.5273 55.4407C87.1977 53.9592 91.9533 53.2185 96.594 53.2185C107.29 53.2185 117.361 57.1555 124.268 65.0259C124.898 65.7444 125.49 66.4815 126.046 67.2407Z" fill="#787070"/>
<path d="M135.388 80.8075C135.132 80.8075 134.876 80.689 134.713 80.4667C134.173 79.726 133.588 79.0001 132.98 78.3075C126.458 70.8778 116.854 66.7853 105.932 66.7853C101.328 66.7853 96.6838 67.5186 92.1172 68.9667C91.7764 69.0741 91.406 68.9519 91.1912 68.6667L81.8505 55.9334C81.6912 55.7186 81.6468 55.4371 81.732 55.1815C81.8135 54.926 82.0172 54.726 82.2727 54.6445C87.0023 53.1445 91.8172 52.3853 96.5912 52.3853C107.999 52.3853 118.05 56.6778 124.891 64.4741C125.532 65.2038 126.143 65.9704 126.717 66.7482L136.05 79.4741C136.054 79.4778 136.054 79.4815 136.058 79.4815C136.328 79.8519 136.25 80.3741 135.88 80.6482C135.732 80.7556 135.562 80.8075 135.388 80.8075ZM105.936 65.1186C114.488 65.1186 122.276 67.5334 128.525 72.026L125.376 67.7334C124.836 66.9927 124.25 66.2667 123.643 65.5741C117.121 58.1445 107.517 54.0519 96.5949 54.0519C92.3653 54.0519 88.0986 54.6704 83.8949 55.8964L92.1875 67.2038C96.732 65.8186 101.354 65.1186 105.936 65.1186Z" fill="#008080" fill-opacity="0.04"/>
</g>
<path d="M77.1124 126.063C76.8828 126.063 76.6569 125.97 76.4902 125.785L76.3606 125.637C75.9309 125.144 75.5198 124.633 75.1383 124.115L65.7976 111.381C65.5272 111.011 65.605 110.489 65.9754 110.219C66.3458 109.948 66.868 110.026 67.1421 110.396L67.1495 110.407C67.5013 110.885 67.8791 111.356 68.2754 111.807L68.3939 111.941C68.4124 111.963 68.4309 111.981 68.4458 112.004L77.7865 124.737C78.0495 125.096 77.9865 125.596 77.6383 125.878C77.4828 126.004 77.2939 126.063 77.1124 126.063Z" fill="#008080" fill-opacity="0.04"/>
<mask id="mask1_6038_3157" style="mask-type:luminance" maskUnits="userSpaceOnUse" x="65" y="110" width="13" height="17">
<path d="M77.1124 126.063C76.8828 126.063 76.6569 125.97 76.4902 125.785L76.3606 125.637C75.9309 125.144 75.5198 124.633 75.1383 124.115L65.7976 111.381C65.5272 111.011 65.605 110.489 65.9754 110.219C66.3458 109.948 66.868 110.026 67.1421 110.396L67.1495 110.407C67.5013 110.885 67.8791 111.356 68.2754 111.807L68.3939 111.941C68.4124 111.963 68.4309 111.981 68.4458 112.004L77.7865 124.737C78.0495 125.096 77.9865 125.596 77.6383 125.878C77.4828 126.004 77.2939 126.063 77.1124 126.063Z" fill="white"/>
</mask>
<g mask="url(#mask1_6038_3157)">
<g opacity="0.6">
<path d="M68.4502 113.222L77.791 125.956C77.5169 125.674 77.2465 125.385 76.9873 125.089C76.5688 124.615 76.1762 124.122 75.8095 123.622L66.4688 110.889C66.8354 111.389 67.228 111.881 67.6465 112.356C67.9058 112.652 68.1762 112.941 68.4502 113.222Z" fill="#008080" fill-opacity="0.8"/>
<path d="M77.79 126.789C77.5715 126.789 77.3567 126.704 77.1937 126.537C76.9048 126.244 76.6233 125.941 76.3567 125.637C75.927 125.148 75.5159 124.637 75.1344 124.115L65.7937 111.381C65.5233 111.011 65.6011 110.489 65.9715 110.219C66.3418 109.948 66.8641 110.026 67.1381 110.396L67.1456 110.407C67.4974 110.885 67.8752 111.356 68.2715 111.807C68.5196 112.089 68.7789 112.37 69.0456 112.641C69.0752 112.67 69.0974 112.7 69.1233 112.73L78.4641 125.463C78.7233 125.815 78.6641 126.307 78.3307 126.593C78.1752 126.726 77.9826 126.789 77.79 126.789Z" fill="#008080" fill-opacity="0.04"/>
</g>
</g>
<path d="M77.7898 126.789C77.5713 126.789 77.3565 126.704 77.1936 126.537C76.9528 126.293 76.7158 126.041 76.4861 125.781C76.4787 125.77 76.4676 125.763 76.4602 125.752C76.3639 125.633 76.2528 125.478 76.1491 125.333L76.0343 125.174L67.0935 112.985C66.8306 112.626 66.8935 112.126 67.2417 111.844C67.5861 111.563 68.0898 111.604 68.3861 111.937C68.601 112.174 68.8195 112.407 69.0417 112.637C69.0676 112.667 69.0935 112.696 69.1195 112.726L78.4602 125.459C78.7195 125.811 78.6602 126.304 78.3269 126.589C78.1713 126.726 77.9824 126.789 77.7898 126.789Z" fill="#008080" fill-opacity="0.04"/>
<mask id="mask2_6038_3157" style="mask-type:luminance" maskUnits="userSpaceOnUse" x="66" y="111" width="13" height="16">
<path d="M77.7898 126.789C77.5713 126.789 77.3565 126.704 77.1936 126.537C76.9528 126.293 76.7158 126.041 76.4861 125.781C76.4787 125.77 76.4676 125.763 76.4602 125.752C76.3639 125.633 76.2528 125.478 76.1491 125.333L76.0343 125.174L67.0935 112.985C66.8306 112.626 66.8935 112.126 67.2417 111.844C67.5861 111.563 68.0898 111.604 68.3861 111.937C68.601 112.174 68.8195 112.407 69.0417 112.637C69.0676 112.667 69.0935 112.696 69.1195 112.726L78.4602 125.459C78.7195 125.811 78.6602 126.304 78.3269 126.589C78.1713 126.726 77.9824 126.789 77.7898 126.789Z" fill="white"/>
</mask>
<g mask="url(#mask2_6038_3157)">
<g opacity="0.6">
<path d="M68.4502 113.222L77.791 125.956C77.5169 125.674 77.2465 125.385 76.9873 125.089C76.5688 124.615 76.1762 124.122 75.8095 123.622L66.4688 110.889C66.8354 111.389 67.228 111.881 67.6465 112.356C67.9058 112.652 68.1762 112.941 68.4502 113.222Z" fill="#008080" fill-opacity="0.8"/>
<path d="M77.79 126.789C77.5715 126.789 77.3567 126.704 77.1937 126.537C76.9048 126.244 76.6233 125.941 76.3567 125.637C75.927 125.148 75.5159 124.637 75.1344 124.115L65.7937 111.381C65.5233 111.011 65.6011 110.489 65.9715 110.219C66.3418 109.948 66.8641 110.026 67.1381 110.396L67.1456 110.407C67.4974 110.885 67.8752 111.356 68.2715 111.807C68.5196 112.089 68.7789 112.37 69.0456 112.641C69.0752 112.67 69.0974 112.7 69.1233 112.73L78.4641 125.463C78.7233 125.815 78.6641 126.307 78.3307 126.593C78.1752 126.726 77.9826 126.789 77.79 126.789Z" fill="#008080" fill-opacity="0.04"/>
</g>
</g>
<path d="M116.917 97.5776C116.694 98.2813 116.439 98.9887 116.157 99.685C115.554 101.181 114.82 102.652 113.957 104.078C113.542 104.763 113.102 105.441 112.624 106.107C111.009 108.385 109.046 110.526 106.75 112.441C100.502 117.666 92.9906 120.274 85.8943 120.274C78.8017 120.274 72.1239 117.663 67.5461 112.441C58.3794 101.996 61.0795 85.0702 73.5721 74.6331C79.8202 69.4072 87.3313 66.7998 94.4276 66.7998C101.52 66.7998 108.198 69.4109 112.776 74.6331C112.909 74.785 113.035 74.9331 113.154 75.085C113.75 75.8035 114.298 76.5554 114.787 77.322C115.672 78.7146 116.372 80.1776 116.913 81.7109C117.191 82.4887 117.42 83.285 117.602 84.0924C118.605 88.4109 118.35 93.0628 116.917 97.5776Z" fill="white"/>
<path d="M117.604 84.0925H93.1742C90.5964 84.0925 88.8223 82.0814 89.2223 79.5925C89.6186 77.1036 92.0297 75.0925 94.6112 75.0925H113.159C113.756 75.811 114.304 76.5629 114.793 77.3296C115.678 78.7222 116.378 80.1851 116.919 81.7185C117.193 82.4888 117.422 83.2851 117.604 84.0925Z" fill="#008080" fill-opacity="0.8"/>
<path d="M116.916 97.5777C116.694 98.2814 116.438 98.9888 116.157 99.6851C115.553 101.181 114.82 102.652 113.957 104.078C113.542 104.763 113.101 105.441 112.623 106.107H89.4084C86.9603 106.107 85.2936 104.196 85.6677 101.841C86.0455 99.4851 88.3269 97.574 90.7677 97.574H116.916V97.5777Z" fill="#008080" fill-opacity="0.8"/>
<path d="M123.853 1.35181H226.909L225.335 11.2259L198.253 181.026H67.8757H57.6387L65.8276 129.67C71.2202 132.463 77.3757 133.859 83.7498 133.859C92.3164 133.859 101.283 131.337 109.353 126.289H181.613C182.868 126.289 184.035 125.311 184.231 124.1C184.424 122.896 183.565 121.918 182.313 121.918H115.342C121.461 116.763 125.998 110.57 128.857 104.03H185.165C186.42 104.03 187.587 103.052 187.779 101.848C187.972 100.641 187.113 99.6592 185.861 99.6592H130.509C132.409 93.7 132.935 87.5777 132.031 81.7703H188.713C189.968 81.7703 191.135 80.7926 191.328 79.5889C191.52 78.3814 190.661 77.4 189.409 77.4H131.057C129.739 72.9074 127.491 68.7 124.272 65.0222C117.365 57.1518 107.294 53.2148 96.5979 53.2148C90.2276 53.2148 83.6387 54.6111 77.3572 57.4L80.5165 37.5814H117.435L123.116 1.97033L123.853 1.35181ZM178.065 148.544C179.32 148.544 180.487 147.567 180.683 146.356C180.876 145.152 180.016 144.174 178.765 144.174H90.8572C89.609 144.174 88.4387 145.152 88.2461 146.356C88.0535 147.563 88.9127 148.544 90.1609 148.544H178.065ZM192.265 59.5148C193.52 59.5148 194.687 58.537 194.879 57.3333C195.072 56.1259 194.213 55.1444 192.961 55.1444H133.372C132.12 55.1444 130.953 56.1222 130.761 57.3333C130.568 58.537 131.42 59.5148 132.676 59.5148H192.265Z" fill="#008080" fill-opacity="0.04"/>
<path d="M198.254 181.855H57.6388C57.3944 181.855 57.1648 181.748 57.0055 181.563C56.8463 181.378 56.7796 181.133 56.8166 180.893L65.0092 129.537C65.05 129.274 65.2166 129.044 65.4574 128.926C65.6944 128.804 65.9796 128.807 66.2166 128.93C71.3944 131.611 77.4574 133.026 83.7537 133.026C92.4314 133.026 101.131 130.452 108.913 125.581C109.046 125.5 109.198 125.455 109.354 125.455H181.613C182.457 125.455 183.28 124.774 183.406 123.97C183.457 123.644 183.383 123.341 183.194 123.118C182.994 122.881 182.68 122.752 182.309 122.752H115.343C114.991 122.752 114.68 122.533 114.561 122.204C114.443 121.874 114.539 121.507 114.806 121.281C120.606 116.393 125.202 110.311 128.094 103.696C128.228 103.393 128.528 103.196 128.857 103.196H185.165C186.009 103.196 186.831 102.518 186.957 101.715C187.009 101.385 186.935 101.081 186.746 100.859C186.546 100.622 186.231 100.493 185.861 100.493H130.509C130.243 100.493 129.994 100.367 129.835 100.152C129.68 99.9369 129.635 99.6592 129.713 99.4073C131.568 93.5888 132.083 87.5332 131.206 81.8999C131.168 81.6592 131.239 81.4147 131.394 81.2295C131.55 81.0444 131.783 80.937 132.028 80.937H188.709C189.554 80.937 190.376 80.2592 190.502 79.4555C190.554 79.1258 190.48 78.8221 190.291 78.5999C190.091 78.3629 189.776 78.2333 189.406 78.2333H131.057C130.687 78.2333 130.361 77.9888 130.257 77.6332C128.939 73.1332 126.713 69.074 123.643 65.5703C117.12 58.1407 107.517 54.0481 96.5944 54.0481C90.2833 54.0481 83.7463 55.4703 77.6907 58.1629C77.4092 58.2851 77.087 58.2481 76.8426 58.0629C76.5981 57.8777 76.4796 57.574 76.5277 57.2703L79.687 37.4518C79.75 37.0481 80.1018 36.7481 80.5092 36.7481H116.717L122.283 1.83696C122.313 1.64066 122.417 1.45918 122.568 1.32955L123.309 0.70362C123.461 0.577694 123.65 0.507324 123.846 0.507324H226.909C227.154 0.507324 227.383 0.614735 227.543 0.79992C227.702 0.985105 227.768 1.22955 227.731 1.47029L199.076 181.144C199.013 181.559 198.665 181.855 198.254 181.855ZM58.6129 180.189H197.543L225.931 2.1814H124.157L123.887 2.41103L118.257 37.7184C118.194 38.1221 117.843 38.4221 117.435 38.4221H81.2277L78.4166 56.0481C84.287 53.6481 90.5388 52.3851 96.5981 52.3851C108.006 52.3851 118.057 56.6777 124.898 64.474C127.991 68.0073 130.268 72.0703 131.676 76.5666H189.413C190.265 76.5666 191.05 76.9147 191.565 77.5184C192.076 78.1184 192.287 78.8999 192.154 79.7184C191.894 81.337 190.383 82.6036 188.713 82.6036H132.991C133.665 87.8592 133.198 93.4258 131.631 98.8258H185.861C186.713 98.8258 187.498 99.174 188.013 99.7777C188.524 100.378 188.735 101.159 188.602 101.978C188.343 103.596 186.831 104.863 185.161 104.863H129.398C126.683 110.87 122.617 116.43 117.55 121.085H182.309C183.161 121.085 183.946 121.433 184.461 122.037C184.972 122.637 185.18 123.415 185.05 124.233C184.791 125.852 183.28 127.122 181.609 127.122H109.591C101.594 132.078 92.6648 134.693 83.75 134.693C77.5981 134.693 71.6537 133.393 66.4722 130.918L58.6129 180.189ZM178.065 149.378H90.1611C89.3129 149.378 88.5277 149.033 88.0129 148.426C87.5018 147.826 87.2907 147.044 87.424 146.222C87.6833 144.604 89.1907 143.337 90.8574 143.337H178.761C179.613 143.337 180.398 143.685 180.913 144.289C181.424 144.889 181.631 145.667 181.502 146.485C181.246 148.107 179.735 149.378 178.065 149.378ZM90.8574 145.007C90.0166 145.007 89.1981 145.685 89.0685 146.489C89.0166 146.818 89.0907 147.126 89.2796 147.348C89.4796 147.585 89.7944 147.715 90.1574 147.715H178.061C178.906 147.715 179.728 147.033 179.854 146.23C179.906 145.904 179.831 145.6 179.643 145.378C179.443 145.141 179.128 145.011 178.757 145.011H90.8574V145.007ZM192.265 60.3481H132.676C131.824 60.3481 131.043 60.0036 130.528 59.3999C130.017 58.7999 129.809 58.0221 129.939 57.2036C130.198 55.5814 131.706 54.3147 133.372 54.3147H192.961C193.813 54.3147 194.598 54.6629 195.113 55.2666C195.624 55.8666 195.835 56.6481 195.702 57.4666C195.446 59.0814 193.935 60.3481 192.265 60.3481ZM133.372 55.9777C132.531 55.9777 131.713 56.6592 131.583 57.4629C131.531 57.7925 131.606 58.0962 131.794 58.3147C131.994 58.5481 132.306 58.6777 132.676 58.6777H192.265C193.109 58.6777 193.931 57.9999 194.057 57.1962C194.109 56.8666 194.035 56.5629 193.846 56.3407C193.646 56.1036 193.331 55.974 192.961 55.974H133.372V55.9777Z" fill="#008080" fill-opacity="0.04"/>
<g opacity="0.5">
<g opacity="0.6">
<path d="M74.7277 73.8591L73.8425 79.4184C73.7054 79.5221 73.5684 79.6258 73.4351 79.7406C70.424 82.2517 69.7758 86.3332 71.9832 88.848C72.0795 88.9591 72.1832 89.0665 72.2906 89.1665L68.4536 113.218C68.1795 112.937 67.9091 112.648 67.6499 112.352C63.0943 107.155 61.4869 100.344 62.5758 93.5369C63.661 86.7258 67.4388 79.9184 73.6536 74.7258C74.0017 74.4295 74.3647 74.1406 74.7277 73.8591Z" fill="#008080" fill-opacity="0.04"/>
</g>
</g>
<path d="M185.861 99.6592C187.117 99.6592 187.972 100.637 187.78 101.848C187.587 103.052 186.417 104.03 185.165 104.03H128.857C129.491 102.589 130.043 101.13 130.506 99.6592H185.861Z" fill="#008080"/>
<path d="M185.164 104.863H128.857C128.575 104.863 128.312 104.722 128.16 104.485C128.009 104.248 127.983 103.952 128.094 103.696C128.72 102.267 129.264 100.826 129.712 99.4111C129.82 99.0629 130.142 98.8296 130.509 98.8296H185.86C186.712 98.8296 187.497 99.1777 188.012 99.7814C188.523 100.381 188.734 101.163 188.601 101.981C188.346 103.596 186.834 104.863 185.164 104.863ZM130.116 103.196H185.164C186.009 103.196 186.831 102.518 186.957 101.715C187.009 101.385 186.934 101.081 186.746 100.859C186.546 100.622 186.231 100.493 185.86 100.493H131.112C130.816 101.389 130.483 102.293 130.116 103.196Z" fill="#008080"/>
<path d="M182.311 121.915C183.566 121.915 184.422 122.893 184.229 124.096C184.037 125.304 182.866 126.285 181.611 126.285H109.348C111.351 125.033 113.3 123.622 115.17 122.059C115.225 122.011 115.285 121.963 115.34 121.919H182.311V121.915Z" fill="#008080"/>
<path d="M181.611 127.119H109.348C108.978 127.119 108.648 126.874 108.548 126.515C108.445 126.159 108.593 125.774 108.908 125.578C110.897 124.333 112.823 122.933 114.637 121.419L114.793 121.289C114.945 121.163 115.145 121.085 115.341 121.085H182.311C183.163 121.085 183.948 121.433 184.463 122.037C184.974 122.637 185.182 123.415 185.052 124.233C184.793 125.848 183.285 127.119 181.611 127.119ZM112.111 125.452H181.611C182.456 125.452 183.278 124.77 183.404 123.967C183.456 123.641 183.382 123.337 183.193 123.115C182.993 122.878 182.678 122.748 182.308 122.748H115.641C114.508 123.696 113.326 124.6 112.111 125.452Z" fill="#008080"/>
<path d="M235.32 12.8185L234.002 21.1L233.746 22.6963L206.92 190.893H64.8794L57.6387 181.022H198.253L225.335 11.2296L226.913 1.35181L235.32 12.8185Z" fill="#80BFBF"/>
<path d="M206.92 191.726H64.8831C64.6164 191.726 64.3683 191.6 64.2127 191.385L56.9683 181.515C56.7831 181.263 56.7535 180.926 56.8979 180.644C57.0386 180.363 57.3275 180.189 57.6424 180.189H197.546L224.516 11.0962L226.094 1.2184C226.146 0.88507 226.394 0.618408 226.72 0.54063C227.046 0.462853 227.39 0.585075 227.587 0.859149L235.994 12.3258C236.128 12.5036 236.179 12.7295 236.146 12.948L234.572 22.8258L207.742 191.026C207.676 191.429 207.328 191.726 206.92 191.726ZM65.3016 190.059H206.205L232.924 22.5629L234.442 13.0295L227.42 3.45174L226.157 11.3591L199.076 181.152C199.013 181.555 198.661 181.855 198.253 181.855H59.2831L65.3016 190.059Z" fill="#008080" fill-opacity="0.04"/>
<path d="M215.583 200.77L224.924 213.504H84.3017L74.9609 200.77H215.583Z" fill="#008080" fill-opacity="0.04"/>
<path d="M224.924 214.337H84.3016C84.035 214.337 83.7868 214.211 83.6313 213.996L74.2905 201.263C74.1053 201.011 74.0757 200.674 74.2202 200.393C74.3609 200.111 74.6498 199.937 74.9646 199.937H215.587C215.854 199.937 216.102 200.063 216.257 200.278L225.598 213.011C225.783 213.263 225.813 213.6 225.668 213.881C225.524 214.159 225.239 214.337 224.924 214.337ZM84.7239 212.67H223.279L215.161 201.604H76.6053L84.7239 212.67Z" fill="#008080" fill-opacity="0.04"/>
<path d="M244.239 21.0999L215.583 200.77H74.9609L76.535 190.892H206.92L233.998 21.0999H244.239Z" fill="#008080" fill-opacity="0.04"/>
<path d="M215.583 201.604H74.9611C74.7167 201.604 74.487 201.496 74.3278 201.311C74.1685 201.126 74.1019 200.881 74.1389 200.641L75.713 190.767C75.7759 190.363 76.1278 190.063 76.5352 190.063H206.209L233.176 20.9703C233.239 20.5666 233.591 20.2666 233.998 20.2666H244.239C244.483 20.2666 244.713 20.374 244.872 20.5592C245.031 20.7444 245.098 20.9888 245.061 21.2296L216.406 200.9C216.343 201.304 215.994 201.604 215.583 201.604ZM75.9389 199.937H214.872L243.261 21.9333H234.709L207.743 191.026C207.68 191.43 207.328 191.73 206.92 191.73H77.2463L75.9389 199.937Z" fill="#008080" fill-opacity="0.04"/>
<path d="M244.238 21.1001L253.578 33.8334L224.923 213.504L215.582 200.77L244.238 21.1001Z" fill="#80BFBF"/>
<path d="M224.923 214.337C224.66 214.337 224.412 214.215 224.252 213.996L214.912 201.263C214.778 201.085 214.726 200.859 214.76 200.637L243.415 20.9667C243.467 20.6334 243.715 20.3667 244.041 20.2889C244.367 20.2111 244.712 20.3334 244.908 20.6074L254.249 33.3408C254.382 33.5185 254.434 33.7445 254.401 33.9667L225.745 213.637C225.693 213.97 225.445 214.237 225.119 214.315C225.052 214.33 224.986 214.337 224.923 214.337ZM216.46 200.556L224.412 211.4L252.697 34.0445L244.745 23.2L216.46 200.556Z" fill="#008080" fill-opacity="0.04"/>
<path d="M60.8023 126.481L12.2764 167.048C12.1616 167.144 12.0431 167.23 11.9246 167.318C11.869 167.359 11.8171 167.4 11.7616 167.441C11.6653 167.507 11.5653 167.567 11.469 167.63C11.3986 167.674 11.3283 167.722 11.2579 167.763C11.206 167.793 11.1505 167.818 11.0986 167.848C10.969 167.918 10.8357 167.989 10.7023 168.048C10.6542 168.07 10.606 168.089 10.5579 168.107C10.3801 168.185 10.2023 168.252 10.0245 168.311C9.94307 168.341 9.85789 168.367 9.7727 168.393C9.70603 168.411 9.63566 168.433 9.569 168.448C9.46159 168.474 9.35418 168.5 9.24678 168.522C9.18011 168.537 9.11344 168.548 9.05047 168.559C8.93196 168.578 8.81714 168.593 8.69862 168.607C8.64307 168.615 8.58751 168.622 8.53196 168.626C8.36159 168.641 8.18751 168.648 8.01714 168.648C6.56529 168.648 5.20233 168.115 4.26529 167.048L2.53566 165.078C2.45048 164.981 2.3727 164.881 2.29492 164.778L11.6357 177.511C11.7097 177.615 11.7912 177.715 11.8764 177.811L13.606 179.781C14.5431 180.848 15.906 181.381 17.3579 181.381C17.5283 181.381 17.6986 181.374 17.8727 181.359C17.9283 181.356 17.9838 181.344 18.0394 181.341C18.1579 181.326 18.2727 181.311 18.3912 181.293C18.4579 181.281 18.5245 181.267 18.5875 181.256C18.6949 181.233 18.8023 181.211 18.9097 181.181C18.9801 181.163 19.0468 181.144 19.1134 181.126C19.1616 181.111 19.2134 181.1 19.2616 181.085C19.2949 181.074 19.3283 181.059 19.3653 181.044C19.5468 180.985 19.7246 180.915 19.8986 180.841C19.932 180.826 19.969 180.815 20.006 180.8C20.0208 180.793 20.032 180.785 20.0468 180.781C20.1801 180.718 20.3097 180.652 20.4431 180.581C20.4912 180.556 20.5394 180.537 20.5875 180.507C20.5949 180.504 20.5986 180.5 20.6023 180.496C20.6727 180.456 20.7431 180.407 20.8134 180.363C20.9023 180.307 20.9949 180.256 21.0838 180.193C21.0912 180.189 21.0986 180.181 21.106 180.174C21.1616 180.137 21.2134 180.093 21.269 180.052C21.3579 179.985 21.4505 179.922 21.5357 179.852C21.5653 179.83 21.5912 179.807 21.6208 179.781L70.1468 139.215L60.8023 126.481Z" fill="#008080"/>
<path d="M17.3532 182.215C15.5977 182.215 14.0421 181.544 12.9754 180.33L11.2458 178.359C11.1458 178.244 11.0495 178.126 10.9606 178.004L1.62358 165.278C1.62358 165.274 1.61987 165.274 1.61987 165.27C1.3495 164.9 1.42728 164.378 1.79765 164.107C2.16803 163.837 2.69025 163.915 2.96062 164.285L2.96432 164.293C3.02358 164.374 3.08654 164.452 3.15321 164.53L4.88284 166.5C5.62728 167.348 6.73839 167.815 8.00876 167.815C8.15691 167.815 8.30135 167.807 8.4495 167.793L8.59765 167.774C8.69765 167.763 8.79765 167.752 8.90136 167.733C8.9421 167.726 8.98654 167.718 9.02728 167.707L9.07543 167.696C9.16802 167.678 9.26432 167.655 9.35691 167.633C9.41617 167.618 9.47913 167.6 9.53839 167.585C9.61247 167.563 9.68284 167.541 9.75691 167.515C9.91247 167.463 10.068 167.404 10.2236 167.337L10.3495 167.285C10.468 167.23 10.5828 167.17 10.6977 167.107L10.8384 167.033C10.868 167.015 10.9014 166.996 10.931 166.974L11.0865 166.874C11.1532 166.833 11.2162 166.793 11.2828 166.748C11.3051 166.733 11.3273 166.715 11.3495 166.696L11.4569 166.615C11.5495 166.544 11.6458 166.478 11.7347 166.4L60.2606 125.833C60.4384 125.685 60.668 125.618 60.8939 125.644C61.1236 125.67 61.3273 125.793 61.4643 125.978L70.8051 138.711C71.0643 139.067 71.0051 139.563 70.668 139.844L22.0532 180.5C21.9754 180.563 21.8976 180.622 21.8162 180.678L21.7088 180.755C21.6643 180.789 21.6199 180.822 21.5754 180.855C21.4754 180.926 21.3977 180.974 21.3199 181.022L21.1828 181.107C21.131 181.141 21.0791 181.174 21.0273 181.204C21.0125 181.215 20.9977 181.222 20.9828 181.23C20.9495 181.248 20.9051 181.27 20.8643 181.289L20.831 181.304C20.6828 181.381 20.5384 181.459 20.3865 181.53C20.3902 181.53 20.3643 181.541 20.3421 181.552C20.3051 181.567 20.2643 181.585 20.2236 181.6C20.0236 181.685 19.8236 181.763 19.6236 181.83C19.5902 181.844 19.5458 181.859 19.5051 181.874C19.468 181.885 19.4236 181.896 19.3828 181.907L19.3421 181.918C19.2643 181.941 19.1865 181.963 19.1088 181.981C18.9865 182.011 18.868 182.041 18.7458 182.063L18.7051 182.07C18.6421 182.081 18.5828 182.096 18.5199 182.107C18.3865 182.13 18.2532 182.148 18.1236 182.163L18.0754 182.17C18.0273 182.178 17.9828 182.181 17.9347 182.185C17.7273 182.207 17.5384 182.215 17.3532 182.215ZM6.67913 169.348L12.3088 177.022C12.368 177.104 12.4347 177.185 12.5014 177.263L14.231 179.233C15.0606 180.181 16.3643 180.652 17.7977 180.53L17.9421 180.511C18.0421 180.5 18.1458 180.489 18.2458 180.47C18.2865 180.463 18.331 180.456 18.3717 180.444L18.4162 180.437C18.5125 180.418 18.6051 180.396 18.6977 180.374C18.7569 180.359 18.8162 180.341 18.8791 180.326L19.0051 180.293C19.0273 180.281 19.0643 180.267 19.0977 180.256C19.2532 180.204 19.4125 180.144 19.568 180.074C19.5977 180.059 19.631 180.048 19.6643 180.037L19.6902 180.026C19.8125 179.97 19.9273 179.907 20.0458 179.844C20.0754 179.826 20.1088 179.811 20.1384 179.796L20.1643 179.781C20.1717 179.774 20.1828 179.77 20.1902 179.767C20.2162 179.752 20.2495 179.73 20.2828 179.711L20.4569 179.604C20.5088 179.574 20.5606 179.541 20.6088 179.507C20.6532 179.474 20.6754 179.459 20.6977 179.441L20.8384 179.333C20.8939 179.293 20.9495 179.252 21.0051 179.207L21.0791 179.148L69.0088 139.081L60.6569 127.693L12.8088 167.689C12.6902 167.785 12.5717 167.878 12.4495 167.967L12.368 168.03C12.3236 168.063 12.2828 168.096 12.2384 168.126C12.1495 168.185 12.0606 168.241 11.9717 168.296L11.8421 168.378C11.7865 168.415 11.731 168.448 11.6754 168.481C11.631 168.507 11.5865 168.53 11.5421 168.552L11.4939 168.578C11.3495 168.655 11.2014 168.733 11.0532 168.804C11.0125 168.822 10.9717 168.841 10.9273 168.855L10.8865 168.874C10.6902 168.959 10.4902 169.037 10.2865 169.104C10.1939 169.137 10.0976 169.167 10.0051 169.193C9.92728 169.215 9.84951 169.237 9.77173 169.255C9.65321 169.285 9.53098 169.315 9.40876 169.337L9.36802 169.344C9.30876 169.355 9.2458 169.37 9.18654 169.378C9.05321 169.4 8.92358 169.418 8.79024 169.433L8.73839 169.441C8.69395 169.448 8.6458 169.452 8.59765 169.456C8.39025 169.474 8.19765 169.481 8.01247 169.481C7.55321 169.481 7.10506 169.437 6.67913 169.348Z" fill="#008080" fill-opacity="0.04"/>
<path d="M132.031 81.7701C131.802 80.2923 131.476 78.8294 131.054 77.3997C129.739 72.9035 127.487 68.6997 124.269 65.022C117.361 57.1516 107.291 53.2183 96.5944 53.2183C90.2204 53.2183 83.6315 54.6109 77.3537 57.4071C73.0796 59.3071 68.9537 61.8479 65.1389 65.0368C48.2907 79.1183 43.2648 101.044 52.2981 116.785L3.7648 157.359C1.21666 159.485 0.668504 162.94 2.53517 165.078L4.2648 167.048C5.19813 168.115 6.56851 168.652 8.01295 168.652C9.4648 168.652 11.0018 168.115 12.2722 167.048L60.8018 126.485C62.387 127.689 64.0685 128.755 65.8278 129.666C71.2204 132.455 77.3759 133.855 83.75 133.855C92.3204 133.855 101.287 131.337 109.35 126.285C111.357 125.033 113.302 123.622 115.346 121.915C121.461 116.755 126.002 110.566 128.861 104.022C129.487 102.589 130.043 101.122 130.506 99.6516C132.406 93.7034 132.935 87.5738 132.031 81.7701ZM106.75 112.444C100.502 117.67 92.9907 120.278 85.8944 120.278C78.8018 120.278 72.1241 117.666 67.5463 112.444C58.3796 102 61.0796 85.0738 73.5722 74.6368C79.8204 69.4109 87.3315 66.8034 94.4278 66.8034C101.52 66.8034 108.198 69.4146 112.776 74.6368C112.909 74.7886 113.035 74.9368 113.154 75.0886C113.75 75.8071 114.298 76.559 114.787 77.3257C115.672 78.7183 116.372 80.1812 116.913 81.7146C117.191 82.4923 117.42 83.2886 117.602 84.096C118.602 88.4183 118.35 93.0701 116.913 97.5812C116.691 98.2849 116.435 98.9923 116.154 99.6886C115.55 101.185 114.817 102.655 113.954 104.081C113.539 104.766 113.098 105.444 112.62 106.111C111.013 108.389 109.046 110.529 106.75 112.444Z" fill="#008080"/>
<path d="M8.01208 169.485C6.25652 169.485 4.70097 168.815 3.638 167.596L1.90837 165.626C0.952813 164.529 0.493554 163.089 0.612072 161.57C0.756517 159.755 1.70837 157.985 3.23059 156.718L51.2343 116.589C47.0084 108.848 45.9306 99.4702 48.2047 90.0924C50.5565 80.3998 56.3825 71.2739 64.6084 64.3961C68.401 61.2257 72.5788 58.6183 77.0195 56.6443C83.2787 53.8591 90.0491 52.385 96.601 52.385C108.008 52.385 118.06 56.6776 124.901 64.4739C128.138 68.1702 130.479 72.4406 131.86 77.1665C132.286 78.6146 132.623 80.1183 132.86 81.6406C133.779 87.5257 133.238 93.8443 131.305 99.9072C130.842 101.378 130.279 102.874 129.631 104.355C126.638 111.204 121.882 117.492 115.886 122.552C113.857 124.248 111.864 125.7 109.794 126.989C101.757 132.022 92.7528 134.685 83.7528 134.685C77.1936 134.685 70.8639 133.204 65.4491 130.404C63.8565 129.581 62.3084 128.618 60.8343 127.544L12.8047 167.689C11.4232 168.844 9.72319 169.485 8.01208 169.485ZM96.5973 54.0517C90.2787 54.0517 83.7417 55.4739 77.6936 58.1665C73.3936 60.0776 69.3491 62.6035 65.675 65.6739C49.3269 79.3369 44.0047 100.659 53.0232 116.366C53.2232 116.718 53.1454 117.163 52.8343 117.422L4.29726 157.996C3.11948 158.981 2.37874 160.329 2.27134 161.7C2.18615 162.77 2.50096 163.774 3.16022 164.526L4.88985 166.496C5.6343 167.348 6.74171 167.815 8.01208 167.815C9.3306 167.815 10.6565 167.315 11.738 166.407L60.2676 125.844C60.5676 125.596 60.9973 125.585 61.3084 125.822C62.8602 127.004 64.5084 128.048 66.2121 128.926C71.3899 131.604 77.4565 133.022 83.7528 133.022C92.438 133.022 101.138 130.448 108.908 125.581C110.912 124.329 112.845 122.922 114.812 121.278C120.612 116.389 125.205 110.307 128.097 103.692C128.723 102.263 129.264 100.822 129.712 99.4072C131.568 93.585 132.086 87.5332 131.208 81.8998C130.982 80.4517 130.664 79.0183 130.257 77.6406C128.945 73.148 126.719 69.0887 123.642 65.5739C117.123 58.1443 107.516 54.0517 96.5973 54.0517ZM85.8936 121.111C78.2454 121.111 71.5047 118.229 66.9158 112.992C62.8195 108.326 60.8454 102.148 61.3528 95.5924C61.975 87.5517 66.2343 79.6776 73.0343 73.9961C79.2269 68.8183 86.8232 65.9665 94.4269 65.9665C102.075 65.9665 108.816 68.848 113.405 74.085C113.545 74.2443 113.679 74.4035 113.808 74.5665C114.408 75.2887 114.979 76.0702 115.494 76.8739C116.386 78.2739 117.131 79.8072 117.705 81.4294C117.99 82.2294 118.231 83.0628 118.419 83.9072C119.445 88.3332 119.201 93.148 117.712 97.8295C117.479 98.5628 117.216 99.2924 116.931 99.9998C116.312 101.537 115.553 103.052 114.671 104.511C114.223 105.248 113.779 105.929 113.305 106.596C111.616 108.978 109.59 111.159 107.286 113.085C101.094 118.259 93.4973 121.111 85.8936 121.111ZM94.4269 67.6332C87.2158 67.6332 79.9973 70.348 74.1047 75.2739C67.6454 80.6702 63.601 88.1258 63.0158 95.722C62.5417 101.826 64.375 107.566 68.1713 111.892C72.438 116.763 78.7343 119.444 85.8936 119.444C93.1047 119.444 100.323 116.729 106.216 111.804C108.412 109.97 110.338 107.892 111.945 105.629C112.394 104.996 112.819 104.352 113.245 103.648C114.079 102.266 114.797 100.829 115.386 99.3739C115.657 98.7072 115.905 98.0183 116.123 97.3257C117.519 92.9295 117.753 88.4183 116.794 84.2776C116.619 83.4961 116.397 82.7257 116.134 81.9887C115.601 80.4813 114.912 79.0628 114.09 77.7702C113.616 77.0258 113.086 76.2998 112.519 75.6183C112.397 75.4665 112.279 75.3257 112.157 75.185C107.882 70.3146 101.586 67.6332 94.4269 67.6332Z" fill="#008080" fill-opacity="0.04"/>
<path d="M86.9083 88.0146C86.8342 87.8035 86.7416 87.6035 86.6157 87.4146C86.5379 87.285 86.4453 87.1628 86.3416 87.0442C85.7157 86.3331 84.8046 85.9739 83.8342 85.9739C83.7564 85.9739 83.6786 85.9776 83.5972 85.9813C82.6972 86.0331 81.7675 86.3887 80.9823 87.0442C79.9897 87.8739 79.449 89.0035 79.4194 90.085C79.3972 90.8628 79.6379 91.6146 80.1601 92.2109C80.786 92.922 81.6972 93.2813 82.6675 93.2813C83.6379 93.2813 84.6638 92.9257 85.5157 92.2109C85.9194 91.8702 86.2527 91.485 86.5046 91.0665C86.6231 90.8739 86.7194 90.6739 86.8046 90.4665C87.1379 89.6517 87.1786 88.7813 86.9083 88.0146Z" fill="#008080" fill-opacity="0.04"/>
<path d="M83.8742 81.4481C83.7446 81.0777 83.5705 80.7258 83.3594 80.3925C83.215 80.1666 83.0594 79.9518 82.8779 79.7444C81.7742 78.4851 80.1631 77.8555 78.4557 77.8555C76.8964 77.8555 75.2594 78.3777 73.8409 79.4221C73.7038 79.5258 73.5668 79.6295 73.4335 79.7407C70.4224 82.2518 69.7742 86.3332 71.9816 88.8481C72.0816 88.9592 72.1816 89.0666 72.289 89.1666C73.3705 90.211 74.8446 90.7295 76.4039 90.7295C77.4039 90.7295 78.4409 90.5147 79.4298 90.0851C80.1298 89.7814 80.8038 89.3666 81.4298 88.8481C82.1409 88.2481 82.7261 87.5666 83.1668 86.8332C83.3335 86.5555 83.4816 86.2703 83.6039 85.9814C83.6335 85.911 83.6631 85.8444 83.689 85.774C84.2742 84.3332 84.3446 82.7999 83.8742 81.4481Z" fill="#008080" fill-opacity="0.04"/>
<path d="M206.92 190.892H64.8794L57.6387 181.022H198.253L206.92 190.892Z" fill="#008080" fill-opacity="0.04"/>
<path d="M206.92 191.726H64.8831C64.6164 191.726 64.3683 191.6 64.2127 191.385L56.9683 181.515C56.7831 181.263 56.7535 180.926 56.8979 180.644C57.0386 180.363 57.3275 180.189 57.6424 180.189H198.257C198.498 180.189 198.724 180.292 198.883 180.474L207.55 190.344C207.765 190.589 207.816 190.941 207.683 191.237C207.542 191.537 207.246 191.726 206.92 191.726ZM65.3016 190.059H205.076L197.872 181.855H59.2794L65.3016 190.059Z" fill="#008080" fill-opacity="0.04"/>
<path d="M189.409 77.3999C190.664 77.3999 191.52 78.3777 191.327 79.5888C191.134 80.7925 189.964 81.7703 188.712 81.7703H132.031C131.801 80.2925 131.475 78.8258 131.057 77.3999H189.409Z" fill="#008080"/>
<path d="M188.712 82.6037H132.031C131.62 82.6037 131.271 82.3037 131.208 81.8963C130.986 80.4555 130.668 79.0222 130.257 77.6333C130.183 77.3815 130.231 77.1074 130.39 76.9C130.546 76.6889 130.794 76.5667 131.057 76.5667H189.412C190.264 76.5667 191.049 76.9148 191.564 77.5185C192.075 78.1185 192.286 78.9 192.153 79.7185C191.894 81.337 190.383 82.6037 188.712 82.6037ZM132.738 80.937H188.712C189.557 80.937 190.379 80.2592 190.505 79.4555C190.557 79.1259 190.483 78.8222 190.294 78.6C190.094 78.3629 189.779 78.2333 189.409 78.2333H132.149C132.383 79.1259 132.579 80.0296 132.738 80.937Z" fill="#008080"/>
<path d="M192.959 55.1443C194.215 55.1443 195.071 56.1221 194.878 57.3332C194.685 58.5369 193.515 59.5146 192.263 59.5146H132.674C131.422 59.5146 130.567 58.5369 130.759 57.3332C130.952 56.1258 132.119 55.1443 133.371 55.1443H192.959Z" fill="#008080"/>
<path d="M192.264 60.348H132.675C131.823 60.348 131.042 60.0036 130.527 59.3999C130.016 58.7999 129.808 58.0221 129.938 57.2036C130.197 55.5851 131.705 54.3147 133.371 54.3147H192.96C193.812 54.3147 194.597 54.6628 195.112 55.2666C195.623 55.8665 195.834 56.648 195.701 57.4665C195.445 59.0814 193.934 60.348 192.264 60.348ZM133.371 55.9777C132.531 55.9777 131.712 56.6591 131.582 57.4628C131.531 57.7925 131.605 58.0962 131.794 58.3184C131.994 58.5517 132.305 58.6814 132.675 58.6814H192.264C193.108 58.6814 193.931 58.0036 194.057 57.1999C194.108 56.8703 194.034 56.5665 193.845 56.3443C193.645 56.1073 193.331 55.9777 192.96 55.9777H133.371Z" fill="#008080"/>
<path d="M178.761 144.174C180.016 144.174 180.872 145.152 180.679 146.355C180.486 147.563 179.316 148.544 178.061 148.544H90.1605C88.9124 148.544 88.0531 147.566 88.2457 146.355C88.4383 145.152 89.6087 144.174 90.8568 144.174H178.761Z" fill="#008080"/>
<path d="M178.065 149.378H90.161C89.3129 149.378 88.5314 149.033 88.0166 148.429C87.5055 147.829 87.2944 147.048 87.4277 146.226C87.687 144.607 89.1944 143.341 90.861 143.341H178.761C179.613 143.341 180.398 143.689 180.913 144.292C181.424 144.892 181.631 145.67 181.502 146.489C181.246 148.107 179.735 149.378 178.065 149.378ZM90.8573 145.007C90.0166 145.007 89.1981 145.685 89.0685 146.489C89.0166 146.818 89.0907 147.126 89.2796 147.348C89.4796 147.585 89.7907 147.715 90.1573 147.715H178.061C178.905 147.715 179.728 147.033 179.854 146.229C179.905 145.904 179.831 145.6 179.643 145.378C179.443 145.141 179.128 145.011 178.757 145.011H90.8573V145.007Z" fill="#008080"/>
<path d="M141.371 94.5037C141.304 94.0778 141.23 93.6518 141.149 93.2296C141.142 93.1889 141.134 93.1481 141.127 93.1074C141.112 93.0296 141.09 92.9518 141.075 92.8704C141.004 92.5259 140.927 92.1815 140.845 91.8407C140.816 91.7148 140.786 91.5852 140.753 91.4592C140.642 91.0148 140.523 90.5741 140.397 90.137C140.223 89.5407 140.023 88.9518 139.816 88.3667C139.79 88.2926 139.771 88.2185 139.742 88.1444C139.716 88.0666 139.679 87.9926 139.653 87.9185C139.456 87.3852 139.249 86.8592 139.023 86.337C139.004 86.2889 138.986 86.2444 138.964 86.1963C138.719 85.637 138.453 85.0852 138.179 84.537C138.145 84.4741 138.119 84.4111 138.09 84.3481C138.045 84.2592 137.99 84.1704 137.945 84.0815C137.756 83.7222 137.56 83.3704 137.36 83.0148C137.275 82.8704 137.197 82.7222 137.108 82.5778C136.823 82.0963 136.527 81.6185 136.212 81.1481C136.212 81.1444 136.208 81.1444 136.208 81.1407C135.945 80.7481 135.675 80.3592 135.393 79.9741L126.053 67.2407C126.338 67.6259 126.608 68.0185 126.875 68.4148C127.19 68.8852 127.486 69.3629 127.771 69.8444C127.856 69.9889 127.938 70.137 128.023 70.2815C128.223 70.6333 128.419 70.9889 128.608 71.3444C128.69 71.4963 128.767 71.6481 128.845 71.8C129.123 72.3481 129.386 72.9 129.63 73.4592C129.649 73.5037 129.667 73.5518 129.686 73.6C129.912 74.1222 130.119 74.6481 130.316 75.1815C130.371 75.3296 130.427 75.4815 130.479 75.6296C130.686 76.2148 130.882 76.8037 131.056 77.4C131.186 77.837 131.301 78.2778 131.412 78.7222C131.445 78.8518 131.475 78.9778 131.504 79.1074C131.586 79.4481 131.66 79.7889 131.73 80.1333C131.756 80.2555 131.782 80.3741 131.804 80.4963C131.886 80.9185 131.964 81.3444 132.027 81.7704C132.93 87.5741 132.401 93.7 130.504 99.6593C130.042 101.13 129.486 102.589 128.856 104.03C128.727 104.326 128.59 104.619 128.456 104.911C128.349 105.141 128.242 105.37 128.13 105.6C128.038 105.789 127.945 105.981 127.853 106.17C127.738 106.4 127.619 106.626 127.501 106.856C127.404 107.044 127.304 107.23 127.204 107.415C127.082 107.644 126.956 107.87 126.827 108.1C126.723 108.285 126.619 108.467 126.516 108.652C126.382 108.878 126.249 109.107 126.112 109.333C126.012 109.5 125.916 109.663 125.812 109.83C125.456 110.404 125.09 110.974 124.708 111.537C124.634 111.648 124.556 111.759 124.479 111.874C124.086 112.448 123.679 113.015 123.256 113.578C123.204 113.644 123.153 113.711 123.104 113.774C122.767 114.215 122.423 114.652 122.071 115.085C121.975 115.204 121.879 115.322 121.779 115.444C121.379 115.926 120.967 116.407 120.545 116.878C120.479 116.952 120.412 117.022 120.345 117.096C120.001 117.478 119.649 117.852 119.29 118.226C119.171 118.352 119.049 118.474 118.927 118.596C118.549 118.981 118.16 119.367 117.767 119.741C117.712 119.796 117.656 119.852 117.601 119.904C117.364 120.126 117.123 120.344 116.882 120.567C116.753 120.685 116.623 120.807 116.49 120.926C116.112 121.263 115.73 121.593 115.342 121.922C114.856 122.33 114.375 122.715 113.897 123.089C113.864 123.115 113.83 123.141 113.797 123.167C113.349 123.515 112.904 123.848 112.46 124.174C112.386 124.23 112.308 124.285 112.234 124.341C111.834 124.63 111.434 124.911 111.034 125.181C110.475 125.563 109.912 125.933 109.349 126.289C108.793 126.637 108.234 126.97 107.667 127.293C107.519 127.378 107.371 127.456 107.223 127.541C106.727 127.818 106.23 128.089 105.73 128.348C105.542 128.444 105.353 128.544 105.164 128.641C104.616 128.919 104.064 129.181 103.508 129.437C103.408 129.481 103.312 129.53 103.212 129.574C103.082 129.633 102.949 129.689 102.819 129.744C102.456 129.904 102.093 130.063 101.727 130.211C101.545 130.285 101.364 130.356 101.182 130.43C100.864 130.556 100.542 130.681 100.223 130.804C100.03 130.878 99.8341 130.948 99.6415 131.019C99.3267 131.133 99.0119 131.241 98.6971 131.348C98.5045 131.415 98.3119 131.478 98.1156 131.541C97.8563 131.626 97.5934 131.704 97.3341 131.785C97.0156 131.881 96.6934 131.978 96.3749 132.07C96.1267 132.141 95.8786 132.207 95.6267 132.274C95.3082 132.359 94.9934 132.441 94.6749 132.519C94.423 132.581 94.1711 132.641 93.923 132.696C93.6045 132.77 93.286 132.837 92.9674 132.904C92.7193 132.956 92.4674 133.007 92.2193 133.052C91.8971 133.111 91.5749 133.17 91.2526 133.222C91.0082 133.263 90.76 133.304 90.5156 133.341C90.186 133.389 89.8563 133.433 89.5304 133.478C89.2934 133.507 89.0526 133.541 88.8156 133.57C88.4711 133.611 88.1304 133.641 87.7897 133.67C87.5674 133.689 87.3415 133.715 87.1193 133.73C86.7415 133.759 86.3674 133.778 85.9934 133.796C85.8045 133.807 85.6193 133.819 85.4304 133.826C84.8674 133.848 84.3082 133.859 83.7489 133.859C77.3749 133.859 71.223 132.463 65.8267 129.67C64.0637 128.759 62.3823 127.696 60.8008 126.485L70.1415 139.219C71.723 140.43 73.4045 141.489 75.1675 142.404C80.56 145.196 86.7156 146.593 93.086 146.593C93.6452 146.593 94.2045 146.581 94.7674 146.559C94.9563 146.552 95.1415 146.537 95.3304 146.53C95.7045 146.511 96.0823 146.493 96.4563 146.463C96.6786 146.444 96.9008 146.422 97.123 146.404C97.4674 146.374 97.8082 146.341 98.1526 146.304C98.3897 146.278 98.6267 146.244 98.8637 146.215C99.1934 146.17 99.523 146.13 99.8526 146.078C100.097 146.041 100.345 146 100.59 145.959C100.912 145.904 101.234 145.848 101.556 145.789C101.804 145.741 102.056 145.693 102.304 145.641C102.623 145.574 102.942 145.507 103.26 145.433C103.512 145.378 103.76 145.319 104.008 145.256C104.327 145.178 104.645 145.096 104.964 145.011C105.212 144.944 105.46 144.878 105.708 144.807C106.03 144.715 106.349 144.619 106.671 144.522C106.83 144.474 106.993 144.43 107.153 144.381C107.253 144.348 107.353 144.315 107.453 144.281C107.645 144.218 107.838 144.152 108.034 144.089C108.349 143.981 108.664 143.874 108.979 143.759C109.171 143.689 109.367 143.619 109.56 143.544C109.882 143.426 110.201 143.3 110.519 143.17C110.701 143.096 110.882 143.026 111.064 142.952C111.43 142.8 111.793 142.644 112.156 142.485C112.286 142.426 112.419 142.374 112.549 142.315C112.571 142.304 112.597 142.293 112.619 142.285C112.693 142.252 112.767 142.211 112.842 142.178C113.397 141.922 113.949 141.659 114.497 141.381C114.686 141.285 114.875 141.189 115.064 141.089C115.564 140.83 116.064 140.559 116.556 140.281C116.664 140.222 116.771 140.17 116.875 140.107C116.916 140.085 116.96 140.056 117.001 140.033C117.564 139.711 118.127 139.378 118.682 139.03C119.249 138.674 119.808 138.304 120.367 137.922C120.419 137.889 120.467 137.856 120.519 137.822C120.867 137.581 121.219 137.333 121.567 137.081C121.642 137.026 121.719 136.97 121.793 136.915C122.238 136.589 122.682 136.256 123.127 135.907C123.16 135.881 123.193 135.856 123.227 135.83C123.464 135.644 123.704 135.456 123.942 135.259C124.182 135.063 124.427 134.863 124.667 134.659C125.056 134.33 125.438 134 125.816 133.663C125.949 133.544 126.075 133.426 126.204 133.307C126.445 133.085 126.69 132.867 126.927 132.641C126.938 132.63 126.953 132.618 126.964 132.607C127.008 132.567 127.049 132.522 127.09 132.481C127.486 132.104 127.871 131.718 128.253 131.333C128.375 131.211 128.493 131.085 128.612 130.963C128.971 130.589 129.323 130.215 129.667 129.833C129.719 129.778 129.775 129.722 129.823 129.667C129.838 129.652 129.849 129.633 129.864 129.618C130.286 129.144 130.697 128.667 131.097 128.185C131.197 128.067 131.293 127.948 131.39 127.83C131.742 127.396 132.09 126.959 132.423 126.518C132.46 126.467 132.504 126.419 132.542 126.367C132.553 126.352 132.564 126.337 132.575 126.322C132.997 125.759 133.404 125.193 133.797 124.618C133.875 124.507 133.949 124.396 134.027 124.285C134.408 123.719 134.779 123.148 135.134 122.574C135.156 122.537 135.182 122.504 135.204 122.467C135.282 122.337 135.356 122.207 135.434 122.078C135.571 121.852 135.704 121.626 135.838 121.396C135.945 121.211 136.045 121.026 136.149 120.844C136.275 120.619 136.401 120.393 136.523 120.163C136.623 119.978 136.723 119.789 136.819 119.6C136.938 119.374 137.056 119.144 137.167 118.915C137.264 118.726 137.356 118.537 137.449 118.344C137.56 118.115 137.667 117.885 137.775 117.656C137.819 117.556 137.871 117.459 137.916 117.359C138.004 117.163 138.09 116.97 138.175 116.774C138.808 115.333 139.36 113.874 139.823 112.404C141.745 106.437 142.275 100.311 141.371 94.5037Z" fill="#008080" fill-opacity="0.04"/>
<path d="M93.0869 147.426C86.524 147.426 80.198 145.944 74.7832 143.141C72.9647 142.2 71.2351 141.104 69.6314 139.878C69.5684 139.83 69.5129 139.774 69.4647 139.707L60.124 126.974C59.8795 126.641 59.9166 126.178 60.2129 125.885C60.5092 125.596 60.9721 125.567 61.3018 125.819C62.824 126.985 64.4721 128.03 66.2055 128.926C71.3832 131.607 77.4462 133.022 83.7425 133.022C84.2647 133.022 84.8203 133.011 85.3906 132.989C85.498 132.985 85.6018 132.978 85.7092 132.97L85.9425 132.956C86.3129 132.937 86.6795 132.918 87.0499 132.889C87.1943 132.878 87.3388 132.863 87.4795 132.852L87.7055 132.83C88.0499 132.8 88.3832 132.767 88.7129 132.73C88.8869 132.711 89.061 132.685 89.2351 132.663L89.4166 132.641C89.7388 132.6 90.061 132.556 90.3869 132.507C90.6018 132.474 90.8203 132.437 91.0351 132.4L91.1092 132.389C91.424 132.337 91.7425 132.281 92.0573 132.222C92.3017 132.174 92.5462 132.126 92.7943 132.074C93.1055 132.011 93.4203 131.941 93.7314 131.87C93.9795 131.815 94.224 131.756 94.4721 131.696C94.7832 131.619 95.098 131.541 95.4092 131.456C95.6536 131.389 95.898 131.326 96.1425 131.256C96.4573 131.167 96.7721 131.07 97.0869 130.974L97.1906 130.941C97.4129 130.874 97.6351 130.804 97.8536 130.733C98.0462 130.67 98.2351 130.607 98.424 130.544C98.7351 130.441 99.0425 130.333 99.3536 130.219C99.5425 130.148 99.7351 130.081 99.924 130.007C100.239 129.889 100.554 129.767 100.868 129.641L101.013 129.585C101.142 129.533 101.276 129.481 101.405 129.43C101.765 129.281 102.12 129.126 102.48 128.97L102.65 128.896C102.72 128.867 102.794 128.833 102.865 128.804L103.154 128.667C103.687 128.422 104.235 128.159 104.78 127.885C104.965 127.793 105.154 127.696 105.339 127.6C105.828 127.348 106.32 127.081 106.809 126.807L106.991 126.707C107.076 126.659 107.161 126.615 107.246 126.567C107.854 126.218 108.394 125.896 108.898 125.578C109.413 125.256 109.954 124.9 110.557 124.489C110.95 124.219 111.346 123.944 111.739 123.659L111.961 123.496C112.442 123.144 112.872 122.819 113.276 122.504L113.376 122.422C113.876 122.03 114.342 121.652 114.794 121.274C115.176 120.952 115.55 120.626 115.92 120.296C115.998 120.226 116.072 120.156 116.15 120.085L116.402 119.856C116.605 119.67 116.813 119.481 117.013 119.293L117.18 119.133C117.554 118.774 117.928 118.407 118.324 118.004C118.442 117.881 118.561 117.759 118.68 117.637C119.031 117.27 119.38 116.9 119.717 116.526L119.913 116.315C120.305 115.878 120.702 115.415 121.128 114.904L121.417 114.552C121.783 114.104 122.117 113.681 122.431 113.263L122.583 113.07C122.968 112.559 123.361 112.011 123.783 111.396L124.009 111.067C124.394 110.5 124.757 109.933 125.094 109.389C125.18 109.248 125.265 109.107 125.35 108.967L125.387 108.904C125.52 108.681 125.654 108.459 125.783 108.233C125.876 108.074 125.965 107.915 126.054 107.756L126.091 107.689C126.217 107.467 126.339 107.241 126.461 107.019C126.561 106.837 126.657 106.652 126.754 106.467C126.868 106.244 126.983 106.019 127.098 105.796C127.191 105.611 127.283 105.426 127.372 105.237C127.48 105.011 127.587 104.789 127.691 104.563L127.724 104.485C127.846 104.222 127.968 103.959 128.083 103.696C128.709 102.267 129.257 100.826 129.702 99.4074C131.557 93.5852 132.072 87.5333 131.194 81.9C131.135 81.5148 131.065 81.1074 130.976 80.6555L130.902 80.3C130.831 79.9629 130.761 79.6296 130.68 79.2963L130.587 78.9185C130.465 78.4259 130.354 78.0148 130.239 77.6333C130.087 77.1185 129.909 76.5704 129.672 75.9037C129.62 75.7592 129.568 75.6111 129.513 75.4667C129.302 74.9 129.102 74.3963 128.898 73.9259L128.842 73.7889C128.628 73.2963 128.38 72.7704 128.076 72.1741C128.002 72.0259 127.924 71.8778 127.846 71.7296C127.661 71.3815 127.472 71.037 127.276 70.6926L127.198 70.5592C127.142 70.463 127.087 70.3629 127.028 70.2667C126.717 69.7444 126.431 69.2889 126.154 68.8741C125.894 68.4852 125.624 68.1 125.354 67.7296C125.083 67.3592 125.161 66.837 125.531 66.5667C125.902 66.2963 126.424 66.3741 126.694 66.7444L126.698 66.7481L136.035 79.4778C136.32 79.8666 136.602 80.2704 136.872 80.6741C136.876 80.6815 136.88 80.6889 136.887 80.6963C137.18 81.137 137.476 81.6111 137.798 82.1481C137.861 82.2518 137.917 82.3555 137.976 82.4555L138.054 82.5926C138.261 82.9555 138.461 83.3185 138.654 83.6852L138.705 83.7815C138.739 83.8407 138.772 83.9 138.802 83.9592C138.824 84 138.842 84.0444 138.861 84.0852L138.891 84.1518C139.205 84.7741 139.468 85.3296 139.698 85.8555L139.757 85.9963C139.976 86.5074 140.187 87.037 140.405 87.6222L140.435 87.7C140.457 87.7518 140.48 87.8037 140.498 87.8592C140.517 87.9074 140.531 87.9592 140.546 88.0111L140.572 88.0889C140.817 88.7741 141.005 89.3518 141.165 89.9C141.283 90.3037 141.398 90.7333 141.531 91.2518C141.557 91.3518 141.58 91.4555 141.605 91.5555L141.628 91.6444C141.713 91.9963 141.791 92.3481 141.861 92.7L141.883 92.7926C141.894 92.8407 141.905 92.8889 141.917 92.9407L141.939 93.0704C142.031 93.5518 142.105 93.9778 142.168 94.3778C143.083 100.267 142.55 106.581 140.617 112.644C140.154 114.111 139.587 115.611 138.935 117.096C138.85 117.293 138.761 117.493 138.672 117.689C138.642 117.752 138.617 117.811 138.587 117.87L138.528 117.993C138.42 118.226 138.309 118.459 138.198 118.689C138.105 118.885 138.009 119.078 137.913 119.27C137.798 119.504 137.68 119.733 137.557 119.967C137.457 120.159 137.357 120.348 137.254 120.541C137.128 120.774 137.002 121.004 136.872 121.233L136.817 121.333C136.731 121.489 136.642 121.644 136.554 121.796C136.42 122.03 136.283 122.259 136.143 122.489L136.046 122.648C136.002 122.726 135.954 122.804 135.909 122.881L135.857 122.963C135.487 123.559 135.109 124.144 134.713 124.73L134.48 125.067C134.039 125.707 133.631 126.274 133.235 126.8L133.08 127.004C132.754 127.43 132.402 127.881 132.028 128.337L131.991 128.385C131.905 128.489 131.82 128.596 131.731 128.7C131.291 129.23 130.883 129.707 130.476 130.159L130.431 130.211C130.402 130.244 130.368 130.281 130.335 130.315L130.272 130.381C129.92 130.767 129.565 131.148 129.202 131.526C129.08 131.652 128.957 131.778 128.835 131.904C128.424 132.322 128.035 132.704 127.654 133.07L127.609 133.115C127.58 133.144 127.554 133.17 127.524 133.2C127.52 133.204 127.494 133.226 127.491 133.23C127.283 133.426 127.072 133.618 126.861 133.811L126.605 134.048C126.524 134.122 126.442 134.2 126.357 134.274C125.976 134.615 125.587 134.952 125.191 135.285C124.942 135.493 124.698 135.696 124.454 135.893C124.209 136.089 123.968 136.281 123.728 136.47L123.628 136.552C123.205 136.881 122.761 137.219 122.272 137.574L122.042 137.744C121.687 138 121.331 138.256 120.976 138.5C120.942 138.522 120.909 138.544 120.876 138.567L120.82 138.604C120.202 139.026 119.639 139.393 119.105 139.73C118.576 140.063 118.017 140.396 117.398 140.752L117.268 140.83C117.205 140.867 117.139 140.9 117.076 140.933C117.031 140.956 116.987 140.978 116.946 141.004C116.439 141.289 115.928 141.563 115.428 141.822C115.235 141.922 115.042 142.022 114.85 142.118C114.283 142.404 113.717 142.674 113.168 142.926L113.083 142.967C113.035 142.989 112.987 143.015 112.939 143.033L112.887 143.056C112.787 143.1 112.705 143.137 112.624 143.17L112.468 143.237C112.098 143.4 111.728 143.559 111.357 143.711C111.228 143.767 111.094 143.819 110.961 143.87L110.805 143.933C110.48 144.063 110.154 144.189 109.828 144.311C109.631 144.385 109.435 144.456 109.239 144.53C108.92 144.644 108.598 144.756 108.28 144.867C108.076 144.933 107.883 145 107.691 145.063L107.565 145.104C107.505 145.126 107.442 145.144 107.383 145.163C107.287 145.193 107.191 145.222 107.091 145.248L106.894 145.307C106.568 145.407 106.242 145.504 105.917 145.596C105.665 145.667 105.413 145.737 105.161 145.804C104.835 145.889 104.513 145.974 104.187 146.052C103.935 146.115 103.68 146.174 103.424 146.233C103.098 146.307 102.776 146.378 102.45 146.444C102.194 146.496 101.942 146.548 101.687 146.596C101.361 146.659 101.031 146.715 100.702 146.77L100.617 146.785C100.394 146.822 100.176 146.859 99.9536 146.893C99.6166 146.944 99.2832 146.989 98.9462 147.03L98.7647 147.052C98.5832 147.074 98.4018 147.1 98.224 147.118C97.8758 147.159 97.5277 147.189 97.1795 147.222L96.9573 147.244C96.8018 147.259 96.6499 147.274 96.4943 147.285C96.1092 147.315 95.7277 147.333 95.3462 147.352L95.1314 147.363C95.0129 147.37 94.8943 147.378 94.7758 147.381C94.2092 147.415 93.6314 147.426 93.0869 147.426ZM70.7425 138.626C72.2388 139.763 73.8573 140.781 75.5536 141.659C80.7314 144.341 86.7943 145.756 93.0906 145.756C93.6129 145.756 94.1684 145.744 94.7388 145.722C94.8462 145.719 94.9536 145.711 95.061 145.704L95.2906 145.689C95.661 145.67 96.0277 145.652 96.398 145.622C96.5425 145.611 96.6869 145.596 96.8314 145.585L97.0573 145.563C97.398 145.533 97.7314 145.5 98.0684 145.463C98.2388 145.444 98.4092 145.422 98.5832 145.4L98.7684 145.374C99.0906 145.333 99.4166 145.289 99.7388 145.241C99.9499 145.207 100.165 145.174 100.376 145.137L100.461 145.122C100.78 145.07 101.094 145.015 101.409 144.956C101.654 144.907 101.898 144.859 102.146 144.807C102.461 144.744 102.772 144.674 103.087 144.604C103.331 144.548 103.58 144.489 103.824 144.43C104.139 144.352 104.45 144.27 104.765 144.189C105.009 144.122 105.254 144.059 105.494 143.989C105.809 143.9 106.124 143.804 106.439 143.707L106.661 143.641C106.746 143.615 106.828 143.593 106.909 143.567L107.205 143.467C107.391 143.407 107.58 143.344 107.765 143.281C108.083 143.174 108.394 143.067 108.702 142.956C108.891 142.885 109.083 142.818 109.272 142.744C109.587 142.626 109.902 142.504 110.217 142.378L110.376 142.315C110.502 142.267 110.624 142.215 110.75 142.167C111.109 142.018 111.468 141.863 111.824 141.707L111.994 141.633C112.068 141.604 112.139 141.57 112.209 141.541L112.372 141.467C112.417 141.444 112.457 141.426 112.502 141.404C113.031 141.159 113.58 140.896 114.131 140.622C114.32 140.53 114.505 140.433 114.691 140.337C115.176 140.085 115.668 139.819 116.161 139.544C116.217 139.515 116.272 139.485 116.328 139.456C116.376 139.43 116.424 139.404 116.472 139.378L116.594 139.304C117.198 138.959 117.739 138.633 118.25 138.315C118.765 137.993 119.309 137.637 119.909 137.226L120.057 137.13C120.402 136.893 120.746 136.648 121.091 136.4L121.317 136.233C121.791 135.885 122.22 135.563 122.628 135.241L122.728 135.159C122.957 134.978 123.194 134.793 123.431 134.6C123.668 134.407 123.909 134.211 124.146 134.011C124.528 133.689 124.902 133.363 125.272 133.033C125.35 132.967 125.424 132.896 125.494 132.83L125.761 132.585C125.961 132.4 126.165 132.218 126.361 132.03C126.365 132.026 126.383 132.007 126.391 132.004L126.528 131.87C126.898 131.519 127.272 131.148 127.672 130.741C127.791 130.618 127.909 130.496 128.028 130.374C128.38 130.007 128.728 129.637 129.065 129.263L129.261 129.048C129.65 128.611 130.05 128.152 130.476 127.637C130.561 127.537 130.643 127.437 130.724 127.333L130.765 127.285C131.124 126.844 131.468 126.407 131.783 125.996L131.935 125.8C132.317 125.296 132.709 124.748 133.135 124.13L133.357 123.804C133.742 123.237 134.105 122.67 134.446 122.122L134.513 122.019C134.554 121.952 134.594 121.881 134.635 121.811L134.739 121.637C134.872 121.415 135.005 121.193 135.135 120.97C135.22 120.822 135.305 120.674 135.387 120.522L135.442 120.422C135.565 120.2 135.691 119.978 135.809 119.756C135.909 119.57 136.005 119.389 136.102 119.204C136.217 118.981 136.331 118.759 136.442 118.533C136.535 118.344 136.628 118.159 136.72 117.97C136.828 117.748 136.935 117.522 137.039 117.296L137.18 117.004C137.265 116.815 137.35 116.626 137.435 116.433C138.065 115 138.609 113.559 139.054 112.144C140.909 106.322 141.424 100.27 140.546 94.637C140.487 94.2592 140.417 93.8555 140.328 93.3963L140.257 93.0444C140.187 92.7074 140.113 92.3741 140.035 92.0407L140.013 91.9481C139.991 91.8555 139.968 91.7592 139.946 91.6666C139.82 91.1704 139.709 90.7592 139.598 90.3778C139.446 89.8555 139.265 89.3074 139.031 88.6518C139.017 88.6037 139.002 88.5629 138.987 88.5185C138.98 88.4926 138.968 88.4629 138.961 88.437C138.95 88.4074 138.939 88.3815 138.928 88.3555C138.909 88.3111 138.891 88.2629 138.872 88.2185C138.665 87.6629 138.465 87.1555 138.257 86.6778L138.202 86.5407C137.987 86.0444 137.735 85.5148 137.435 84.9222C137.417 84.8852 137.394 84.8407 137.376 84.8L137.346 84.7333C137.328 84.6963 137.305 84.6555 137.283 84.6185C137.257 84.5741 137.231 84.5259 137.205 84.4778C137.02 84.1259 136.831 83.7815 136.635 83.437L136.554 83.2926C136.502 83.2 136.446 83.1037 136.391 83.0111C136.08 82.4889 135.794 82.0296 135.517 81.6185C135.513 81.6148 135.509 81.6074 135.505 81.6C135.25 81.2185 134.983 80.8407 134.717 80.4741L131.528 76.1259C131.654 76.5 131.761 76.8444 131.857 77.1741C131.976 77.5778 132.094 78.0074 132.224 78.5259L132.32 78.9185C132.402 79.2703 132.48 79.6185 132.554 79.9704L132.631 80.3407C132.724 80.8148 132.798 81.2407 132.861 81.6481C133.776 87.537 133.239 93.8518 131.309 99.9148C130.846 101.385 130.28 102.885 129.628 104.367C129.509 104.641 129.38 104.915 129.254 105.189L129.22 105.263C129.113 105.496 129.002 105.73 128.891 105.963C128.798 106.156 128.702 106.348 128.605 106.544C128.487 106.778 128.368 107.011 128.25 107.241C128.15 107.43 128.05 107.622 127.95 107.811C127.824 108.044 127.694 108.274 127.565 108.507L127.528 108.574C127.435 108.741 127.342 108.904 127.246 109.07C127.113 109.304 126.976 109.533 126.835 109.763L126.798 109.826C126.709 109.974 126.62 110.122 126.531 110.267C126.183 110.833 125.805 111.418 125.405 112.007L125.172 112.348C124.735 112.985 124.328 113.552 123.928 114.081L123.772 114.281C123.442 114.715 123.098 115.152 122.72 115.615L122.42 115.978C121.983 116.507 121.572 116.981 121.165 117.433L120.961 117.652C120.609 118.037 120.254 118.419 119.887 118.8C119.765 118.926 119.642 119.052 119.52 119.178C119.113 119.593 118.728 119.974 118.339 120.344L118.168 120.511C117.961 120.707 117.75 120.9 117.535 121.096L117.294 121.319C117.209 121.396 117.128 121.474 117.042 121.548C116.661 121.889 116.272 122.226 115.876 122.559C115.405 122.952 114.928 123.341 114.409 123.744L114.309 123.826C113.891 124.152 113.446 124.489 112.954 124.848L112.724 125.018C112.317 125.315 111.909 125.596 111.505 125.874C110.887 126.296 110.324 126.663 109.791 127C109.265 127.33 108.705 127.663 108.083 128.022C107.991 128.074 107.898 128.126 107.802 128.178L107.631 128.274C107.128 128.556 106.617 128.833 106.113 129.093C105.92 129.193 105.728 129.293 105.535 129.389C104.968 129.674 104.405 129.944 103.854 130.196L103.724 130.256C103.668 130.281 103.609 130.311 103.554 130.337C103.472 130.374 103.391 130.407 103.309 130.444L103.15 130.511C102.78 130.674 102.409 130.833 102.039 130.985C101.902 131.041 101.765 131.096 101.624 131.152L101.483 131.207C101.157 131.337 100.835 131.463 100.505 131.585C100.309 131.659 100.113 131.73 99.9129 131.804C99.5943 131.919 99.2721 132.03 98.9536 132.137C98.7573 132.204 98.561 132.27 98.3647 132.333C98.1351 132.407 97.9017 132.478 97.6721 132.548L97.5684 132.578C97.2425 132.678 96.9166 132.774 96.5906 132.867C96.3388 132.937 96.0832 133.007 95.8314 133.074C95.5092 133.159 95.1869 133.244 94.861 133.322C94.6055 133.385 94.3499 133.444 94.0943 133.504C93.7721 133.578 93.4462 133.648 93.124 133.715C92.8721 133.767 92.6166 133.819 92.361 133.867C92.0314 133.93 91.7055 133.985 91.3758 134.041L91.3018 134.052C91.0758 134.089 90.8499 134.126 90.624 134.163C90.2869 134.215 89.9536 134.259 89.6203 134.3L89.4425 134.322C89.2573 134.348 89.0758 134.37 88.8943 134.393C88.5499 134.433 88.2055 134.463 87.861 134.496L87.6314 134.519C87.4758 134.533 87.3203 134.548 87.1684 134.559C86.7869 134.589 86.4055 134.607 86.024 134.626L85.8055 134.637C85.6869 134.644 85.5684 134.652 85.4499 134.656C84.8573 134.678 84.2832 134.689 83.7388 134.689C77.1758 134.689 70.8499 133.207 65.4351 130.404C65.024 130.193 64.6203 129.97 64.2203 129.744L70.7425 138.626Z" fill="#008080" fill-opacity="0.04"/>
</svg>
