<svg width="24" height="25" viewBox="0 0 24 25" fill="none" xmlns="http://www.w3.org/2000/svg">
<path d="M18.235 3.54517C16.463 2.32377 14.315 1.60864 12 1.60864C5.92487 1.60864 1 6.53351 1 12.6086C1 18.6838 5.92487 23.6086 12 23.6086C18.0751 23.6086 23 18.6838 23 12.6086C23 10.2936 22.2849 8.14568 21.0635 6.37359L19.6199 7.81717C20.4942 9.20461 21 10.8476 21 12.6086C21 17.5792 16.9706 21.6086 12 21.6086C7.02944 21.6086 3 17.5792 3 12.6086C3 7.63808 7.02944 3.60864 12 3.60864C13.7611 3.60864 15.404 4.11446 16.7915 4.98874L18.235 3.54517Z" fill="#FEFFFF"/>
<path d="M20 1.60864C20.5523 1.60864 21 2.05636 21 2.60864V3.60864H22C22.5523 3.60864 23 4.05636 23 4.60864C23 5.16093 22.5523 5.60864 22 5.60864H20.4142L13.8509 12.1719C14.2301 12.3141 14.5 12.6798 14.5 13.1086C14.5 13.6609 14.0523 14.1086 13.5 14.1086H11.5C10.9477 14.1086 10.5 13.6609 10.5 13.1086V11.1086C10.5 10.5564 10.9477 10.1086 11.5 10.1086C11.9288 10.1086 12.2946 10.3785 12.4367 10.7577L19 4.19443V2.60864C19 2.05636 19.4477 1.60864 20 1.60864Z" fill="#FEFFFF"/>
<path d="M12 5.60864C13.2055 5.60864 14.3399 5.91338 15.3302 6.45002L13.8272 7.95303C13.2612 7.73072 12.6449 7.60864 12 7.60864C9.23858 7.60864 7 9.84722 7 12.6086C7 15.3701 9.23858 17.6086 12 17.6086C14.7614 17.6086 17 15.3701 17 12.6086C17 11.9638 16.8779 11.3474 16.6556 10.7815L18.1586 9.27845C18.6953 10.2688 19 11.4031 19 12.6086C19 16.4746 15.866 19.6086 12 19.6086C8.13401 19.6086 5 16.4746 5 12.6086C5 8.74265 8.13401 5.60864 12 5.60864Z" fill="#FEFFFF"/>
</svg>
