<svg width="28" height="29" viewBox="0 0 28 29" fill="none" xmlns="http://www.w3.org/2000/svg">
<path fill-rule="evenodd" clip-rule="evenodd" d="M8.66699 0.333313C9.40337 0.333313 10.0003 0.930267 10.0003 1.66665V2.99998H18.0003V1.66665C18.0003 0.930267 18.5973 0.333313 19.3337 0.333313C20.07 0.333313 20.667 0.930267 20.667 1.66665V2.99998H22.0003C24.9458 2.99998 27.3337 5.38779 27.3337 8.33331V23C27.3337 25.9455 24.9458 28.3333 22.0003 28.3333H6.00033C3.05481 28.3333 0.666992 25.9455 0.666992 23V8.33331C0.666992 5.38779 3.05481 2.99998 6.00033 2.99998H7.33366V1.66665C7.33366 0.930267 7.93061 0.333313 8.66699 0.333313ZM18.0003 5.66665C18.0003 6.40303 18.5973 6.99998 19.3337 6.99998C20.07 6.99998 20.667 6.40303 20.667 5.66665H22.0003C23.4731 5.66665 24.667 6.86055 24.667 8.33331V8.99998H3.33366V8.33331C3.33366 6.86055 4.52757 5.66665 6.00033 5.66665H7.33366C7.33366 6.40303 7.93061 6.99998 8.66699 6.99998C9.40337 6.99998 10.0003 6.40303 10.0003 5.66665H18.0003ZM24.667 11.6666H3.33366V23C3.33366 24.4727 4.52757 25.6666 6.00033 25.6666H22.0003C23.4731 25.6666 24.667 24.4727 24.667 23V11.6666Z" fill="url(#paint0_linear_1940_1192)"/>
<defs>
<linearGradient id="paint0_linear_1940_1192" x1="14.0003" y1="0.333313" x2="14.0003" y2="28.3333" gradientUnits="userSpaceOnUse">
<stop offset="0.0758594" stop-color="#008080"/>
<stop offset="0.200859" stop-color="#002B2B"/>
<stop offset="0.800859" stop-color="#F9DB6D"/>
<stop offset="0.940859" stop-color="#80BFBF"/>
</linearGradient>
</defs>
</svg>
