<svg width="29" height="30" viewBox="0 0 29 30" fill="none" xmlns="http://www.w3.org/2000/svg">
<path fill-rule="evenodd" clip-rule="evenodd" d="M10.0013 1.66659C10.0013 0.930206 9.40435 0.333252 8.66797 0.333252C7.93159 0.333252 7.33464 0.930206 7.33464 1.66659V2.99992H6.0013C3.05578 2.99992 0.667969 5.38773 0.667969 8.33325V22.9999C0.667969 25.9454 3.05578 28.3333 6.0013 28.3333H18.0013C18.7377 28.3333 19.3346 27.7363 19.3346 26.9999C19.3346 26.2635 18.7377 25.6666 18.0013 25.6666H6.0013C4.52854 25.6666 3.33464 24.4727 3.33464 22.9999V11.6666H24.668V20.3333C24.668 21.0696 25.2649 21.6666 26.0013 21.6666C26.7377 21.6666 27.3346 21.0696 27.3346 20.3333V8.33325C27.3346 5.38773 24.9468 2.99992 22.0013 2.99992H20.668V1.66659C20.668 0.930206 20.071 0.333252 19.3346 0.333252C18.5983 0.333252 18.0013 0.930206 18.0013 1.66659V2.99992H10.0013V1.66659ZM19.3346 6.99992C18.5983 6.99992 18.0013 6.40296 18.0013 5.66658H10.0013C10.0013 6.40296 9.40435 6.99992 8.66797 6.99992C7.93159 6.99992 7.33464 6.40296 7.33464 5.66658H6.0013C4.52854 5.66658 3.33464 6.86049 3.33464 8.33325V8.99992H24.668V8.33325C24.668 6.86049 23.4741 5.66658 22.0013 5.66658H20.668C20.668 6.40296 20.071 6.99992 19.3346 6.99992Z" fill="white"/>
<path d="M28.2628 25.9427C28.7835 25.422 28.7835 24.5778 28.2628 24.0571C27.7421 23.5364 26.8979 23.5364 26.3772 24.0571L23.7922 26.6421L23.4163 26.2662C22.8956 25.7455 22.0514 25.7455 21.5307 26.2662C21.01 26.7869 21.01 27.6311 21.5307 28.1518L22.8494 29.4705C23.3701 29.9912 24.2143 29.9912 24.735 29.4705L28.2628 25.9427Z" fill="white"/>
</svg>
