<svg width="36" height="36" viewBox="0 0 36 36" fill="none" xmlns="http://www.w3.org/2000/svg">
<path d="M15.8786 13.7574C15.2928 13.1716 14.3431 13.1716 13.7573 13.7574C13.1715 14.3431 13.1715 15.2929 13.7573 15.8787L15.8786 18L13.7573 20.1213C13.1715 20.7071 13.1715 21.6569 13.7573 22.2426C14.3431 22.8284 15.2928 22.8284 15.8786 22.2426L17.9999 20.1213L20.1213 22.2426C20.7071 22.8284 21.6568 22.8284 22.2426 22.2426C22.8284 21.6569 22.8284 20.7071 22.2426 20.1213L20.1213 18L22.2426 15.8787C22.8284 15.2929 22.8284 14.3431 22.2426 13.7574C21.6568 13.1716 20.7071 13.1716 20.1213 13.7574L17.9999 15.8787L15.8786 13.7574Z" fill="white"/>
<path fill-rule="evenodd" clip-rule="evenodd" d="M18 3C9.71573 3 3 9.71573 3 18C3 26.2843 9.71573 33 18 33C26.2843 33 33 26.2843 33 18C33 9.71573 26.2843 3 18 3ZM6 18C6 11.3726 11.3726 6 18 6C24.6274 6 30 11.3726 30 18C30 24.6274 24.6274 30 18 30C11.3726 30 6 24.6274 6 18Z" fill="white"/>
</svg>
