<svg width="28" height="28" viewBox="0 0 28 28" fill="none" xmlns="http://www.w3.org/2000/svg">
<path d="M12.1137 10.2288C11.593 9.70815 10.7488 9.70815 10.2281 10.2288C9.70737 10.7495 9.70737 11.5938 10.2281 12.1145L12.1137 14.0001L10.2281 15.8857C9.70737 16.4064 9.70737 17.2506 10.2281 17.7713C10.7488 18.292 11.593 18.292 12.1137 17.7713L13.9993 15.8857L15.8849 17.7713C16.4056 18.292 17.2498 18.292 17.7705 17.7713C18.2912 17.2506 18.2912 16.4064 17.7705 15.8857L15.8849 14.0001L17.7705 12.1145C18.2912 11.5938 18.2912 10.7495 17.7705 10.2288C17.2498 9.70815 16.4056 9.70815 15.8849 10.2288L13.9993 12.1145L12.1137 10.2288Z" fill="#3C3C3C"/>
<path fill-rule="evenodd" clip-rule="evenodd" d="M13.9993 0.666748C6.63555 0.666748 0.666016 6.63629 0.666016 14.0001C0.666016 21.3639 6.63555 27.3334 13.9993 27.3334C21.3631 27.3334 27.3327 21.3639 27.3327 14.0001C27.3327 6.63629 21.3631 0.666748 13.9993 0.666748ZM3.33268 14.0001C3.33268 8.10904 8.10831 3.33341 13.9993 3.33341C19.8904 3.33341 24.666 8.10904 24.666 14.0001C24.666 19.8911 19.8904 24.6667 13.9993 24.6667C8.10831 24.6667 3.33268 19.8911 3.33268 14.0001Z" fill="#3C3C3C"/>
</svg>
