<svg width="8" height="8" viewBox="0 0 8 8" fill="none" xmlns="http://www.w3.org/2000/svg">
<path d="M1.52543 0.818078C1.33017 0.622815 1.01358 0.622815 0.818322 0.818078C0.623059 1.01334 0.623059 1.32992 0.818322 1.52518L3.2932 4.00006L0.818322 6.47493C0.623059 6.67019 0.623059 6.98678 0.818322 7.18204C1.01358 7.3773 1.33017 7.3773 1.52543 7.18204L4.0003 4.70717L6.47518 7.18204C6.67044 7.3773 6.98702 7.3773 7.18228 7.18204C7.37755 6.98678 7.37755 6.67019 7.18228 6.47493L4.70741 4.00006L7.18228 1.52518C7.37755 1.32992 7.37755 1.01334 7.18228 0.818078C6.98702 0.622815 6.67044 0.622816 6.47518 0.818078L4.0003 3.29295L1.52543 0.818078Z" fill="#008080" fill-opacity="0.8"/>
</svg>
