<svg width="24" height="24" viewBox="0 0 24 24" fill="none" xmlns="http://www.w3.org/2000/svg">
<path d="M3.75143 1.39355C3.10055 0.742677 2.04528 0.742677 1.39441 1.39355C0.743532 2.04442 0.743531 3.0997 1.39441 3.75057L9.64398 12.0002L1.39441 20.2497C0.743531 20.9006 0.743532 21.9559 1.39441 22.6068C2.04528 23.2576 3.10055 23.2576 3.75143 22.6068L12.001 14.3572L20.2506 22.6068C20.9015 23.2576 21.9567 23.2576 22.6076 22.6068C23.2585 21.9559 23.2585 20.9006 22.6076 20.2497L14.358 12.0002L22.6076 3.75057C23.2585 3.0997 23.2585 2.04443 22.6076 1.39355C21.9567 0.742677 20.9015 0.742678 20.2506 1.39355L12.001 9.64313L3.75143 1.39355Z" fill="#3C3C3C"/>
</svg>
