<svg width="16" height="16" viewBox="0 0 16 16" fill="none" xmlns="http://www.w3.org/2000/svg">
<path d="M6.8686 5.73726C6.55618 5.42484 6.04965 5.42484 5.73723 5.73726C5.42481 6.04968 5.42481 6.55621 5.73723 6.86863L6.8686 8L5.73723 9.13137C5.42481 9.44379 5.42481 9.95032 5.73723 10.2627C6.04965 10.5752 6.55618 10.5752 6.8686 10.2627L7.99997 9.13137L9.13134 10.2627C9.44376 10.5752 9.95029 10.5752 10.2627 10.2627C10.5751 9.95032 10.5751 9.44379 10.2627 9.13137L9.13134 8L10.2627 6.86863C10.5751 6.55621 10.5751 6.04968 10.2627 5.73726C9.95029 5.42484 9.44376 5.42484 9.13134 5.73726L7.99997 6.86863L6.8686 5.73726Z" fill="#008080"/>
<path fill-rule="evenodd" clip-rule="evenodd" d="M8 0C3.58172 0 0 3.58172 0 8C0 12.4183 3.58172 16 8 16C12.4183 16 16 12.4183 16 8C16 3.58172 12.4183 0 8 0ZM1.6 8C1.6 4.46538 4.46538 1.6 8 1.6C11.5346 1.6 14.4 4.46538 14.4 8C14.4 11.5346 11.5346 14.4 8 14.4C4.46538 14.4 1.6 11.5346 1.6 8Z" fill="#008080"/>
</svg>
