<svg width="31" height="29" viewBox="0 0 31 29" fill="none" xmlns="http://www.w3.org/2000/svg">
<path fill-rule="evenodd" clip-rule="evenodd" d="M1.01362 21.9628L11.5322 2.34093C13.2054 -0.780307 17.7946 -0.780312 19.4678 2.34092L29.9864 21.9628C31.5409 24.8627 29.3793 28.3333 26.0186 28.3333H4.9814C1.62071 28.3333 -0.540927 24.8627 1.01362 21.9628ZM15.5 5C16.4205 5 17.1667 5.74619 17.1667 6.66667V18.3333C17.1667 19.2538 16.4205 20 15.5 20C14.5795 20 13.8333 19.2538 13.8333 18.3333V6.66667C13.8333 5.74619 14.5795 5 15.5 5ZM13.4167 22.9167C13.4167 24.0673 14.3494 25 15.5 25C16.6506 25 17.5833 24.0673 17.5833 22.9167C17.5833 21.7661 16.6506 20.8333 15.5 20.8333C14.3494 20.8333 13.4167 21.7661 13.4167 22.9167Z" fill="#CB1A14"/>
</svg>
