<svg width="28" height="28" viewBox="0 0 28 28" fill="none" xmlns="http://www.w3.org/2000/svg">
<path d="M6.0013 11.3332C6.0013 10.5968 6.59826 9.99984 7.33464 9.99984H14.0013C14.7377 9.99984 15.3346 10.5968 15.3346 11.3332C15.3346 12.0696 14.7377 12.6665 14.0013 12.6665H7.33464C6.59826 12.6665 6.0013 12.0696 6.0013 11.3332Z" fill="#3C3C3C"/>
<path d="M7.33464 15.3332C6.59826 15.3332 6.0013 15.9301 6.0013 16.6665C6.0013 17.4029 6.59826 17.9998 7.33464 17.9998H19.3346C20.071 17.9998 20.668 17.4029 20.668 16.6665C20.668 15.9301 20.071 15.3332 19.3346 15.3332H7.33464Z" fill="#3C3C3C"/>
<path fill-rule="evenodd" clip-rule="evenodd" d="M0.667969 13.9998C0.667969 6.63604 6.63751 0.666504 14.0013 0.666504C21.3651 0.666504 27.3346 6.63604 27.3346 13.9998C27.3346 21.3636 21.3651 27.3332 14.0013 27.3332C12.8915 27.3332 11.8117 27.1973 10.7782 26.9407L3.38633 26.0167C1.78863 25.817 0.678274 24.3277 0.942979 22.7394L1.40016 19.9963C1.40281 19.9804 1.40314 19.9642 1.40114 19.9482L1.06048 17.2229C0.803839 16.1895 0.667969 15.1096 0.667969 13.9998ZM14.0013 3.33317C8.11027 3.33317 3.33464 8.1088 3.33464 13.9998C3.33464 14.9152 3.44964 15.8019 3.66531 16.6468L3.68604 16.7281L4.04722 19.6175C4.08119 19.8893 4.07558 20.1645 4.03055 20.4347L3.57336 23.1778C3.55779 23.2712 3.62311 23.3589 3.71709 23.3706L11.2731 24.3151L11.3543 24.3358C12.1993 24.5515 13.0859 24.6665 14.0013 24.6665C19.8923 24.6665 24.668 19.8909 24.668 13.9998C24.668 8.1088 19.8923 3.33317 14.0013 3.33317Z" fill="#3C3C3C"/>
</svg>
