<svg width="48" height="60" viewBox="0 0 48 60" fill="none" xmlns="http://www.w3.org/2000/svg">
<path fill-rule="evenodd" clip-rule="evenodd" d="M10.6667 6.00008C7.72115 6.00008 5.33333 8.3879 5.33333 11.3334V48.6667C5.33333 51.6123 7.72115 54.0001 10.6667 54.0001H16C17.4728 54.0001 18.6667 55.194 18.6667 56.6667C18.6667 58.1395 17.4728 59.3334 16 59.3334H10.6667C4.77563 59.3334 0 54.5578 0 48.6667V11.3334C0 5.44238 4.77563 0.666748 10.6667 0.666748H28.253C31.4187 0.666748 34.4208 2.07286 36.4474 4.50478L45.5277 15.4012C47.1252 17.3181 48 19.7345 48 22.2298V48.6667C48 54.5578 43.2244 59.3334 37.3333 59.3334H32C30.5272 59.3334 29.3333 58.1395 29.3333 56.6667C29.3333 55.194 30.5272 54.0001 32 54.0001H37.3333C40.2789 54.0001 42.6667 51.6123 42.6667 48.6667V24.6667H37.3333C31.4423 24.6667 26.6667 19.8911 26.6667 14.0001V6.00008H10.6667ZM41.4305 18.8155C41.5685 18.981 41.6957 19.154 41.8117 19.3334H37.3333C34.3878 19.3334 32 16.9456 32 14.0001V7.53806C32.1222 7.65874 32.2391 7.78584 32.3502 7.9191L41.4305 18.8155Z" fill="#80BFBF"/>
<path d="M25.7716 36.007C24.7613 35.1089 23.2387 35.1089 22.2284 36.007L18.2284 39.5625C17.1276 40.541 17.0285 42.2265 18.0069 43.3273C18.8629 44.2902 20.26 44.4867 21.3333 43.8657V56.6667C21.3333 58.1395 22.5272 59.3334 24 59.3334C25.4728 59.3334 26.6667 58.1395 26.6667 56.6667V43.8657C27.74 44.4867 29.1371 44.2902 29.9931 43.3273C30.9715 42.2265 30.8724 40.541 29.7716 39.5625L25.7716 36.007Z" fill="#80BFBF"/>
</svg>
