<svg width="21" height="20" viewBox="0 0 21 20" fill="none" xmlns="http://www.w3.org/2000/svg">
<path fill-rule="evenodd" clip-rule="evenodd" d="M3.78098 0C1.96895 0 0.5 1.46895 0.5 3.28098C0.5 3.95415 0.707062 4.61103 1.0931 5.1625L7.13846 13.7987C7.37378 14.1349 7.5 14.5353 7.5 14.9457V17.1568C7.5 19.2065 9.65696 20.5396 11.4902 19.6229C12.7219 19.0071 13.5 17.7481 13.5 16.371V14.9457C13.5 14.5353 13.6262 14.1349 13.8615 13.7987L19.9069 5.1625C20.2929 4.61102 20.5 3.95415 20.5 3.28098C20.5 1.46895 19.0311 0 17.219 0H3.78098ZM11.5 16.371C11.5 16.9906 11.1499 17.557 10.5958 17.8341C10.0923 18.0858 9.5 17.7197 9.5 17.1568V14.9457C9.5 14.125 9.24756 13.3242 8.77693 12.6518L2.73156 4.01558C2.58084 3.80027 2.5 3.5438 2.5 3.28098C2.5 2.57352 3.07352 2 3.78098 2H17.219C17.9265 2 18.5 2.57352 18.5 3.28098C18.5 3.54381 18.4192 3.80027 18.2684 4.01558L12.2231 12.6518C11.7524 13.3242 11.5 14.125 11.5 14.9457V16.371Z" fill="#3C3C3C"/>
</svg>
