<svg width="16" height="17" viewBox="0 0 16 17" fill="none" xmlns="http://www.w3.org/2000/svg">
<path d="M4.16667 3.46517C3.70667 3.46517 3.33333 3.8385 3.33333 4.2985V11.9652C3.33333 12.4252 3.70667 12.7985 4.16667 12.7985H11.8333C12.2933 12.7985 12.6667 12.4252 12.6667 11.9652V9.46517C12.6667 9.28836 12.7369 9.11879 12.8619 8.99376C12.987 8.86874 13.1565 8.7985 13.3333 8.7985C13.5101 8.7985 13.6797 8.86874 13.8047 8.99376C13.9298 9.11879 14 9.28836 14 9.46517V11.9652C14 12.5398 13.7717 13.0909 13.3654 13.4972C12.9591 13.9036 12.408 14.1318 11.8333 14.1318H4.16667C3.59203 14.1318 3.04093 13.9036 2.6346 13.4972C2.22827 13.0909 2 12.5398 2 11.9652V4.2985C2 3.72387 2.22827 3.17277 2.6346 2.76644C3.04093 2.36011 3.59203 2.13184 4.16667 2.13184H6.66667C6.84348 2.13184 7.01305 2.20207 7.13807 2.3271C7.2631 2.45212 7.33333 2.62169 7.33333 2.7985C7.33333 2.97531 7.2631 3.14488 7.13807 3.26991C7.01305 3.39493 6.84348 3.46517 6.66667 3.46517H4.16667ZM9.33333 3.46517C9.15652 3.46517 8.98695 3.39493 8.86193 3.26991C8.73691 3.14488 8.66667 2.97531 8.66667 2.7985C8.66667 2.62169 8.73691 2.45212 8.86193 2.3271C8.98695 2.20207 9.15652 2.13184 9.33333 2.13184H13.3333C13.5101 2.13184 13.6797 2.20207 13.8047 2.3271C13.9298 2.45212 14 2.62169 14 2.7985V6.7985C14 6.97531 13.9298 7.14488 13.8047 7.26991C13.6797 7.39493 13.5101 7.46517 13.3333 7.46517C13.1565 7.46517 12.987 7.39493 12.8619 7.26991C12.7369 7.14488 12.6667 6.97531 12.6667 6.7985V4.40784L9.80467 7.26984C9.67893 7.39127 9.51053 7.45847 9.33573 7.45695C9.16093 7.45543 8.99373 7.38532 8.87012 7.26171C8.74652 7.13811 8.6764 6.9709 8.67488 6.7961C8.67337 6.62131 8.74056 6.4529 8.862 6.32717L11.724 3.46517H9.33333Z" fill="#008080"/>
</svg>
