<svg width="18" height="18" viewBox="0 0 18 18" fill="none" xmlns="http://www.w3.org/2000/svg">
<path d="M13.121 8.69549C13.5453 8.34192 13.6026 7.71136 13.2491 7.28708C12.8955 6.86281 12.2649 6.80548 11.8407 7.15905L13.121 8.69549ZM9.16625 10.6894L8.52606 11.4576C8.89691 11.7667 9.43559 11.7667 9.80643 11.4576L9.16625 10.6894ZM6.49185 7.15905C6.06757 6.80548 5.43701 6.86281 5.08344 7.28708C4.72988 7.71136 4.7872 8.34192 5.21148 8.69549L6.49185 7.15905ZM11.8407 7.15905L8.52606 9.9212L9.80643 11.4576L13.121 8.69549L11.8407 7.15905ZM9.80643 9.9212L6.49185 7.15905L5.21148 8.69549L8.52606 11.4576L9.80643 9.9212ZM15.5 8.86523C15.5 12.4551 12.5899 15.3652 9 15.3652V17.3652C13.6944 17.3652 17.5 13.5597 17.5 8.86523H15.5ZM9 15.3652C5.41015 15.3652 2.5 12.4551 2.5 8.86523H0.5C0.5 13.5597 4.30558 17.3652 9 17.3652V15.3652ZM2.5 8.86523C2.5 5.27538 5.41015 2.36523 9 2.36523V0.365234C4.30558 0.365234 0.5 4.17081 0.5 8.86523H2.5ZM9 2.36523C12.5899 2.36523 15.5 5.27538 15.5 8.86523H17.5C17.5 4.17081 13.6944 0.365234 9 0.365234V2.36523Z" fill="#008080"/>
</svg>
