<svg width="18" height="20" viewBox="0 0 18 20" fill="none" xmlns="http://www.w3.org/2000/svg">
<path d="M9.83332 12.5C9.83332 12.0398 9.46023 11.6667 8.99999 11.6667C8.53975 11.6667 8.16666 12.0398 8.16666 12.5V14.1667C8.16666 14.6269 8.53975 15 8.99999 15C9.46023 15 9.83332 14.6269 9.83332 14.1667V12.5Z" fill="#98A2B3"/>
<path fill-rule="evenodd" clip-rule="evenodd" d="M5.66666 5.62504C5.66666 3.89915 7.06577 2.50004 8.79166 2.50004C10.5175 2.50004 11.9167 3.89915 11.9167 5.62504V6.25004C11.9167 6.71028 12.2898 7.08337 12.75 7.08337C13.2102 7.08337 13.5833 6.71028 13.5833 6.25004V5.62504C13.5833 2.97868 11.438 0.833374 8.79166 0.833374C6.14529 0.833374 3.99999 2.97868 3.99999 5.62504V7.50004C2.15904 7.50004 0.666656 8.99242 0.666656 10.8334V15.8334C0.666656 17.6743 2.15904 19.1667 3.99999 19.1667H14C15.8409 19.1667 17.3333 17.6743 17.3333 15.8334V10.8334C17.3333 8.99242 15.8409 7.50004 14 7.50004H5.66666V5.62504ZM2.33332 10.8334C2.33332 9.9129 3.07952 9.16671 3.99999 9.16671H14C14.9205 9.16671 15.6667 9.9129 15.6667 10.8334V15.8334C15.6667 16.7538 14.9205 17.5 14 17.5H3.99999C3.07952 17.5 2.33332 16.7538 2.33332 15.8334V10.8334Z" fill="#98A2B3"/>
</svg>
