<svg xmlns="http://www.w3.org/2000/svg" version="1.1" xmlns:xlink="http://www.w3.org/1999/xlink" width="1500" height="126" viewBox="0 0 1500 126"><svg xml:space="preserve" width="1500" height="126" data-version="2" data-id="lg_7mnhTwDHo6fYP4WJ2I" viewBox="0 0 459 126" x="0" y="0"><rect width="100%" height="100%" fill="transparent"></rect><path fill="teal" d="M95.831 103.418q-.77-.08-1.79-.16-.85-.08-2.1-.12-1.26-.04-2.84-.04-3.04 0-7.28.28-4.23.28-9.3 1.09.89-1.82 1.54-4.62.65-2.79 1.08-5.97.42-3.19.67-6.47.24-3.28.36-6.12.12-2.83.14-4.9.02-2.07.02-2.84 0-.16-.02-1.25-.02-1.1-.06-2.84-.04-1.74-.12-3.99-.08-2.25-.22-4.68-.15-2.44-.37-4.91t-.52-4.66q-.31-2.19-.69-3.95-.39-1.76-.92-2.78 3.94.69 7.42.96 3.49.26 6.36.26 1.99 0 3.61-.08 1.62-.08 2.76-.2 1.33-.13 2.35-.29-1.83 5.07-2.58 9.67t-.75 8.08q0 4.46 1.18 6.55 1.17 2.09 3.24 2.09 2.55 0 3.61-2.62 1.05-2.61 1.05-7.23 0-2.52-.24-5.07-.24-2.55-.71-4.9-.47-2.35-1.09-4.42-.63-2.07-1.36-3.65 4.05.77 7.58 1.02 3.52.24 6.28.24 1.86 0 3.32-.08 1.46-.08 2.51-.16 1.22-.13 2.11-.25-.44 2.27-.83 5.15-.38 2.88-.67 6.18-.28 3.3-.42 6.99-.15 3.69-.15 7.58 0 4.42.21 8.98.2 4.56.67 9.01.46 4.46 1.17 8.7.71 4.23 1.68 8-.77-.08-1.78-.16-.85-.08-2.11-.12-1.25-.04-2.83-.04-3.04 0-7.28.28-4.23.28-9.3 1.09.57-1.13 1.09-2.91.53-1.79.94-3.85.4-2.07.64-4.28.25-2.21.25-4.19 0-3.81-1.08-5.78-1.07-1.96-3.02-1.96-1.7 0-2.75 1.58-1.06 1.58-1.06 4.98 0 1.58.21 3.32.2 1.75.52 3.53.33 1.78.77 3.55.45 1.76.9 3.38m70.8.81q-.77-.08-1.79-.16-.85-.08-2.04-.12-1.2-.04-2.62-.04-2.02 0-4.43.16-2.42.16-4.97.61l.16-11.39q-1.54 6.04-4.52 9.32-2.97 3.28-6.99 3.28-1.25 0-2.83-.32-1.58-.33-3.23-1.24-1.64-.91-3.2-2.53-1.56-1.62-2.77-4.2-1.22-2.57-1.95-6.24-.73-3.66-.73-8.69 0-6.81 1.38-11.65 1.38-4.84 3.53-7.92 2.14-3.08 4.74-4.5 2.59-1.42 5.06-1.42 2.11 0 3.83.59 1.73.58 3.06 1.5 1.34.91 2.31 2.04.98 1.14 1.58 2.27-.12-1.38-.36-2.94t-.57-3.22q2.64.53 5.35.69 2.72.16 5.03.16 2.75 0 4.45-.12.98-.04 1.79-.12-.45 2.03-.81 4.54-.37 2.51-.63 5.37-.26 2.86-.41 6-.14 3.14-.14 6.42 0 6.12.61 12.28.61 6.16 2.11 11.59m-16.66-23.22v-6.57q0-1.09-.12-2.23-.12-1.13-.55-2.06-.42-.93-1.23-1.52t-2.19-.59q-1.46 0-2.41 1.01-.96 1.02-1.54 2.78-.59 1.76-.81 4.17-.23 2.42-.23 5.25 0 1.62.23 3.28.22 1.67.75 3.02.52 1.36 1.41 2.21.9.85 2.19.85 1.46 0 2.35-1.01.89-1.01 1.36-2.51.47-1.5.63-3.14.16-1.64.16-2.94m62.21 23.46q-1.26-.2-2.76-.26-1.5-.06-3.12-.06-1.94 0-3.95.1-2 .1-3.91.26-1.9.17-3.61.37-1.7.2-2.95.36 1.74-5.87 2.69-12.56t.95-14.83q0-.61-.02-1.62-.02-1.02-.1-2.19-.08-1.18-.26-2.37-.18-1.2-.53-2.17-.34-.97-.87-1.58-.53-.61-1.3-.61-1.13 0-2.21.81-1.07.81-1.9 2.15-.83 1.34-1.34 3.08-.5 1.74-.5 3.61 0 3.36.16 6.83.16 3.46.52 6.86.37 3.41.94 6.67.56 3.26 1.42 6.18-.69-.04-1.63-.12-.81-.04-1.9-.08-1.09-.04-2.51-.04-2.64 0-6.08.22-3.45.22-7.46.83.49-2.27.85-5.55.37-3.28.61-7.13t.38-8.05q.15-4.19.15-8.29 0-3.03-.08-5.95-.09-2.92-.23-5.51-.14-2.6-.38-4.79-.25-2.19-.57-3.77 3.28.57 6.08.79 2.8.23 5.07.23 1.45 0 2.61-.06 1.15-.06 1.96-.15.98-.12 1.71-.24-.25 1.26-.47 2.68-.22 1.41-.42 3.08 1.33-1.71 2.83-2.98 1.5-1.28 3.02-2.13 1.52-.85 3.02-1.28 1.5-.42 2.84-.42 2.92 0 5.04 1.19 2.13 1.2 3.53 3.75 1.4 2.56 2.09 6.53t.69 9.52q0 3.81.02 7.74t.18 7.7q.16 3.77.57 7.15.4 3.39 1.13 6.1m44.74-.24q-.93-.08-2.11-.16-1.01-.08-2.37-.12-1.35-.04-2.97-.04-2.31 0-4.91.16-2.59.16-5.15.61.25-.49.53-2.03.28-1.54.55-3.4.26-1.87.48-3.69.23-1.83.35-2.84-.65 3.04-1.8 5.53-1.16 2.5-2.7 4.26-1.54 1.76-3.44 2.73-1.91.98-4.02.98-.97 0-2.39-.12-1.42-.13-3.02-.82-1.6-.68-3.2-2.12t-2.88-4.06q-1.27-2.61-2.06-6.62t-.79-9.81q0-4.86.71-8.69.71-3.83 1.9-6.75 1.2-2.92 2.8-4.96 1.6-2.05 3.36-3.35 1.76-1.3 3.61-1.88 1.84-.59 3.54-.59 1.91 0 3.45.63 1.54.63 2.8 1.62 1.25.99 2.18 2.27.94 1.27 1.62 2.53-.08-1.86-.16-4.05-.08-2.19-.2-4.42-.12-2.23-.3-4.4-.19-2.16-.41-4.03-.22-1.86-.51-3.28-.28-1.42-.64-2.15 3.24.57 6.03.77 2.8.2 5.07.2 1.46 0 2.63-.06 1.18-.06 1.99-.14.97-.08 1.7-.2-.44 2.02-.81 5.29-.36 3.26-.63 7.35-.26 4.1-.4 8.78t-.14 9.54q0 4.5.14 8.96.14 4.46.46 8.57.33 4.11.86 7.7.52 3.59 1.25 6.3m-16.65-23.22v-6.57q0-1.09-.13-2.23-.12-1.13-.54-2.06-.43-.93-1.24-1.52t-2.19-.59q-.97 0-1.66.77t-1.13 1.99q-.45 1.21-.73 2.71-.29 1.5-.41 2.98t-.16 2.76q-.04 1.27-.04 2 0 1.1.1 2.7t.47 3.08q.36 1.48 1.11 2.53.75 1.05 2.05 1.05 1.46 0 2.35-1.01.89-1.01 1.36-2.51.46-1.5.62-3.14.17-1.64.17-2.94m59.89-23.91q-.44 1.7-.74 4.09-.31 2.39-.55 5.15-.25 2.75-.39 5.75t-.26 5.84q-.24 6.69-.28 14.1 0 4.14-.51 8.15-.51 4.01-1.62 7.6-1.12 3.58-2.88 6.64-1.76 3.06-4.3 5.27-2.53 2.21-5.87 3.47-3.35 1.25-7.56 1.25-3.93 0-6.81-.81-2.88-.81-4.76-2.29-1.89-1.48-2.8-3.54-.91-2.07-.91-4.54t.85-4.48q.85-2.01 2.23-3.38 1.38-1.38 3.12-2.13 1.74-.75 3.53-.75 2.27 0 4.29 1.3 2.03 1.29 3.08 4.09-.24-.2-.54-.26-.31-.07-.63-.07-.45 0-.91.21-.47.2-.83.56-.37.37-.59.84-.22.46-.22.99 0 .61.24 1.03.24.43.59.67.34.24.77.34.42.11.79.11.56 0 1.41-.25.86-.24 1.77-1.01t1.82-2.15q.91-1.38 1.62-3.67.71-2.29 1.14-5.57.42-3.28.38-7.86-1.05 2.84-2.21 4.6-1.15 1.76-2.43 2.73-1.27.98-2.67 1.3-1.4.33-2.98.33-1.99 0-4.16-.71-2.16-.71-3.97-2.52-1.8-1.8-2.98-4.92-1.17-3.12-1.17-7.94 0-.65.02-.92.02-.26.02-.4t.04-.35q.04-.2.04-.79 0-.58.02-1.68.02-1.09.02-3.08 0-2.31-.08-5.23-.08-2.91-.34-5.71-.27-2.8-.75-5.09-.49-2.29-1.26-3.38 3.28.57 6.18.77 2.9.2 5.29.2 1.58 0 2.86-.06 1.27-.06 2.2-.14 1.06-.08 1.91-.2-.33.69-.71 2.63-.39 1.95-.75 4.66-.36 2.72-.61 5.94-.24 3.22-.24 6.5 0 2.48.36 4.22.37 1.74 1 2.86.62 1.11 1.46 1.64.83.52 1.8.52 1.54 0 2.45-1.25.91-1.26 1.56-3.16-.08-2.52-.28-5.88-.21-3.36-.55-7.01-.34-3.65-.89-7.36-.55-3.7-1.36-6.91 1.26.45 3 .81 1.5.33 3.65.55 2.15.22 5.06.22 3.45 0 7.78-.48m63.67 47.37q-1.25-.2-2.65-.26t-2.9-.06q-1.82 0-3.65.1-1.82.1-3.56.26-1.75.17-3.33.37l-2.83.36q.52-2.06.95-5.08.42-3.02.71-6.63.28-3.61.42-7.6.15-3.99.15-8.08 0-.61-.02-1.62-.02-1.02-.11-2.19-.08-1.18-.26-2.37-.18-1.2-.53-2.17-.34-.97-.85-1.58-.5-.61-1.27-.61-.81 0-1.58 1.01-.77 1.02-1.5 2.72.12 2.27.2 5.37.08 3.1.12 6.46.04 3.37.06 6.65.02 3.28.06 5.88.04 2.59.08 4.19.04 1.6.12 1.6-1.82-.28-3.34-.44-1.52-.17-3.06-.17-2.02 0-4.38.33-2.35.32-5.63 1.01.53-3.85.97-7.94.37-3.53.69-7.78.33-4.26.33-8.35 0-.61-.02-1.62-.02-1.02-.1-2.19-.09-1.18-.27-2.37-.18-1.2-.52-2.17-.35-.97-.88-1.58-.52-.61-1.29-.61-1.3 0-2.13.75-.83.75-1.32 2.01-.48 1.25-.67 2.89-.18 1.65-.18 3.47 0 3.44.16 6.97.17 3.53.53 6.99.36 3.47.93 6.79.57 3.32 1.42 6.32-.69-.04-1.62-.12-.81-.04-1.91-.08-1.09-.04-2.51-.04-2.63 0-6.08.22-3.44.22-7.45.83.48-2.27.85-5.55.36-3.28.6-7.13.25-3.85.39-8.05.14-4.19.14-8.29 0-3.03-.08-5.95-.08-2.92-.22-5.51-.14-2.6-.39-4.79-.24-2.19-.56-3.77 3.28.57 6.07.79 2.8.23 5.07.23 1.46 0 2.61-.06 1.16-.06 1.97-.15.97-.12 1.7-.24-.24 1.06-.42 2.25-.19 1.2-.39 2.57 2.27-2.91 4.86-4.39 2.6-1.48 5.11-1.48 3.49 0 5.7 1.72 2.2 1.72 3.34 5.49 2.39-3.65 5.25-5.43 2.85-1.78 5.61-1.78 2.92 0 5.21 1.19 2.29 1.2 3.83 3.75 1.54 2.56 2.35 6.53t.81 9.52q0 3.81.02 7.94.02 4.14.12 8.01.1 3.87.33 7.21.22 3.35.62 5.53m45.31-.24q-.77-.08-1.78-.16-.85-.08-2.05-.12-1.19-.04-2.61-.04-2.03 0-4.44.16-2.41.16-4.96.61l.16-11.39q-1.54 6.04-4.52 9.32-2.98 3.28-6.99 3.28-1.26 0-2.84-.32-1.58-.33-3.22-1.24-1.64-.91-3.2-2.53-1.56-1.62-2.78-4.2-1.21-2.57-1.94-6.24-.73-3.66-.73-8.69 0-6.81 1.38-11.65 1.37-4.84 3.52-7.92t4.74-4.5q2.6-1.42 5.07-1.42 2.11 0 3.83.59 1.72.58 3.06 1.5 1.34.91 2.31 2.04.97 1.14 1.58 2.27-.12-1.38-.37-2.94-.24-1.56-.56-3.22 2.63.53 5.35.69 2.71.16 5.02.16 2.76 0 4.46-.12.97-.04 1.78-.12-.44 2.03-.81 4.54-.36 2.51-.63 5.37-.26 2.86-.4 6t-.14 6.42q0 6.12.61 12.28.6 6.16 2.1 11.59m-16.65-23.22v-6.57q0-1.09-.13-2.23-.12-1.13-.54-2.06-.43-.93-1.24-1.52t-2.19-.59q-1.46 0-2.41 1.01-.95 1.02-1.54 2.78-.59 1.76-.81 4.17-.22 2.42-.22 5.25 0 1.62.22 3.28.22 1.67.75 3.02.53 1.36 1.42 2.21.89.85 2.19.85 1.46 0 2.35-1.01.89-1.01 1.36-2.51.46-1.5.62-3.14.17-1.64.17-2.94m62.21 23.46q-1.26-.2-2.76-.26-1.5-.06-3.12-.06-1.95 0-3.95.1-2.01.1-3.91.26-1.91.17-3.61.37-1.7.2-2.96.36 1.74-5.87 2.7-12.56.95-6.69.95-14.83 0-.61-.02-1.62-.02-1.02-.1-2.19-.08-1.18-.27-2.37-.18-1.2-.52-2.17-.35-.97-.87-1.58-.53-.61-1.3-.61-1.14 0-2.21.81t-1.9 2.15q-.84 1.34-1.34 3.08-.51 1.74-.51 3.61 0 3.36.16 6.83.17 3.46.53 6.86.36 3.41.93 6.67.57 3.26 1.42 6.18-.69-.04-1.62-.12-.81-.04-1.91-.08-1.09-.04-2.51-.04-2.63 0-6.08.22-3.44.22-7.45.83.48-2.27.85-5.55.36-3.28.61-7.13.24-3.85.38-8.05.14-4.19.14-8.29 0-3.03-.08-5.95-.08-2.92-.22-5.51-.14-2.6-.39-4.79-.24-2.19-.56-3.77 3.28.57 6.07.79 2.8.23 5.07.23 1.46 0 2.61-.06 1.16-.06 1.97-.15.97-.12 1.7-.24-.24 1.26-.46 2.68-.23 1.41-.43 3.08 1.34-1.71 2.84-2.98 1.5-1.28 3.02-2.13 1.52-.85 3.02-1.28 1.5-.42 2.83-.42 2.92 0 5.05 1.19 2.13 1.2 3.52 3.75 1.4 2.56 2.09 6.53t.69 9.52q0 3.81.02 7.74t.18 7.7q.17 3.77.57 7.15.41 3.39 1.14 6.1"></path><path fill="teal" d="M73.899 68.45a135.64 135.64 0 0 1 9.631 1.472c-10.217-5.627-9.972-25.802-9.972-25.802q.191-4.114-.027-7.643h-4.046v.804a38.144 38.144 0 0 1-3.8 16.974c-3.638 7.275-9.51 11.988-16.144 12.002-6.634.014-12.506-4.727-16.13-11.988a38.144 38.144 0 0 1-3.814-16.988v-.817H25.55q-.218 3.542-.027 7.656s.272 20.162-9.972 25.788c0 0 4.495-.872 9.631-1.444A29.834 29.834 0 0 0 4.3 96.936c0 10 4.904 12.86 12.465 13.569a7.724 7.724 0 0 1 7.765-7.575h33.404a15.369 15.369 0 0 1 13.214-7.56 15.258 15.258 0 0 1 10.394 4.073l.79.722v6.92h-9.944l-2.085 2.098v1.417c13.923.327 24.481.994 24.481-13.664 0-13.35-8.773-24.658-20.884-28.472m-17.44 7.833-6.92 11.226-6.907-11.226c-6.103-1.376-10.517-4.536-11.143-8.283 3.923-.109 7.26.286 8.146 1.758l-2.63-5.545c3.597 3.488 7.902 5.531 12.548 5.531 4.631 0 8.95-2.043 12.546-5.53l-2.656 5.53c.899-1.471 4.237-1.866 8.174-1.77-.64 3.76-5.054 6.92-11.158 8.31M25.32 33.016h48.444a3.42 3.42 0 0 0 0-6.839h-.927A23.295 23.295 0 0 0 60.058 5.403l-.681 3.855-1.254 7.084a1.771 1.771 0 0 1-2.07 1.444l-.123-.027a1.771 1.771 0 0 1-1.321-2.043l.027-.123 1.349-7.656.817-4.714a4.632 4.632 0 0 0-3.937-2.206h-6.62a4.676 4.676 0 0 0-3.965 2.206l.83 4.728 1.363 7.656v.122a1.771 1.771 0 0 1-1.308 2.03l-.136.041-.3.027a1.806 1.806 0 0 1-1.77-1.485l-1.24-7.084-.681-3.855a23.295 23.295 0 0 0-12.779 20.775h-.926a3.42 3.42 0 0 0 0 6.839"></path><path fill="teal" d="m67.864 108.189 3.528-3.542h8.501v-3.406a12.806 12.806 0 0 0-8.732-3.433h-.028a12.942 12.942 0 0 0-11.729 7.56H24.53a5.354 5.354 0 0 0 0 10.695h34.875a12.901 12.901 0 0 0 20.489 4.141v-3.42h-8.5l-3.543-3.541zm-43.321 5.108a2.588 2.588 0 1 1 0-5.176 2.588 2.588 0 0 1 0 5.176"></path></svg></svg>