<svg width="21" height="22" viewBox="0 0 21 22" fill="none" xmlns="http://www.w3.org/2000/svg">
<path d="M1.72915 4.5319L16.9297 19.3718M1.72915 4.5319C2.2947 3.88624 3.13942 3.47635 4.08316 3.47635H9.22177M1.72915 4.5319C1.27429 5.0512 1 5.723 1 6.45674V17.3848C1 19.0309 2.38038 20.3652 4.08316 20.3652H15.3881C17.0909 20.3652 18.4713 19.0309 18.4713 17.3848V12.9143M9.22177 12.9143L2.54158 19.3718M16.5057 4.74301V4.67951M20 4.66958C20 6.87248 16.5057 9.80968 16.5057 9.80968C16.5057 9.80968 13.0115 6.87248 13.0115 4.66958C13.0115 2.84464 14.5759 1.36523 16.5057 1.36523C18.4356 1.36523 20 2.84464 20 4.66958Z" stroke="white" stroke-width="2" stroke-linecap="round" stroke-linejoin="round"/>
</svg>
