<svg width="121" height="126" viewBox="0 0 121 126" fill="none" xmlns="http://www.w3.org/2000/svg">
<rect width="121" height="126" fill="#1E1E1E"/>
<g filter="url(#filter0_d_0_1)">
<rect x="-201" y="-36" width="523" height="462" rx="16" fill="white" shape-rendering="crispEdges"/>
<path fill-rule="evenodd" clip-rule="evenodd" d="M71.7852 5.17303C65.4899 -0.917052 55.499 -0.917052 49.2037 5.17303C45.6038 8.65561 40.5982 10.282 35.6388 9.58055C26.9661 8.35386 18.8833 14.2263 17.37 22.8536C16.5046 27.787 13.411 32.0451 8.9864 34.3926C1.24903 38.4979 -1.83831 47.9997 2.00835 55.8689C4.20804 60.3688 4.20804 65.632 2.00835 70.1319C-1.83831 78.001 1.24903 87.5029 8.9864 91.6081C13.411 93.9557 16.5046 98.2137 17.37 103.147C18.8833 111.774 26.9661 117.647 35.6388 116.42C40.5982 115.719 45.6038 117.345 49.2037 120.828C55.499 126.918 65.4899 126.918 71.7852 120.828C75.3851 117.345 80.3907 115.719 85.3501 116.42C94.0228 117.647 102.106 111.774 103.619 103.147C104.484 98.2137 107.578 93.9557 112.002 91.6081C119.74 87.5029 122.827 78.001 118.981 70.1319C116.781 65.632 116.781 60.3688 118.981 55.8689C122.827 47.9997 119.74 38.4979 112.002 34.3926C107.578 32.0451 104.484 27.787 103.619 22.8536C102.106 14.2263 94.0228 8.35386 85.3501 9.58055C80.3907 10.282 75.3851 8.65561 71.7852 5.17303ZM89.9794 48.6033C92.3834 46.1263 92.3243 42.1694 89.8473 39.7654C87.3703 37.3614 83.4135 37.4205 81.0095 39.8975L49.0988 72.7764L39.9794 63.3803C37.5754 60.9033 33.6185 60.8442 31.1416 63.2482C28.6646 65.6523 28.6054 69.6091 31.0095 72.0861L44.6138 86.1032C45.7908 87.316 47.4088 88.0004 49.0988 88.0004C50.7888 88.0004 52.4067 87.316 53.5837 86.1033L89.9794 48.6033Z" fill="#008080"/>
</g>
<defs>
<filter id="filter0_d_0_1" x="-213" y="-44" width="547" height="486" filterUnits="userSpaceOnUse" color-interpolation-filters="sRGB">
<feFlood flood-opacity="0" result="BackgroundImageFix"/>
<feColorMatrix in="SourceAlpha" type="matrix" values="0 0 0 0 0 0 0 0 0 0 0 0 0 0 0 0 0 0 127 0" result="hardAlpha"/>
<feOffset dy="4"/>
<feGaussianBlur stdDeviation="6"/>
<feComposite in2="hardAlpha" operator="out"/>
<feColorMatrix type="matrix" values="0 0 0 0 0.0627451 0 0 0 0 0.0941176 0 0 0 0 0.156863 0 0 0 0.08 0"/>
<feBlend mode="normal" in2="BackgroundImageFix" result="effect1_dropShadow_0_1"/>
<feBlend mode="normal" in="SourceGraphic" in2="effect1_dropShadow_0_1" result="shape"/>
</filter>
</defs>
</svg>
