<svg width="80" height="81" viewBox="0 0 80 81" fill="none" xmlns="http://www.w3.org/2000/svg">
<path d="M70.0055 38.5662C70.0166 38.4028 70.0222 38.2394 70.0278 38.076C70.0389 37.8235 70.05 37.571 70.0555 37.3215C70.0583 37.1492 70.0583 36.9769 70.0583 36.8075C70.0583 36.5699 70.0583 36.3293 70.0527 36.0946C70.05 35.9193 70.0417 35.747 70.0333 35.5717C70.025 35.34 70.0139 35.1113 69.9972 34.8796C69.9861 34.7073 69.9722 34.532 69.9583 34.3597C69.9389 34.1339 69.9166 33.9082 69.8916 33.6824C69.8722 33.5101 69.8528 33.3408 69.8305 33.1714C69.8 32.9457 69.7694 32.7258 69.7333 32.503C69.7083 32.3367 69.6805 32.1733 69.6528 32.0069C69.6417 31.9386 69.6333 31.8733 69.6194 31.8049C69.5778 31.5851 69.5333 31.3682 69.4861 31.1544C69.4722 31.089 69.4611 31.0207 69.4444 30.9553C69.3667 30.6018 69.2805 30.2513 69.1889 29.9067C69.1639 29.8146 69.1389 29.7225 69.1111 29.6304C69.0389 29.372 68.9639 29.1135 68.8861 28.858C68.8528 28.7481 68.8167 28.6412 68.7833 28.5313C68.7556 28.4481 68.7305 28.3619 68.7028 28.2787C68.6222 28.0441 68.5417 27.8124 68.4528 27.5806C68.45 27.5747 68.4472 27.5688 68.4472 27.5628C68.3278 27.242 68.1972 26.9241 68.0667 26.6092C68.0389 26.5409 68.0083 26.4726 67.9806 26.4072C67.8583 26.128 67.7361 25.8488 67.6028 25.5754C67.5917 25.5547 67.5806 25.5339 67.5694 25.5131C67.3889 25.1417 67.2028 24.7763 67.0056 24.4169C67.0028 24.4109 66.9972 24.405 66.9945 24.3991C66.8 24.0456 66.5972 23.701 66.3861 23.3593C66.3722 23.3385 66.3611 23.3177 66.35 23.2969C66.175 23.0177 65.9972 22.7444 65.8111 22.4741L60.6973 15.0177C60.8973 15.3088 61.0862 15.6029 61.2723 15.903C61.4834 16.2446 61.6861 16.5892 61.8806 16.9427C61.8834 16.9486 61.8889 16.9546 61.8917 16.9605C62.0889 17.32 62.275 17.6854 62.4556 18.0567C62.5973 18.3508 62.7334 18.6479 62.8639 18.9509C62.8945 19.0192 62.9223 19.0875 62.95 19.1529C63.0834 19.4678 63.2111 19.7826 63.3306 20.1065C63.3334 20.1124 63.3361 20.1183 63.3361 20.1243C63.4528 20.4362 63.5611 20.757 63.6639 21.0749C63.7 21.1848 63.7334 21.2917 63.7667 21.4017C63.8473 21.6571 63.9222 21.9126 63.9945 22.174C64.0195 22.2661 64.0472 22.3552 64.0722 22.4503C64.1639 22.7979 64.25 23.1454 64.3278 23.4989C64.3417 23.5643 64.3556 23.6326 64.3695 23.698C64.4278 23.9802 64.4833 24.2654 64.5333 24.5506C64.5611 24.714 64.5889 24.8803 64.6139 25.0467C64.65 25.2695 64.6806 25.4923 64.7111 25.7151C64.7333 25.8844 64.7528 26.0537 64.7722 26.226C64.7972 26.4518 64.8195 26.6746 64.8389 26.9033C64.8528 27.0756 64.8667 27.2479 64.8778 27.4232C64.8917 27.6519 64.9056 27.8837 64.9139 28.1154C64.9222 28.2877 64.9278 28.4629 64.9333 28.6382C64.9389 28.8759 64.9389 29.1135 64.9389 29.3512C64.9389 29.5235 64.9389 29.6928 64.9361 29.8651C64.9306 30.1146 64.9195 30.3671 64.9084 30.6196C64.9 30.783 64.8945 30.9464 64.8861 31.1098C64.8695 31.389 64.8417 31.6713 64.8167 31.9535C64.8028 32.0931 64.7945 32.2297 64.7806 32.3723C64.7361 32.7942 64.6833 33.219 64.6195 33.6438L62.7223 46.3642L62.05 50.8736L67.1639 58.333L67.8361 53.8235L69.7333 41.1031C69.7972 40.6753 69.85 40.2535 69.8944 39.8317C69.9083 39.6921 69.9194 39.5524 69.9305 39.4158C69.9639 39.1276 69.9889 38.8454 70.0055 38.5662Z" fill="#80BFBF"/>
<path d="M67.1683 58.9212C66.9934 58.9212 66.8267 58.8321 66.7212 58.6776L61.6084 51.2183C61.5195 51.0906 61.4834 50.9301 61.5084 50.7727L64.0773 33.5428C64.1356 33.1448 64.1912 32.7259 64.2356 32.2952C64.2439 32.2179 64.2495 32.1407 64.2578 32.0634L64.2717 31.8882C64.2967 31.6119 64.3217 31.3386 64.3411 31.0653C64.3495 30.9554 64.3522 30.8484 64.3578 30.7415L64.3633 30.587C64.3744 30.3405 64.3856 30.0939 64.3911 29.8503C64.3939 29.7196 64.3939 29.5919 64.3939 29.4641V29.3453C64.3939 29.1106 64.3939 28.8789 64.3883 28.6472C64.3856 28.4897 64.3772 28.3323 64.3717 28.1748V28.1392C64.3633 27.9134 64.3522 27.6877 64.3356 27.4649C64.3245 27.2955 64.3106 27.1262 64.2967 26.9569C64.2773 26.737 64.255 26.5172 64.2328 26.2974C64.2134 26.131 64.1939 25.9647 64.1745 25.7983C64.1467 25.5785 64.1134 25.3616 64.0801 25.1448L64.0745 25.1091C64.0523 24.9606 64.0273 24.812 64.0023 24.6635C63.9523 24.3843 63.8995 24.105 63.8412 23.8288L63.8023 23.6327C63.7301 23.3059 63.6468 22.9613 63.5552 22.6108C63.5413 22.5573 63.5274 22.5038 63.5107 22.4533L63.4802 22.3434C63.4108 22.0909 63.3386 21.8414 63.2608 21.5918C63.2275 21.4849 63.1942 21.378 63.158 21.274C63.0386 20.9056 62.9359 20.6115 62.8359 20.3471C62.7248 20.0501 62.6026 19.7471 62.4582 19.4025L62.3749 19.2064C62.2471 18.9123 62.1138 18.6182 61.9777 18.336C61.7917 17.9498 61.6111 17.5993 61.4278 17.2666C61.4251 17.2606 61.4112 17.2398 61.4084 17.2339C61.2362 16.919 61.0363 16.5803 60.8224 16.2357C60.6225 15.9149 60.4392 15.6327 60.2614 15.3742C60.0809 15.1099 60.1337 14.7385 60.3809 14.5425C60.628 14.3494 60.9752 14.4058 61.1585 14.6702C61.1612 14.6761 61.1668 14.6821 61.1696 14.685L66.2713 22.1266C66.4601 22.3999 66.6462 22.685 66.8239 22.9702C66.835 22.9881 66.8461 23.0059 66.8573 23.0267C67.085 23.395 67.2961 23.7515 67.4877 24.0991C67.6932 24.4734 67.882 24.8418 68.0764 25.2428L68.107 25.3052C68.2431 25.5874 68.3708 25.8726 68.4958 26.1578L68.5791 26.3568C68.7346 26.7252 68.8624 27.046 68.9735 27.3431C68.9763 27.352 68.9874 27.3787 68.9901 27.3876C69.0707 27.5985 69.154 27.8362 69.2373 28.0768C69.254 28.1303 69.2706 28.1838 69.2901 28.2372L69.3206 28.3353C69.3567 28.4452 69.3928 28.5581 69.4262 28.6709C69.5067 28.9324 69.5845 29.1967 69.6567 29.4611L69.6817 29.5532C69.6983 29.6156 69.7178 29.678 69.7344 29.7434C69.8344 30.1177 69.9177 30.4682 69.9955 30.8187L70.0483 31.0772C70.0899 31.2822 70.1343 31.4842 70.1732 31.6891C70.1816 31.7307 70.1871 31.7723 70.1954 31.8169L70.2066 31.8941C70.2316 32.0397 70.2538 32.1852 70.2788 32.3338L70.2899 32.4021C70.326 32.6308 70.3593 32.8596 70.3898 33.0883C70.4121 33.2636 70.4315 33.4359 70.4509 33.6112C70.4759 33.8399 70.4982 34.0716 70.5204 34.3033C70.5343 34.4816 70.5481 34.6568 70.562 34.8351C70.5787 35.0698 70.5898 35.3044 70.5981 35.5421C70.6065 35.7174 70.612 35.8956 70.6176 36.0738C70.6231 36.3174 70.6231 36.561 70.6231 36.8046V36.8878C70.6231 37.0334 70.6231 37.1819 70.6204 37.3304C70.6148 37.5859 70.6037 37.8444 70.5898 38.1028L70.5843 38.2513C70.5787 38.3672 70.5731 38.486 70.5676 38.6048C70.5482 38.89 70.5232 39.1782 70.4954 39.4663L70.4815 39.6178C70.4732 39.7099 70.4676 39.7991 70.4565 39.8912C70.4093 40.3338 70.3538 40.7705 70.2927 41.1893L67.7238 58.4192C67.6876 58.6568 67.5238 58.847 67.3072 58.9034C67.2544 58.9183 67.2127 58.9212 67.1683 58.9212ZM62.6387 50.7192L66.8295 56.8299L69.1901 41.0052C69.2484 40.6041 69.304 40.1852 69.3484 39.7604C69.3567 39.6802 69.3623 39.5971 69.3706 39.5168L69.3845 39.3505C69.4095 39.0742 69.4345 38.7979 69.4539 38.5246C69.4623 38.4147 69.465 38.3078 69.4706 38.2008L69.4762 38.0464C69.4873 37.7998 69.4984 37.5532 69.5039 37.3067C69.5067 37.167 69.5067 37.0304 69.5067 36.8908V36.8046C69.5067 36.5699 69.5067 36.3382 69.5011 36.1065C69.4984 35.9372 69.49 35.7679 69.4817 35.5985C69.4734 35.3728 69.4623 35.147 69.4456 34.9242C69.4345 34.7519 69.4206 34.5855 69.4067 34.4162C69.3873 34.1964 69.3651 33.9765 69.3428 33.7567C69.3234 33.5904 69.304 33.424 69.2845 33.2576C69.2568 33.0378 69.2234 32.821 69.1901 32.6041L69.179 32.5358C69.1568 32.3962 69.1346 32.2595 69.1123 32.1229L69.0957 32.0159C69.0901 31.9862 69.0873 31.9565 69.0818 31.9298C69.0457 31.7337 69.004 31.5406 68.9651 31.3475L68.9152 31.098C68.843 30.7682 68.7624 30.4325 68.668 30.0761C68.6541 30.0196 68.6374 29.9662 68.6208 29.9097L68.593 29.8087C68.5236 29.5562 68.4486 29.3037 68.3736 29.0571C68.3403 28.9502 68.307 28.8432 68.2709 28.7393L68.2347 28.6234C68.2209 28.5788 68.207 28.5373 68.1931 28.4927C68.1153 28.264 68.0348 28.0352 67.9515 27.8124C67.8404 27.5124 67.7182 27.2094 67.5738 26.8677L67.4905 26.6717C67.371 26.3984 67.2516 26.1281 67.1239 25.8607L67.0933 25.8042C66.9073 25.4181 66.7267 25.0705 66.5434 24.7318C66.3518 24.3843 66.1518 24.0426 65.9408 23.701L65.9102 23.6505C65.7353 23.3683 65.5575 23.098 65.3798 22.8366L64.3522 21.3393C64.4217 21.5621 64.4855 21.7879 64.5494 22.0137L64.5772 22.1147C64.5939 22.1741 64.6105 22.2365 64.6272 22.2959C64.7244 22.6613 64.8132 23.0237 64.8882 23.3683L64.9299 23.5733C64.991 23.8614 65.0465 24.1526 65.0993 24.4467C65.1271 24.6011 65.1521 24.7586 65.1771 24.919L65.1826 24.9546C65.2187 25.1804 65.252 25.4092 65.2826 25.6379C65.3048 25.8132 65.3243 25.9855 65.3437 26.1607C65.3687 26.3895 65.3909 26.6212 65.4131 26.8529C65.427 27.0311 65.4409 27.2064 65.4548 27.3846C65.4714 27.6193 65.4825 27.857 65.4909 28.0917V28.1273C65.4964 28.2937 65.5048 28.46 65.5075 28.6264C65.5131 28.87 65.5131 29.1136 65.5131 29.3572V29.473C65.5131 29.6097 65.5131 29.7463 65.5103 29.883C65.5048 30.1385 65.4937 30.3969 65.4798 30.6524L65.4742 30.8009C65.4687 30.9168 65.4631 31.0356 65.4576 31.1544C65.4381 31.4396 65.4131 31.7278 65.3881 32.0129L65.3742 32.1763C65.3659 32.2625 65.3603 32.3516 65.3492 32.4407C65.302 32.8863 65.2465 33.323 65.1854 33.7389L62.6387 50.7192Z" fill="white"/>
<path d="M64.806 62.2007H60.3653H4.99639H0.555664L5.66847 69.66H10.1092H65.4808H69.9188L64.806 62.2007Z" fill="#80BFBF"/>
<path d="M69.9188 70.2542H5.66854C5.4908 70.2542 5.32416 70.1651 5.22141 70.0106L0.108596 62.5542C-0.0163771 62.373 -0.0330355 62.1353 0.0613889 61.9333C0.155813 61.7343 0.347439 61.6066 0.555729 61.6066H64.806C64.9838 61.6066 65.1504 61.6957 65.2532 61.8502L70.366 69.3065C70.4909 69.4877 70.5076 69.7254 70.4132 69.9274C70.3215 70.1264 70.1299 70.2542 69.9188 70.2542ZM5.95181 69.0659H68.8246L64.5255 62.7978H1.65271L5.95181 69.0659Z" fill="white"/>
<path d="M62.0566 50.8707L67.1705 58.3271L69.9205 69.6602L64.8066 62.2008L62.0566 50.8707Z" fill="#80BFBF"/>
<path d="M69.9197 70.2542C69.7475 70.2542 69.578 70.1681 69.4725 70.0106L64.3586 62.5543C64.317 62.4948 64.2864 62.4235 64.2697 62.3523L61.5198 51.0221C61.4531 50.7459 61.5781 50.4577 61.8198 50.3359C62.0614 50.2141 62.3475 50.2914 62.5059 50.5201L67.6197 57.9765C67.6614 58.0359 67.6919 58.1072 67.7086 58.1785L70.4586 69.5086C70.5252 69.7849 70.4002 70.073 70.1586 70.1948C70.0836 70.2334 70.0002 70.2542 69.9197 70.2542ZM65.3169 61.9423L68.6558 66.8082L66.6586 58.5884L63.3197 53.7225L65.3169 61.9423Z" fill="white"/>
<path d="M41.7942 1.09412C43.9298 1.09412 45.3934 2.88245 45.0657 5.08074C45.0518 5.17581 45.0296 5.27087 45.0102 5.36296C50.9811 6.24228 56.0162 9.16244 59.5293 13.4491C63.7701 18.6151 65.803 25.7566 64.6282 33.6407L62.7314 46.3611L62.0593 50.8706L64.8088 62.2007H60.368H4.99639H0.555664L6.68492 50.8706L7.357 46.3611L9.25382 33.6407C11.4034 19.2181 23.5508 7.29686 37.3062 5.36296C37.3118 5.27087 37.3201 5.17581 37.334 5.08074C37.6617 2.87948 39.6585 1.09412 41.7942 1.09412Z" fill="#008080"/>
<path d="M64.8067 62.7949H0.556418C0.359237 62.7949 0.173162 62.682 0.0759607 62.4978C-0.0240182 62.3136 -0.0240182 62.0878 0.0759607 61.9037L6.15246 50.6686L8.70469 33.5487C9.75725 26.4874 13.2537 19.6816 18.5471 14.3849C23.6793 9.25455 30.1474 5.87394 36.8071 4.83717C37.2431 2.43093 39.4482 0.5 41.7894 0.5C43.003 0.5 44.0722 1.00204 44.7971 1.91107C45.4414 2.71909 45.7385 3.75882 45.6441 4.86391C51.3318 5.83532 56.3918 8.72874 59.9383 13.057C64.4735 18.5824 66.3314 25.9259 65.1678 33.7328L62.6183 50.8409L65.3399 62.0522C65.3844 62.2304 65.3483 62.4206 65.2428 62.5661C65.14 62.7117 64.9789 62.7949 64.8067 62.7949ZM1.5201 61.6066H64.0902L61.5213 51.0191C61.5019 50.9389 61.4991 50.8558 61.5102 50.7755L64.0791 33.5457C65.19 26.0953 63.4265 19.0964 59.1107 13.8383C55.5726 9.51894 50.6681 6.79187 44.9332 5.9482C44.7776 5.92444 44.6415 5.83532 44.5527 5.69867C44.4638 5.56202 44.4333 5.39268 44.4666 5.2293L44.4805 5.16691C44.4944 5.1075 44.5082 5.04809 44.5166 4.98571C44.6471 4.11233 44.4471 3.2954 43.9584 2.68047C43.4474 2.0388 42.6808 1.68827 41.7949 1.68827C39.9259 1.68827 38.1707 3.2538 37.8846 5.17583C37.8735 5.25009 37.868 5.32733 37.8624 5.4016C37.8458 5.68381 37.643 5.91552 37.3792 5.95414C23.7349 7.87319 11.879 19.8182 9.80168 33.7358L7.23278 50.9657C7.22167 51.037 7.19945 51.1053 7.16613 51.1707L1.5201 61.6066Z" fill="white"/>
<path d="M39.8662 64.6576C39.2247 68.9591 35.3255 72.4467 31.1542 72.4467C26.9856 72.4467 24.1251 68.9591 24.7667 64.6576H39.8662Z" fill="#008080"/>
<path d="M31.1538 73.0407C28.9404 73.0407 26.9964 72.1347 25.6828 70.486C24.408 68.8878 23.8887 66.7845 24.2192 64.5625C24.2608 64.2743 24.4941 64.0604 24.7663 64.0604H39.8659C40.0297 64.0604 40.1825 64.1377 40.288 64.2684C40.3935 64.3991 40.4407 64.5743 40.413 64.7466C39.7326 69.3215 35.5779 73.0407 31.1538 73.0407ZM25.2578 65.2517C25.119 66.936 25.5633 68.5045 26.527 69.7166C27.6268 71.095 29.2709 71.8554 31.1538 71.8554C34.8308 71.8554 38.294 68.9531 39.1827 65.2546H25.2578V65.2517Z" fill="white"/>
<path d="M44.1822 74.6716C44.2405 74.5498 44.2961 74.428 44.3516 74.3032C44.3627 74.2794 44.3738 74.2587 44.3822 74.2349C44.3905 74.2141 44.3988 74.1903 44.4072 74.1695C44.4599 74.0418 44.5099 73.9141 44.5571 73.7833C44.5655 73.7566 44.5766 73.7329 44.5849 73.7061C44.6377 73.5517 44.6877 73.3972 44.7349 73.2397C44.746 73.1981 44.7571 73.1566 44.7682 73.112C44.8015 72.9902 44.8321 72.8684 44.8598 72.7436C44.871 72.6961 44.8821 72.6515 44.8904 72.604C44.9237 72.4406 44.9543 72.2772 44.9793 72.1138L39.8665 64.6575C39.8415 64.8209 39.8109 64.9842 39.7776 65.1476C39.7693 65.1952 39.7582 65.2397 39.747 65.2873C39.7193 65.412 39.6887 65.5338 39.6554 65.6556C39.6443 65.6972 39.6332 65.7388 39.6221 65.7833C39.5776 65.9408 39.5276 66.0953 39.4749 66.2497C39.4665 66.2765 39.4554 66.3002 39.4471 66.327C39.3999 66.4577 39.3499 66.5854 39.2971 66.7132C39.2777 66.7577 39.2583 66.8023 39.2388 66.8469C39.186 66.9716 39.1305 67.0934 39.0694 67.2122C39.0555 67.2419 39.0416 67.2716 39.0277 67.3014C38.9555 67.4469 38.8778 67.5925 38.7972 67.7351C38.7833 67.7588 38.7695 67.7796 38.7556 67.8034C38.6195 68.0381 38.4751 68.2668 38.3196 68.4867C38.3029 68.5134 38.2835 68.5371 38.2668 68.5639C38.1279 68.757 37.9835 68.9471 37.8308 69.1313C37.8086 69.158 37.7891 69.1818 37.7669 69.2085C37.6225 69.3808 37.4697 69.5472 37.3142 69.7076C37.2892 69.7314 37.267 69.7551 37.242 69.7819C37.0865 69.9393 36.9254 70.0908 36.7588 70.2364C36.7338 70.2572 36.7088 70.278 36.6838 70.2988C36.5116 70.4473 36.3367 70.5869 36.1534 70.7206C36.1284 70.7384 36.1061 70.7563 36.0811 70.7711C35.8895 70.9107 35.6896 71.0444 35.4868 71.1692C35.4452 71.1959 35.4035 71.2197 35.3618 71.2434C35.2896 71.285 35.2174 71.3266 35.1452 71.3682C35.0952 71.3949 35.0452 71.4246 34.9925 71.4514C34.9203 71.49 34.8453 71.5286 34.7703 71.5643C34.7231 71.588 34.6731 71.6118 34.6259 71.6356C34.4815 71.7039 34.3371 71.7692 34.1899 71.8316C34.1899 71.8316 34.1899 71.8316 34.1871 71.8316C34.0399 71.891 33.8899 71.9475 33.7372 72.0009C33.6983 72.0128 33.6622 72.0247 33.6233 72.0396C33.44 72.099 33.2567 72.1554 33.0707 72.203C33.0651 72.2059 33.0568 72.2059 33.0512 72.2089C32.8707 72.2535 32.6874 72.2921 32.5013 72.3248C32.4652 72.3307 32.4319 72.3366 32.3958 72.3426C32.2125 72.3723 32.0292 72.3961 31.8432 72.4139C31.807 72.4168 31.7709 72.4198 31.7348 72.4228C31.5432 72.4376 31.3488 72.4465 31.1544 72.4465C29.5825 72.4465 28.1967 71.9505 27.1136 71.1008C26.9164 70.9464 26.7304 70.78 26.5554 70.6047C26.3804 70.4295 26.2138 70.2394 26.061 70.0433C25.9833 69.9453 25.9111 69.8442 25.8389 69.7403L30.9517 77.1967C32.0875 78.8543 33.9816 79.9059 36.2672 79.9059C36.4616 79.9059 36.656 79.897 36.8477 79.8821C36.8838 79.8792 36.9198 79.8762 36.956 79.8732C37.142 79.8554 37.3253 79.8316 37.5086 79.8019C37.5447 79.796 37.578 79.79 37.6141 79.7841C37.7974 79.7514 37.9807 79.7128 38.164 79.6682C38.1696 79.6653 38.1779 79.6653 38.1835 79.6623C38.3696 79.6148 38.5528 79.5583 38.7361 79.4989C38.7556 79.493 38.7778 79.487 38.7972 79.4811C38.8139 79.4751 38.8333 79.4662 38.85 79.4603C39 79.4068 39.1499 79.3534 39.2999 79.2939C39.2999 79.2939 39.2999 79.2939 39.3027 79.2939C39.4499 79.2345 39.5943 79.1662 39.7387 79.0979C39.7554 79.089 39.772 79.083 39.7887 79.0741C39.8192 79.0592 39.8498 79.0414 39.8803 79.0266C39.9553 78.988 40.0303 78.9523 40.1025 78.9107C40.1525 78.884 40.2053 78.8573 40.2553 78.8276C40.3275 78.786 40.3997 78.7444 40.4719 78.7028C40.5024 78.6849 40.533 78.6671 40.5635 78.6493C40.5746 78.6434 40.5858 78.6345 40.5969 78.6255C40.7996 78.5008 40.9968 78.3671 41.1912 78.2275C41.2051 78.2186 41.2189 78.2096 41.2328 78.2007C41.2439 78.1948 41.2523 78.1859 41.2634 78.177C41.4439 78.0433 41.6216 77.9007 41.7938 77.7551C41.8077 77.7432 41.8216 77.7343 41.8355 77.7225C41.8466 77.7135 41.8549 77.7017 41.866 77.6928C42.0327 77.5472 42.1937 77.3957 42.3493 77.2382C42.3632 77.2264 42.377 77.2145 42.3881 77.2026C42.3992 77.1907 42.4104 77.1788 42.4215 77.1669C42.577 77.0065 42.7297 76.8402 42.8741 76.6679C42.8853 76.656 42.8964 76.6441 42.9075 76.6293C42.9186 76.6174 42.9269 76.6025 42.938 76.5906C43.0908 76.4064 43.2352 76.2193 43.3741 76.0232C43.3824 76.0084 43.3963 75.9965 43.4046 75.9846C43.4129 75.9727 43.4185 75.9609 43.4268 75.949C43.5823 75.7262 43.7267 75.5004 43.8628 75.2657C43.8712 75.2538 43.8795 75.2419 43.885 75.2301C43.8906 75.2182 43.8962 75.2093 43.9017 75.1974C43.9822 75.0548 44.06 74.9092 44.1322 74.7637C44.1517 74.731 44.1655 74.7013 44.1822 74.6716Z" fill="#80BFBF"/>
<path d="M36.2676 80.5C33.8903 80.5 31.788 79.4246 30.5022 77.5501L25.3921 70.0967L25.3894 70.0937C25.2088 69.8293 25.2616 69.458 25.5088 69.2619C25.7559 69.0688 26.1031 69.1253 26.2836 69.3897V69.3927C26.3475 69.4847 26.4141 69.5768 26.4808 69.663C26.6197 69.8412 26.7696 70.0106 26.9307 70.1739C27.089 70.3344 27.2612 70.4858 27.4389 70.6255C28.4637 71.4305 29.7495 71.8553 31.152 71.8553C31.3131 71.8553 31.4909 71.8464 31.6936 71.8316L31.7936 71.8227C31.9657 71.8078 32.1407 71.784 32.3129 71.7573L32.4101 71.7395C32.5823 71.7098 32.7545 71.6741 32.9239 71.6296C33.0988 71.585 33.2682 71.5345 33.4599 71.4721L33.5654 71.4365C33.707 71.3889 33.8487 71.3355 33.9875 71.279H33.9903C34.1292 71.2226 34.2653 71.1602 34.3986 71.0978L34.5291 71.0354C34.6068 70.9968 34.6763 70.9612 34.7429 70.9255L34.8874 70.8453C34.954 70.8097 35.0207 70.7681 35.0901 70.7294L35.2067 70.6582C35.3928 70.5423 35.5816 70.4175 35.7649 70.2838L35.8316 70.2363C35.9982 70.1115 36.1649 69.9779 36.3315 69.8383L36.4009 69.7788C36.5537 69.6452 36.7092 69.4996 36.8564 69.3511L36.923 69.2827C37.0702 69.1312 37.2119 68.9738 37.3507 68.8134L37.409 68.7421C37.5534 68.5698 37.6923 68.3886 37.8201 68.2103L37.8701 68.139C38.0172 67.9281 38.1533 67.7113 38.2783 67.4974L38.3144 67.435C38.3922 67.3013 38.4644 67.1646 38.531 67.028L38.5727 66.9419C38.6254 66.8319 38.6782 66.7161 38.7282 66.6032L38.781 66.4784C38.831 66.3596 38.8754 66.2408 38.9198 66.119L38.9365 66.0744C38.9976 65.9051 39.042 65.7595 39.0837 65.614L39.1142 65.4981C39.1448 65.3823 39.1753 65.2694 39.2003 65.1565C39.2114 65.1119 39.2198 65.0703 39.2281 65.0258C39.2586 64.8743 39.2892 64.7228 39.3114 64.5713C39.3475 64.3336 39.5114 64.1435 39.728 64.087C39.9446 64.0306 40.1751 64.1197 40.3056 64.3128L45.4185 71.7692C45.5073 71.8969 45.5434 72.0573 45.5184 72.2148C45.4934 72.393 45.4601 72.5683 45.424 72.7406L45.3962 72.8654C45.3601 73.0228 45.3268 73.1535 45.2935 73.2842L45.2574 73.4179C45.2074 73.5902 45.1546 73.7566 45.0963 73.9199L45.0741 73.9823C45.0158 74.1398 44.963 74.2794 44.9074 74.416C44.8963 74.4457 44.888 74.4665 44.8797 74.4903L44.8547 74.5438C44.7908 74.6923 44.7297 74.823 44.6686 74.9508L44.6214 75.0488C44.5436 75.2033 44.4631 75.3577 44.377 75.5092L44.3631 75.536C44.3548 75.5508 44.3326 75.5835 44.3242 75.5984C44.1909 75.8301 44.0354 76.0737 43.8716 76.3084C43.8688 76.3143 43.8604 76.3291 43.8493 76.344C43.841 76.3559 43.816 76.3886 43.8077 76.3975C43.6688 76.5935 43.5133 76.7956 43.3494 76.9916C43.3411 77.0035 43.33 77.0183 43.3189 77.0302C43.3106 77.0391 43.2856 77.0688 43.2772 77.0778C43.1273 77.253 42.9662 77.4313 42.7996 77.6006C42.7912 77.6095 42.7774 77.6244 42.7635 77.6392C42.7551 77.6481 42.7274 77.6719 42.719 77.6808C42.5524 77.8472 42.3802 78.0076 42.2108 78.1591C42.2025 78.168 42.1914 78.1799 42.1775 78.1888C42.1691 78.1947 42.1414 78.2185 42.133 78.2274C41.947 78.3849 41.7581 78.5364 41.572 78.676L41.5443 78.6998C41.5332 78.7087 41.4998 78.7295 41.4915 78.7354C41.2915 78.881 41.0777 79.0235 40.8694 79.1513C40.8666 79.1543 40.8528 79.1632 40.8361 79.1721L40.7361 79.2285C40.6584 79.2731 40.5834 79.3176 40.5056 79.3622C40.4528 79.3919 40.4001 79.4216 40.3445 79.4513C40.2668 79.4929 40.189 79.5315 40.1085 79.5731L40.0085 79.6236C39.9946 79.6296 39.9779 79.6385 39.9613 79.6444C39.803 79.7187 39.6502 79.79 39.4919 79.8524C39.4864 79.8553 39.4836 79.8553 39.478 79.8583C39.317 79.9237 39.1642 79.9801 39.0143 80.0336C38.992 80.0425 38.9726 80.0484 38.9531 80.0544C38.9393 80.0603 38.9198 80.0663 38.8976 80.0722C38.6782 80.1435 38.4838 80.1999 38.3061 80.2475C38.1033 80.298 37.9117 80.3395 37.7006 80.3752L37.5896 80.396C37.3952 80.4287 37.1952 80.4524 36.998 80.4703L36.8814 80.4792C36.6592 80.4911 36.4565 80.5 36.2676 80.5ZM28.4443 72.5356L31.3992 76.846C32.474 78.4116 34.2486 79.3117 36.2676 79.3117C36.4287 79.3117 36.6009 79.3058 36.8092 79.2879L36.9091 79.279C37.0813 79.2642 37.2563 79.2404 37.4257 79.2137L37.5229 79.1958C37.6951 79.1661 37.8673 79.1305 38.0367 79.0859C38.2116 79.0414 38.3811 78.9909 38.5727 78.9285L38.6254 78.9136C38.6338 78.9107 38.6754 78.8958 38.681 78.8928C38.8171 78.8453 38.9559 78.7948 39.092 78.7384C39.0948 78.7384 39.0976 78.7354 39.1003 78.7354C39.2392 78.679 39.3753 78.6166 39.5114 78.5512C39.5169 78.5482 39.5475 78.5334 39.5558 78.5304L39.6474 78.4829C39.7169 78.4472 39.7863 78.4116 39.8557 78.3759C39.9029 78.3492 39.9502 78.3254 39.9974 78.2987C40.0668 78.2601 40.1362 78.2215 40.2029 78.1799L40.3112 78.1145C40.5056 77.9957 40.6917 77.868 40.8777 77.7343C40.8861 77.7283 40.9166 77.7075 40.925 77.7016C41.111 77.562 41.2777 77.4283 41.4443 77.2857C41.4499 77.2798 41.4804 77.256 41.4859 77.2501C41.4943 77.2412 41.5109 77.2263 41.5193 77.2203C41.6637 77.0926 41.8164 76.95 41.9664 76.7985C41.9747 76.7926 42.0025 76.7658 42.0081 76.7569C42.0081 76.7569 42.022 76.7421 42.0358 76.7272C42.1803 76.5787 42.3247 76.4212 42.4607 76.2608C42.4663 76.2519 42.4913 76.2281 42.4968 76.2192L42.5191 76.1895C42.6635 76.0172 42.8023 75.836 42.9301 75.6578C42.9356 75.6518 42.9495 75.631 42.9579 75.6192C42.969 75.6043 42.9801 75.5865 42.9856 75.5776C43.1245 75.3756 43.2634 75.1617 43.3883 74.9419C43.3939 74.9329 43.405 74.9151 43.4133 74.9032L43.4272 74.8735C43.4994 74.7458 43.5716 74.6091 43.6411 74.4725L43.6799 74.3893C43.7355 74.2764 43.7882 74.1606 43.8382 74.0477L43.891 73.9199C43.9382 73.8041 43.9854 73.6853 44.0299 73.5635L44.0576 73.4862C44.1048 73.3466 44.1521 73.201 44.1937 73.0555L44.227 72.9367C44.2576 72.8267 44.2854 72.7109 44.3104 72.598L44.3381 72.4673C44.352 72.396 44.3687 72.3247 44.3798 72.2534L40.114 66.0328C40.0724 66.1724 40.0279 66.3121 39.9779 66.4517L39.9557 66.5111C39.8974 66.6715 39.8446 66.8111 39.7863 66.9478C39.7669 66.9983 39.7447 67.0458 39.7252 67.0934C39.6697 67.2241 39.6086 67.3548 39.5475 67.4825L39.503 67.5746C39.4253 67.732 39.342 67.8865 39.2559 68.038L39.2253 68.0915C39.0726 68.3559 38.9171 68.5995 38.7504 68.8371L38.7004 68.9084C38.5477 69.1223 38.3922 69.3243 38.2311 69.5204L38.1644 69.6006C38.0089 69.7818 37.8478 69.96 37.684 70.1294L37.609 70.2066C37.4396 70.3759 37.2674 70.5364 37.098 70.6879L37.0202 70.7532C36.8342 70.9136 36.6453 71.0622 36.4592 71.2018L36.4037 71.2404C36.176 71.4038 35.9649 71.5464 35.7538 71.6771L35.6205 71.7573C35.5455 71.8018 35.4678 71.8464 35.3928 71.888L35.2317 71.9771C35.154 72.0187 35.0762 72.0603 34.9957 72.0989C34.9401 72.1257 34.8901 72.1524 34.8401 72.1762C34.6874 72.2475 34.5346 72.3188 34.3763 72.3811C34.3763 72.3811 34.3736 72.3811 34.3736 72.3841C34.218 72.4495 34.0598 72.5059 33.8987 72.5623L33.7765 72.6039C33.5626 72.6752 33.371 72.7317 33.1905 72.7762C33.1849 72.7762 33.1683 72.7822 33.1627 72.7822C32.9905 72.8267 32.7989 72.8654 32.5851 72.904L32.474 72.9248C32.2768 72.9575 32.0768 72.9812 31.8824 72.999L31.7658 73.0079C31.5381 73.0258 31.3353 73.0347 31.1465 73.0347C30.1967 73.0406 29.2802 72.8683 28.4443 72.5356Z" fill="white"/>
<path d="M67.1497 3.14099C75.0397 3.14099 80.4525 9.73884 79.2389 17.8785C78.0252 26.0181 70.6435 32.613 62.7562 32.613C54.8662 32.613 49.4535 26.0151 50.6671 17.8785C51.8807 9.73884 59.2625 3.14099 67.1497 3.14099Z" fill="#008080"/>
<path d="M62.7566 33.2428C58.7019 33.2428 55.1499 31.5881 52.7504 28.5818C50.4286 25.6706 49.4844 21.8354 50.0898 17.7835C51.3451 9.36459 58.9991 2.51721 67.1529 2.51721C71.2076 2.51721 74.7596 4.17186 77.1591 7.17818C79.4808 10.0894 80.4251 13.9246 79.8224 17.9795C78.5644 26.3954 70.9104 33.2428 62.7566 33.2428ZM67.1501 3.76786C59.5489 3.76786 52.4143 10.1429 51.2451 17.9766C50.6953 21.6631 51.5451 25.1388 53.6419 27.7649C55.8136 30.486 59.0491 31.9862 62.7566 31.9862C70.3578 31.9862 77.4924 25.6141 78.6616 17.7775C79.2114 14.0909 78.3616 10.6123 76.2649 7.9862C74.0931 5.26804 70.8577 3.76786 67.1501 3.76786Z" fill="white"/>
<path d="M67.9191 9.04379C68.1357 8.06644 67.4885 7.22278 66.5552 7.22278C66.5135 7.22278 66.4718 7.22575 66.4302 7.22872C65.5107 7.29407 64.7052 8.10506 64.6274 9.04379L63.4135 23.7961C63.3857 24.1318 63.6024 24.4051 63.933 24.4289C63.9496 24.4289 63.9663 24.4318 63.983 24.4318C64.3246 24.4318 64.6524 24.1556 64.7302 23.7991L67.9191 9.04379Z" fill="white"/>
<path d="M63.9828 25.0586C63.9523 25.0586 63.9245 25.0586 63.8939 25.0556C63.5773 25.0348 63.2912 24.8833 63.0912 24.6368C62.894 24.3932 62.8023 24.0753 62.8301 23.7426L64.0439 8.99026C64.1495 7.73664 65.18 6.68799 66.3939 6.60482C66.4467 6.60184 66.5023 6.59888 66.5578 6.59888C67.1911 6.59888 67.7661 6.88703 68.1411 7.39204C68.5078 7.88814 68.6356 8.54466 68.4939 9.1893L65.3023 23.9387C65.1634 24.5773 64.5967 25.0586 63.9828 25.0586ZM66.555 7.84952C66.5272 7.84952 66.4995 7.84953 66.4717 7.8525C65.8384 7.89706 65.2634 8.46743 65.2106 9.09721L64.0023 23.7961C64.08 23.7812 64.1467 23.7158 64.1578 23.6564L67.3467 8.90114V8.89817C67.4078 8.62487 67.3606 8.36345 67.2161 8.16739C67.0661 7.96241 66.83 7.84952 66.555 7.84952Z" fill="white"/>
<path d="M63.363 28.5313C64.2046 28.5313 64.9935 27.8272 65.1213 26.9598C65.2518 26.0924 64.6741 25.3883 63.8324 25.3883C62.9907 25.3883 62.2019 26.0953 62.0741 26.9598C61.9435 27.8272 62.5213 28.5313 63.363 28.5313Z" fill="white"/>
<path d="M63.3631 29.1581C62.7825 29.1581 62.2492 28.9056 61.8964 28.4659C61.5464 28.0292 61.4047 27.4588 61.4936 26.8617C61.6686 25.6824 62.6964 24.7615 63.8325 24.7615C64.4131 24.7615 64.9464 25.014 65.2992 25.4566C65.6492 25.8933 65.7908 26.4637 65.7019 27.0608C65.5269 28.2342 64.4992 29.1581 63.3631 29.1581ZM63.8325 26.0121C63.277 26.0121 62.7353 26.4904 62.652 27.0548C62.6186 27.2836 62.6659 27.4945 62.7881 27.649C62.9186 27.8123 63.1214 27.9015 63.3631 27.9015C63.9186 27.9015 64.4575 27.4232 64.5436 26.8588C64.577 26.63 64.5297 26.4191 64.4075 26.2646C64.277 26.1042 64.0714 26.0121 63.8325 26.0121Z" fill="white"/>
</svg>
