<svg width="24" height="24" viewBox="0 0 24 24" fill="none" xmlns="http://www.w3.org/2000/svg">
<rect x="0.5" y="0.5" width="23" height="23" rx="7.5" fill="#008080" fill-opacity="0.04"/>
<rect x="0.5" y="0.5" width="23" height="23" rx="7.5" stroke="#80BFBF"/>
<path d="M12 9C12.2761 9 12.5 9.22386 12.5 9.5V13C12.5 13.2761 12.2761 13.5 12 13.5C11.7239 13.5 11.5 13.2761 11.5 13V9.5C11.5 9.22386 11.7239 9 12 9Z" fill="#008080"/>
<path d="M11.375 14.375C11.375 14.7202 11.6548 15 12 15C12.3452 15 12.625 14.7202 12.625 14.375C12.625 14.0298 12.3452 13.75 12 13.75C11.6548 13.75 11.375 14.0298 11.375 14.375Z" fill="#008080"/>
<path fill-rule="evenodd" clip-rule="evenodd" d="M7 12C7 9.23858 9.23858 7 12 7C14.7614 7 17 9.23858 17 12C17 14.7614 14.7614 17 12 17C9.23858 17 7 14.7614 7 12ZM12 8C9.79086 8 8 9.79086 8 12C8 14.2091 9.79086 16 12 16C14.2091 16 16 14.2091 16 12C16 9.79086 14.2091 8 12 8Z" fill="#008080"/>
</svg>
