<svg width="27" height="27" viewBox="0 0 27 27" fill="none" xmlns="http://www.w3.org/2000/svg">
<path fill-rule="evenodd" clip-rule="evenodd" d="M10.1672 1.74325C8.08443 -0.339549 4.70756 -0.339544 2.62476 1.74325L1.91071 2.4573C0.926224 3.44179 0.252855 4.91708 0.636937 6.51521C1.22575 8.96523 2.99761 13.4298 8.28161 18.7138C13.5656 23.9978 18.0302 25.7697 20.4802 26.3585C22.0783 26.7426 23.5536 26.0692 24.5381 25.0847L25.2522 24.3707C27.335 22.2879 27.335 18.911 25.2522 16.8282L24.0137 15.5897C22.316 13.892 19.6932 13.538 17.6062 14.7247L17.4775 14.7979C16.6222 15.2842 15.6397 15.2445 14.9436 14.7407C14.382 14.3343 13.8452 13.9065 13.4671 13.5284C13.0889 13.1502 12.6612 12.6134 12.2547 12.0518C11.751 11.3557 11.7112 10.3732 12.1975 9.51798L12.2707 9.38927C13.4575 7.3022 13.1034 4.67943 11.4057 2.98175L10.1672 1.74325ZM4.51038 3.62887C5.55178 2.58747 7.24022 2.58747 8.28161 3.62887L9.52012 4.86737C10.369 5.71621 10.546 7.0276 9.9526 8.07113L9.87942 8.19984C8.93954 9.85272 8.90657 11.9739 10.0944 13.6152C10.5307 14.2181 11.0551 14.8876 11.5814 15.414C12.1078 15.9404 12.7774 16.4647 13.3802 16.901C15.0215 18.0889 17.1427 18.0559 18.7956 17.116L18.9243 17.0428C19.9678 16.4494 21.2792 16.6265 22.1281 17.4753L23.3666 18.7138C24.408 19.7552 24.408 21.4437 23.3666 22.4851L22.6525 23.1991C22.1367 23.7149 21.5682 23.8774 21.1034 23.7657C19.1446 23.2949 15.1135 21.7744 10.1672 16.8282C5.221 11.882 3.70052 7.85079 3.22977 5.89207C3.11805 5.42722 3.28053 4.85872 3.79633 4.34292L4.51038 3.62887Z" fill="#3C3C3C"/>
</svg>
