<svg width="180" height="180" viewBox="0 0 180 180" fill="none" xmlns="http://www.w3.org/2000/svg">
<rect x="0.5" y="0.5" width="179" height="179" rx="89.5" fill="white"/>
<rect x="0.5" y="0.5" width="179" height="179" rx="89.5" stroke="#008080"/>
<path fill-rule="evenodd" clip-rule="evenodd" d="M90 40C76.1929 40 65 51.1929 65 65C65 78.8071 76.1929 90 90 90C103.807 90 115 78.8071 115 65C115 51.1929 103.807 40 90 40ZM75 65C75 56.7157 81.7157 50 90 50C98.2843 50 105 56.7157 105 65C105 73.2843 98.2843 80 90 80C81.7157 80 75 73.2843 75 65Z" fill="#98A2B3"/>
<path fill-rule="evenodd" clip-rule="evenodd" d="M90 145C82.2975 145 71.1491 143.251 62.7772 139.587C58.6672 137.788 54.4873 135.214 52.0588 131.487C50.7816 129.527 49.9742 127.219 50.0006 124.641C50.0269 122.087 50.8672 119.64 52.2796 117.364C59.1266 106.328 73.134 95 90 95C106.866 95 120.873 106.328 127.72 117.364C129.133 119.64 129.973 122.087 129.999 124.641C130.026 127.219 129.218 129.527 127.941 131.487C125.513 135.214 121.333 137.788 117.223 139.587C108.851 143.251 97.7025 145 90 145ZM60.777 122.636C60.1186 123.697 60.0039 124.379 60.0001 124.744C59.9966 125.085 60.0843 125.486 60.4368 126.027C61.2677 127.302 63.2854 128.893 66.7866 130.426C73.6372 133.424 83.3662 135 90 135C96.6338 135 106.363 133.424 113.213 130.426C116.715 128.893 118.732 127.302 119.563 126.027C119.916 125.486 120.003 125.085 120 124.744C119.996 124.379 119.881 123.697 119.223 122.636C113.612 113.593 102.422 105 90 105C77.5783 105 66.3877 113.593 60.777 122.636Z" fill="#98A2B3"/>
</svg>
