<svg width="12" height="18" viewBox="0 0 12 18" fill="none" xmlns="http://www.w3.org/2000/svg">
<path d="M3.91806 0.458313C3.57167 0.458313 3.2614 0.672587 3.13873 0.996523L2.9474 1.50175C2.53725 1.46077 2.15936 1.41987 1.85345 1.38552C1.62478 1.35984 1.4368 1.33789 1.30622 1.32237L1.1556 1.3043L1.10444 1.29804C0.647698 1.24149 0.230933 1.56582 0.174372 2.02257C0.117811 2.47931 0.442227 2.89543 0.898975 2.952L0.954635 2.9588L1.10962 2.9774C1.24324 2.99328 1.4348 3.01565 1.66748 3.04178C2.13245 3.09399 2.76353 3.16138 3.42565 3.22181C4.3188 3.30332 5.29782 3.37498 6.00139 3.37498C6.70496 3.37498 7.68398 3.30332 8.57713 3.22181C9.23925 3.16138 9.87033 3.09399 10.3353 3.04178C10.568 3.01565 10.7595 2.99328 10.8932 2.9774L11.0481 2.9588L11.1037 2.95201C11.5604 2.89545 11.885 2.47931 11.8284 2.02257C11.7718 1.56582 11.3557 1.24141 10.899 1.29796L10.8472 1.3043L10.6966 1.32237C10.566 1.33789 10.378 1.35984 10.1493 1.38552C9.84342 1.41987 9.46553 1.46077 9.05537 1.50175L8.86405 0.996523C8.74137 0.672587 8.43111 0.458313 8.08472 0.458313H3.91806Z" fill="#B3261E"/>
<path d="M5.16806 8.79165C5.16806 8.33141 4.79496 7.95831 4.33472 7.95831C3.87449 7.95831 3.50139 8.33141 3.50139 8.79165V12.9583C3.50139 13.4186 3.87449 13.7916 4.33472 13.7916C4.79496 13.7916 5.16806 13.4186 5.16806 12.9583V8.79165Z" fill="#B3261E"/>
<path d="M7.66806 7.95831C8.12829 7.95831 8.50139 8.33141 8.50139 8.79165V12.9583C8.50139 13.4186 8.12829 13.7916 7.66806 13.7916C7.20782 13.7916 6.83472 13.4186 6.83472 12.9583V8.79165C6.83472 8.33141 7.20782 7.95831 7.66806 7.95831Z" fill="#B3261E"/>
<path fill-rule="evenodd" clip-rule="evenodd" d="M11.7594 5.70878C11.835 4.65147 10.9234 3.80384 9.88747 3.92356C8.82744 4.04607 7.19167 4.20831 6.00139 4.20831C4.81111 4.20831 3.17534 4.04607 2.11531 3.92356C1.07937 3.80384 0.167824 4.65147 0.243346 5.70878L0.957291 15.704C1.01141 16.4617 1.57577 17.1023 2.35026 17.2188C3.18076 17.3437 4.70467 17.5431 6.00235 17.5416C7.28408 17.5402 8.8142 17.3415 9.64836 17.2178C10.4242 17.1027 10.9914 16.4616 11.0456 15.7017L11.7594 5.70878ZM10.0788 5.57921C10.0817 5.57887 10.0839 5.57907 10.0839 5.57907L10.0861 5.57958C10.088 5.58021 10.0909 5.58173 10.0937 5.58446C10.0956 5.58626 10.0971 5.58846 10.0971 5.58846L10.097 5.59003L9.384 15.5721C8.55842 15.6941 7.1435 15.8737 6.00043 15.875C4.84496 15.8763 3.43878 15.6965 2.6189 15.5738L1.90578 5.59003L1.90571 5.58846C1.90571 5.58846 1.90713 5.58626 1.90903 5.58446C1.91191 5.58173 1.91481 5.58021 1.91666 5.57958L1.91887 5.57907C1.91887 5.57907 1.92108 5.57887 1.92397 5.57921C2.98588 5.70193 4.70593 5.87498 6.00139 5.87498C7.29685 5.87498 9.0169 5.70193 10.0788 5.57921Z" fill="#B3261E"/>
</svg>
