<svg width="24" height="25" viewBox="0 0 24 25" fill="none" xmlns="http://www.w3.org/2000/svg">
<path fill-rule="evenodd" clip-rule="evenodd" d="M17.8395 6.83915C16.8632 5.86284 15.2803 5.86284 14.304 6.83915C13.3277 7.81546 13.3277 9.39837 14.304 10.3747C15.2803 11.351 16.8632 11.351 17.8395 10.3747C18.8158 9.39837 18.8158 7.81546 17.8395 6.83915ZM15.7182 8.25336C15.9135 8.0581 16.2301 8.0581 16.4253 8.25336C16.6206 8.44863 16.6206 8.76521 16.4253 8.96047C16.2301 9.15573 15.9135 9.15573 15.7182 8.96047C15.523 8.76521 15.523 8.44863 15.7182 8.25336Z" fill="#FEFFFF"/>
<path fill-rule="evenodd" clip-rule="evenodd" d="M21.3748 3.30354C21.2349 3.1581 21.0546 3.05963 20.8603 3.01851C19.9181 2.66483 18.3268 2.40578 15.9264 3.34455C14.2392 4.00439 12.1588 5.25267 9.60704 7.46192C9.30208 7.37075 8.97844 7.33388 8.66208 7.33454C8.06763 7.33578 7.40256 7.46795 6.70792 7.73142C5.3144 8.25996 3.73167 9.34229 2.22292 11.1477C1.89091 11.5449 1.91703 12.1299 2.28313 12.496C3.11192 13.3248 4.05842 13.4494 4.81821 13.3826C5.16782 13.3519 5.49305 13.2798 5.72891 13.2275L5.74625 13.2236C5.88966 13.1918 5.98692 13.1715 6.05471 13.1592C6.0789 13.1627 6.10333 13.1654 6.12797 13.1671C8.36681 13.327 9.5425 13.7452 10.2379 14.4405C10.9332 15.1359 11.3514 16.3116 11.5113 18.5504C11.5131 18.5754 11.5158 18.6003 11.5194 18.6248C11.507 18.6926 11.4867 18.7896 11.4551 18.9325L11.4512 18.9498C11.3989 19.1857 11.3268 19.5109 11.2961 19.8605C11.2293 20.6203 11.3539 21.5668 12.1827 22.3956C12.5488 22.7617 13.1338 22.7878 13.531 22.4558C15.3364 20.947 16.4187 19.3643 16.9473 17.9708C17.2108 17.2761 17.3429 16.6111 17.3442 16.0166C17.3448 15.7001 17.3079 15.3763 17.2166 15.0712C19.4258 12.5195 20.674 10.4391 21.3338 8.75198C22.2726 6.35161 22.0136 4.76025 21.6599 3.81812C21.6188 3.62377 21.5203 3.44353 21.3748 3.30354ZM7.12552 9.77495C7.05361 9.8465 6.98138 9.91873 6.90883 9.99165L5.71161 11.1889C5.57879 11.2118 5.4554 11.2394 5.35531 11.2617L5.31354 11.271C5.09915 11.3185 4.91592 11.3581 4.73783 11.3802C5.63327 10.5276 6.49034 9.98951 7.21981 9.68067L7.12552 9.77495ZM8.32974 11.3992L8.30201 11.4271C9.6787 11.6976 10.8026 12.1768 11.6521 13.0263C12.5016 13.8758 12.9807 14.9997 13.2513 16.3764C16.9993 12.6519 18.7268 9.92699 19.4712 8.02353C20.103 6.40809 20.0286 5.3832 19.8768 4.8016C19.2952 4.64974 18.2703 4.57538 16.6549 5.20717C14.7908 5.93619 12.1389 7.60796 8.53196 11.1969L8.32974 11.3992ZM14.998 17.4589L13.4898 18.9671C13.4669 19.0999 13.4393 19.2233 13.417 19.3234L13.4077 19.3652C13.3602 19.5795 13.3206 19.7628 13.2985 19.9409C14.1511 19.0454 14.6892 18.1884 14.998 17.4589Z" fill="#FEFFFF"/>
<path fill-rule="evenodd" clip-rule="evenodd" d="M8.8006 14.4547C9.0761 14.537 9.42209 14.6854 9.7077 14.971C9.99331 15.2566 10.1417 15.6026 10.224 15.8781C10.3087 16.1617 10.3456 16.446 10.3617 16.6799C10.3781 16.9178 10.3748 17.1318 10.3679 17.2849C10.3644 17.3624 10.3598 17.4266 10.3559 17.4733C10.354 17.4967 10.3522 17.5159 10.3508 17.5302L10.3489 17.5482L10.3482 17.5544L10.348 17.5568L10.3479 17.5578C10.3478 17.5581 10.3478 17.5587 9.35415 17.4459L10.3479 17.5578C10.3127 17.8671 10.1355 18.1432 9.86864 18.3034C9.15779 18.7299 8.25362 19.0236 7.58433 19.2061C7.2387 19.3004 6.93306 19.3709 6.71315 19.418C6.60292 19.4417 6.51352 19.4595 6.45057 19.4717C6.41908 19.4778 6.39416 19.4825 6.3765 19.4858L6.35553 19.4896L6.34929 19.4907L6.34621 19.4913C6.34607 19.4913 6.34595 19.4913 6.17216 18.5065C5.19158 18.3104 5.1916 18.3103 5.19162 18.3102L5.1922 18.3074L5.1935 18.3009L5.19815 18.2782C5.20215 18.2587 5.20794 18.2309 5.21542 18.1957C5.23038 18.1254 5.25217 18.0251 5.28012 17.9027C5.33585 17.6587 5.41685 17.323 5.51771 16.9583C5.618 16.5957 5.74125 16.1924 5.88281 15.8169C6.01836 15.4574 6.19475 15.0574 6.41909 14.7433C6.58375 14.5128 6.83846 14.3629 7.11995 14.3309L7.23282 15.3245C7.11995 14.3309 7.11973 14.331 7.11995 14.3309L7.12186 14.3307L7.12426 14.3304L7.13048 14.3298L7.14845 14.3279C7.16283 14.3265 7.18198 14.3247 7.20538 14.3228C7.25207 14.3189 7.31629 14.3143 7.39377 14.3108C7.54691 14.3039 7.76084 14.3006 7.99876 14.317C8.2327 14.3331 8.517 14.37 8.8006 14.4547ZM7.83857 16.3108C7.81153 16.3748 7.78332 16.4453 7.7542 16.5226C7.68236 16.7131 7.61356 16.9208 7.54947 17.1319C7.83245 17.0418 8.11307 16.9401 8.36715 16.8284L8.36642 16.8174C8.35637 16.6716 8.33594 16.5451 8.3077 16.4506C8.29995 16.4246 8.29287 16.4053 8.28721 16.3915C8.27337 16.3858 8.25404 16.3787 8.22812 16.371C8.13359 16.3427 8.00706 16.3223 7.86129 16.3123L7.83857 16.3108Z" fill="#FEFFFF"/>
<path d="M6.17216 18.5065L6.34621 19.4913C6.0209 19.5487 5.68798 19.4418 5.45707 19.2055C5.22616 18.9693 5.12684 18.6341 5.19162 18.3102L6.17216 18.5065Z" fill="#FEFFFF"/>
</svg>
