<svg width="28" height="28" viewBox="0 0 28 28" fill="none" xmlns="http://www.w3.org/2000/svg">
<path fill-rule="evenodd" clip-rule="evenodd" d="M12.667 0.666687C6.03958 0.666687 0.666992 6.03927 0.666992 12.6667C0.666992 19.2941 6.03958 24.6667 12.667 24.6667C15.5003 24.6667 18.1043 23.6847 20.1572 22.0426L25.0575 26.9428C25.5782 27.4635 26.4224 27.4635 26.9431 26.9428C27.4638 26.4221 27.4638 25.5779 26.9431 25.0572L22.0429 20.1569C23.685 18.104 24.667 15.5 24.667 12.6667C24.667 6.03927 19.2944 0.666687 12.667 0.666687ZM3.33366 12.6667C3.33366 7.51203 7.51233 3.33335 12.667 3.33335C17.8217 3.33335 22.0003 7.51203 22.0003 12.6667C22.0003 17.8213 17.8217 22 12.667 22C7.51233 22 3.33366 17.8213 3.33366 12.6667Z" fill="url(#paint0_linear_1940_1174)"/>
<defs>
<linearGradient id="paint0_linear_1940_1174" x1="14.0003" y1="0.666687" x2="14.0003" y2="27.3334" gradientUnits="userSpaceOnUse">
<stop offset="0.0758594" stop-color="#008080"/>
<stop offset="0.200859" stop-color="#002B2B"/>
<stop offset="0.800859" stop-color="#F9DB6D"/>
<stop offset="0.940859" stop-color="#80BFBF"/>
</linearGradient>
</defs>
</svg>
