<svg width="20" height="18" viewBox="0 0 20 18" fill="none" xmlns="http://www.w3.org/2000/svg">
<path fill-rule="evenodd" clip-rule="evenodd" d="M13 0C14.8638 0 16.4299 1.27477 16.874 3H19C19.5523 3 20 3.44772 20 4C20 4.55228 19.5523 5 19 5H16.874C16.4299 6.72523 14.8638 8 13 8C11.1362 8 9.57006 6.72523 9.12602 5L1 5C0.447715 5 0 4.55228 0 4C0 3.44772 0.447715 3 1 3L9.12602 3C9.57006 1.27477 11.1362 0 13 0ZM13 2C14.1046 2 15 2.89543 15 4C15 5.10457 14.1046 6 13 6C11.8954 6 11 5.10457 11 4C11 2.89543 11.8954 2 13 2Z" fill="#3C3C3C"/>
<path fill-rule="evenodd" clip-rule="evenodd" d="M3.12602 13H1C0.447715 13 0 13.4477 0 14C0 14.5523 0.447715 15 1 15H3.12602C3.57006 16.7252 5.13616 18 7 18C8.86384 18 10.4299 16.7252 10.874 15L19 15C19.5523 15 20 14.5523 20 14C20 13.4477 19.5523 13 19 13L10.874 13C10.4299 11.2748 8.86384 10 7 10C5.13616 10 3.57006 11.2748 3.12602 13ZM7 16C8.10457 16 9 15.1046 9 14C9 12.8954 8.10457 12 7 12C5.89543 12 5 12.8954 5 14C5 15.1046 5.89543 16 7 16Z" fill="#3C3C3C"/>
</svg>
