<svg width="19" height="18" viewBox="0 0 19 18" fill="none" xmlns="http://www.w3.org/2000/svg">
<path d="M13.3894 4.404C14.1705 3.62295 15.4368 3.62295 16.2179 4.404C16.9989 5.18505 16.9989 6.45138 16.2179 7.23243L8.79323 14.6571C7.4264 16.0239 5.21032 16.0239 3.84349 14.6571C2.47665 13.2902 2.47665 11.0741 3.84349 9.7073L11.162 2.38875C11.5526 1.99822 11.5526 1.36506 11.162 0.974534C10.7715 0.58401 10.1384 0.58401 9.74783 0.974534L2.42927 8.29309C0.281389 10.441 0.281388 13.9234 2.42927 16.0713C4.57716 18.2191 8.05956 18.2191 10.2074 16.0713L17.6321 8.64664C19.1942 7.08455 19.1942 4.55189 17.6321 2.98979C16.07 1.42769 13.5373 1.42769 11.9752 2.98979L4.33846 10.6265C3.36215 11.6029 3.36215 13.1858 4.33846 14.1621C5.31477 15.1384 6.89768 15.1384 7.87399 14.1621L15.4047 6.63139C15.7952 6.24086 15.7952 5.6077 15.4047 5.21717C15.0142 4.82665 14.381 4.82665 13.9905 5.21717L6.45978 12.7479C6.26452 12.9431 5.94794 12.9431 5.75267 12.7479C5.55741 12.5526 5.55741 12.236 5.75267 12.0408L13.3894 4.404Z" fill="#008080"/>
</svg>
