<svg width="30" height="24" viewBox="0 0 30 24" fill="none" xmlns="http://www.w3.org/2000/svg">
<path fill-rule="evenodd" clip-rule="evenodd" d="M15 0.666687C12.0545 0.666687 9.66664 3.0545 9.66664 6.00002C9.66664 8.94554 12.0545 11.3334 15 11.3334C17.9455 11.3334 20.3333 8.94554 20.3333 6.00002C20.3333 3.0545 17.9455 0.666687 15 0.666687ZM12.3333 6.00002C12.3333 4.52726 13.5272 3.33335 15 3.33335C16.4727 3.33335 17.6666 4.52726 17.6666 6.00002C17.6666 7.47278 16.4727 8.66669 15 8.66669C13.5272 8.66669 12.3333 7.47278 12.3333 6.00002Z" fill="url(#paint0_linear_1940_2539)"/>
<path fill-rule="evenodd" clip-rule="evenodd" d="M15 23.3334C13.4841 23.3334 11.2985 22.9751 9.63976 22.2128C8.8261 21.8389 7.95306 21.2843 7.43809 20.4546C7.16624 20.0165 6.99448 19.5002 7.0001 18.9255C7.00567 18.3563 7.18418 17.8164 7.47649 17.3217C8.81312 15.0597 11.586 12.6667 15 12.6667C18.4139 12.6667 21.1868 15.0597 22.5235 17.3217C22.8158 17.8164 22.9943 18.3563 22.9998 18.9255C23.0055 19.5002 22.8337 20.0165 22.5618 20.4546C22.0469 21.2843 21.1738 21.8389 20.3602 22.2128C18.7015 22.9751 16.5158 23.3334 15 23.3334ZM9.77231 18.6783C9.6702 18.8511 9.66678 18.9369 9.66664 18.9515C9.66652 18.9612 9.6662 18.9877 9.70386 19.0484C9.80972 19.2189 10.1172 19.4974 10.7533 19.7898C11.9941 20.36 13.7851 20.6667 15 20.6667C16.2148 20.6667 18.0058 20.36 19.2467 19.7898C19.8828 19.4974 20.1902 19.2189 20.2961 19.0484C20.3337 18.9877 20.3334 18.9618 20.3333 18.9522C20.3332 18.9376 20.3297 18.8511 20.2276 18.6783C19.1913 16.9245 17.1646 15.3334 15 15.3334C12.8353 15.3334 10.8086 16.9245 9.77231 18.6783Z" fill="url(#paint1_linear_1940_2539)"/>
<path fill-rule="evenodd" clip-rule="evenodd" d="M2.3333 10C2.3333 7.79088 4.12416 6.00002 6.3333 6.00002C8.54244 6.00002 10.3333 7.79088 10.3333 10C10.3333 12.2092 8.54244 14 6.3333 14C4.12416 14 2.3333 12.2092 2.3333 10ZM6.3333 8.66669C5.59692 8.66669 4.99997 9.26364 4.99997 10C4.99997 10.7364 5.59692 11.3334 6.3333 11.3334C7.06968 11.3334 7.66664 10.7364 7.66664 10C7.66664 9.26364 7.06968 8.66669 6.3333 8.66669Z" fill="url(#paint2_linear_1940_2539)"/>
<path d="M2.86095 19.9261C2.53356 20.5857 1.73345 20.8551 1.07385 20.5277C0.414246 20.2003 0.144937 19.4002 0.472326 18.7406C0.962171 17.7537 1.7036 16.7628 2.6363 16.0046C3.56936 15.2461 4.76499 14.6667 6.12953 14.6667C6.86591 14.6667 7.46287 15.2636 7.46287 16C7.46287 16.7364 6.86591 17.3334 6.12953 17.3334C5.54156 17.3334 4.921 17.584 4.31837 18.0738C3.71538 18.564 3.20162 19.2398 2.86095 19.9261Z" fill="url(#paint3_linear_1940_2539)"/>
<path fill-rule="evenodd" clip-rule="evenodd" d="M20.08 10C20.08 7.79088 21.8709 6.00002 24.08 6.00002C26.2892 6.00002 28.08 7.79088 28.08 10C28.08 12.2092 26.2892 14 24.08 14C21.8709 14 20.08 12.2092 20.08 10ZM24.08 8.66669C23.3437 8.66669 22.7467 9.26364 22.7467 10C22.7467 10.7364 23.3437 11.3334 24.08 11.3334C24.8164 11.3334 25.4134 10.7364 25.4134 10C25.4134 9.26364 24.8164 8.66669 24.08 8.66669Z" fill="url(#paint4_linear_1940_2539)"/>
<path d="M29.5335 18.7406C29.8609 19.4002 29.5916 20.2003 28.932 20.5277C28.2724 20.8551 27.4722 20.5857 27.1449 19.9261C26.8042 19.2398 26.2904 18.564 25.6874 18.0738C25.0848 17.584 24.4642 17.3334 23.8763 17.3334C23.1399 17.3334 22.5429 16.7364 22.5429 16C22.5429 15.2636 23.1399 14.6667 23.8763 14.6667C25.2408 14.6667 26.4364 15.2461 27.3695 16.0046C28.3022 16.7628 29.0436 17.7537 29.5335 18.7406Z" fill="url(#paint5_linear_1940_2539)"/>
<defs>
<linearGradient id="paint0_linear_1940_2539" x1="15.0029" y1="0.666687" x2="15.0029" y2="23.3334" gradientUnits="userSpaceOnUse">
<stop offset="0.0758594" stop-color="#008080"/>
<stop offset="0.200859" stop-color="#002B2B"/>
<stop offset="0.800859" stop-color="#F9DB6D"/>
<stop offset="0.940859" stop-color="#80BFBF"/>
</linearGradient>
<linearGradient id="paint1_linear_1940_2539" x1="15.0029" y1="0.666687" x2="15.0029" y2="23.3334" gradientUnits="userSpaceOnUse">
<stop offset="0.0758594" stop-color="#008080"/>
<stop offset="0.200859" stop-color="#002B2B"/>
<stop offset="0.800859" stop-color="#F9DB6D"/>
<stop offset="0.940859" stop-color="#80BFBF"/>
</linearGradient>
<linearGradient id="paint2_linear_1940_2539" x1="15.0029" y1="0.666687" x2="15.0029" y2="23.3334" gradientUnits="userSpaceOnUse">
<stop offset="0.0758594" stop-color="#008080"/>
<stop offset="0.200859" stop-color="#002B2B"/>
<stop offset="0.800859" stop-color="#F9DB6D"/>
<stop offset="0.940859" stop-color="#80BFBF"/>
</linearGradient>
<linearGradient id="paint3_linear_1940_2539" x1="15.0029" y1="0.666687" x2="15.0029" y2="23.3334" gradientUnits="userSpaceOnUse">
<stop offset="0.0758594" stop-color="#008080"/>
<stop offset="0.200859" stop-color="#002B2B"/>
<stop offset="0.800859" stop-color="#F9DB6D"/>
<stop offset="0.940859" stop-color="#80BFBF"/>
</linearGradient>
<linearGradient id="paint4_linear_1940_2539" x1="15.0029" y1="0.666687" x2="15.0029" y2="23.3334" gradientUnits="userSpaceOnUse">
<stop offset="0.0758594" stop-color="#008080"/>
<stop offset="0.200859" stop-color="#002B2B"/>
<stop offset="0.800859" stop-color="#F9DB6D"/>
<stop offset="0.940859" stop-color="#80BFBF"/>
</linearGradient>
<linearGradient id="paint5_linear_1940_2539" x1="15.0029" y1="0.666687" x2="15.0029" y2="23.3334" gradientUnits="userSpaceOnUse">
<stop offset="0.0758594" stop-color="#008080"/>
<stop offset="0.200859" stop-color="#002B2B"/>
<stop offset="0.800859" stop-color="#F9DB6D"/>
<stop offset="0.940859" stop-color="#80BFBF"/>
</linearGradient>
</defs>
</svg>
