<svg width="151" height="150" viewBox="0 0 151 150" fill="none" xmlns="http://www.w3.org/2000/svg">
<path fill-rule="evenodd" clip-rule="evenodd" d="M86.7857 17.1728C80.4903 11.0827 70.4995 11.0827 64.2042 17.1728C60.6043 20.6554 55.5987 22.2818 50.6393 21.5803C41.9666 20.3536 33.8838 26.2261 32.3705 34.8533C31.5051 39.7868 28.4115 44.0448 23.9869 46.3924C16.2495 50.4976 13.1622 59.9995 17.0088 67.8686C19.2085 72.3685 19.2085 77.6317 17.0088 82.1316C13.1622 90.0008 16.2495 99.5026 23.9869 103.608C28.4115 105.955 31.5051 110.213 32.3705 115.147C33.8838 123.774 41.9666 129.647 50.6393 128.42C55.5987 127.718 60.6043 129.345 64.2042 132.827C70.4995 138.918 80.4903 138.918 86.7857 132.827C90.3856 129.345 95.3912 127.718 100.351 128.42C109.023 129.647 117.106 123.774 118.619 115.147C119.485 110.213 122.578 105.955 127.003 103.608C134.74 99.5026 137.828 90.0008 133.981 82.1316C131.781 77.6317 131.781 72.3685 133.981 67.8686C137.828 59.9995 134.74 50.4976 127.003 46.3924C122.578 44.0448 119.485 39.7868 118.619 34.8533C117.106 26.2261 109.023 20.3536 100.351 21.5803C95.3912 22.2818 90.3856 20.6554 86.7857 17.1728ZM104.98 60.603C107.384 58.126 107.325 54.1692 104.848 51.7652C102.371 49.3611 98.414 49.4203 96.01 51.8972L64.0993 84.7762L54.9799 75.3801C52.5759 72.9031 48.619 72.8439 46.1421 75.248C43.6651 77.652 43.6059 81.6088 46.01 84.0858L59.6143 98.103C60.7913 99.3157 62.4093 100 64.0993 100C65.7893 100 67.4072 99.3157 68.5842 98.103L104.98 60.603Z" fill="#008080"/>
</svg>
