<svg width="24" height="25" viewBox="0 0 24 25" fill="none" xmlns="http://www.w3.org/2000/svg">
<path d="M2.5 8.79564C2.604 6.69564 2.915 5.38564 3.847 4.45564C4.777 3.52364 6.087 3.21264 8.187 3.10864M21.5 8.79564C21.396 6.69564 21.085 5.38564 20.153 4.45564C19.223 3.52364 17.913 3.21264 15.813 3.10864M15.813 22.1086C17.913 22.0046 19.223 21.6936 20.153 20.7616C21.085 19.8316 21.396 18.5216 21.5 16.4216M8.187 22.1086C6.087 22.0046 4.777 21.6936 3.847 20.7616C2.915 19.8316 2.604 18.5216 2.5 16.4216M19.635 11.9266C19.878 12.2306 20 12.3836 20 12.6086C20 12.8336 19.878 12.9866 19.635 13.2906C18.542 14.6586 15.751 17.6086 12 17.6086C8.249 17.6086 5.458 14.6586 4.365 13.2906C4.122 12.9866 4 12.8336 4 12.6086C4 12.3836 4.122 12.2306 4.365 11.9266C5.458 10.5586 8.249 7.60864 12 7.60864C15.751 7.60864 18.542 10.5586 19.635 11.9266Z" stroke="white" stroke-width="2" stroke-linecap="round" stroke-linejoin="round"/>
<path d="M14 12.6086C14 12.0782 13.7893 11.5695 13.4142 11.1944C13.0391 10.8194 12.5304 10.6086 12 10.6086C11.4696 10.6086 10.9609 10.8194 10.5858 11.1944C10.2107 11.5695 10 12.0782 10 12.6086C10 13.1391 10.2107 13.6478 10.5858 14.0229C10.9609 14.3979 11.4696 14.6086 12 14.6086C12.5304 14.6086 13.0391 14.3979 13.4142 14.0229C13.7893 13.6478 14 13.1391 14 12.6086Z" stroke="white" stroke-width="2" stroke-linecap="round" stroke-linejoin="round"/>
</svg>
