<svg width="28" height="28" viewBox="0 0 28 28" fill="none" xmlns="http://www.w3.org/2000/svg">
<path d="M4.66699 21.3333C4.66699 20.597 5.26395 20 6.00033 20H15.3337C16.07 20 16.667 20.597 16.667 21.3333C16.667 22.0697 16.07 22.6667 15.3337 22.6667H6.00033C5.26395 22.6667 4.66699 22.0697 4.66699 21.3333Z" fill="#008080"/>
<path d="M19.3337 20C18.5973 20 18.0003 20.597 18.0003 21.3333C18.0003 22.0697 18.5973 22.6667 19.3337 22.6667H22.0003C22.7367 22.6667 23.3337 22.0697 23.3337 21.3333C23.3337 20.597 22.7367 20 22.0003 20H19.3337Z" fill="#008080"/>
<path fill-rule="evenodd" clip-rule="evenodd" d="M8.66699 0C9.40337 0 10.0003 0.596954 10.0003 1.33333V2.66667H18.0003V1.33333C18.0003 0.596954 18.5973 0 19.3337 0C20.07 0 20.667 0.596954 20.667 1.33333V2.66667H22.0003C24.9458 2.66667 27.3337 5.05448 27.3337 8V22.6667C27.3337 25.6122 24.9458 28 22.0003 28H6.00033C3.05481 28 0.666992 25.6122 0.666992 22.6667V8C0.666992 5.05448 3.05481 2.66667 6.00033 2.66667H7.33366V1.33333C7.33366 0.596954 7.93061 0 8.66699 0ZM18.0003 5.33333C18.0003 6.06971 18.5973 6.66667 19.3337 6.66667C20.07 6.66667 20.667 6.06971 20.667 5.33333H22.0003C23.4731 5.33333 24.667 6.52724 24.667 8V8.66667H3.33366V8C3.33366 6.52724 4.52757 5.33333 6.00033 5.33333H7.33366C7.33366 6.06971 7.93061 6.66667 8.66699 6.66667C9.40337 6.66667 10.0003 6.06971 10.0003 5.33333H18.0003ZM24.667 11.3333H3.33366V22.6667C3.33366 24.1394 4.52757 25.3333 6.00033 25.3333H22.0003C23.4731 25.3333 24.667 24.1394 24.667 22.6667V11.3333Z" fill="#008080"/>
</svg>
