<svg width="28" height="28" viewBox="0 0 28 28" fill="none" xmlns="http://www.w3.org/2000/svg">
<path d="M18.9009 12.3166C19.4439 11.8192 19.4809 10.9758 18.9836 10.4328C18.4862 9.88971 17.6428 9.85267 17.0998 10.35L12.177 14.8586L10.9009 13.6898C10.3578 13.1925 9.51441 13.2295 9.01706 13.7725C8.51971 14.3156 8.55675 15.159 9.09979 15.6563L11.2765 17.6499C11.7861 18.1166 12.5679 18.1166 13.0776 17.6499L18.9009 12.3166Z" fill="#008080"/>
<path fill-rule="evenodd" clip-rule="evenodd" d="M14.0003 0.666626C6.63653 0.666626 0.666992 6.63616 0.666992 14C0.666992 21.3638 6.63653 27.3333 14.0003 27.3333C21.3641 27.3333 27.3337 21.3638 27.3337 14C27.3337 6.63616 21.3641 0.666626 14.0003 0.666626ZM3.33366 14C3.33366 8.10892 8.10929 3.33329 14.0003 3.33329C19.8914 3.33329 24.667 8.10892 24.667 14C24.667 19.891 19.8914 24.6666 14.0003 24.6666C8.10929 24.6666 3.33366 19.891 3.33366 14Z" fill="#008080"/>
</svg>
