<svg width="30" height="24" viewBox="0 0 30 24" fill="none" xmlns="http://www.w3.org/2000/svg">
<path fill-rule="evenodd" clip-rule="evenodd" d="M24.3334 24C27.2789 24 29.6667 21.6122 29.6667 18.6667V6.69691C29.6672 6.67652 29.6672 6.65608 29.6667 6.6356V5.33333C29.6667 2.38781 27.2789 0 24.3334 0H5.6667C2.72118 0 0.333362 2.38781 0.333362 5.33333V6.63561C0.332888 6.65608 0.332891 6.67652 0.333362 6.6969V18.6667C0.333362 21.6122 2.72118 24 5.6667 24H24.3334ZM3.00003 18.6667C3.00003 20.1394 4.19394 21.3333 5.6667 21.3333H24.3334C25.8061 21.3333 27 20.1394 27 18.6667V8.63604L16.9808 12.6437C15.7093 13.1524 14.2908 13.1524 13.0193 12.6437L3.00003 8.63604V18.6667ZM15.9904 10.1678L27 5.76396V5.33333C27 3.86057 25.8061 2.66667 24.3334 2.66667H5.6667C4.19394 2.66667 3.00003 3.86057 3.00003 5.33333V5.76396L14.0097 10.1678C14.6454 10.4221 15.3546 10.4221 15.9904 10.1678Z" fill="#008080"/>
</svg>
