<svg width="27" height="27" viewBox="0 0 27 27" fill="none" xmlns="http://www.w3.org/2000/svg">
<path fill-rule="evenodd" clip-rule="evenodd" d="M10.1663 1.74325C8.08346 -0.339549 4.70658 -0.339544 2.62378 1.74325L1.90974 2.4573C0.925248 3.44179 0.251879 4.91708 0.63596 6.51521C1.22478 8.96523 2.99664 13.4298 8.28064 18.7138C13.5646 23.9978 18.0292 25.7697 20.4792 26.3585C22.0774 26.7426 23.5527 26.0692 24.5372 25.0847L25.2512 24.3707C27.334 22.2879 27.334 18.911 25.2512 16.8282L24.0127 15.5897C22.315 13.892 19.6922 13.538 17.6052 14.7247L17.4765 14.7979C16.6212 15.2842 15.6387 15.2445 14.9427 14.7407C14.381 14.3343 13.8442 13.9065 13.4661 13.5284C13.0879 13.1502 12.6602 12.6134 12.2537 12.0518C11.75 11.3557 11.7102 10.3732 12.1965 9.51798L12.2697 9.38927C13.4565 7.3022 13.1024 4.67943 11.4048 2.98175L10.1663 1.74325ZM4.5094 3.62887C5.5508 2.58747 7.23924 2.58747 8.28064 3.62887L9.51914 4.86737C10.368 5.71621 10.545 7.0276 9.95163 8.07113L9.87844 8.19984C8.93857 9.85272 8.90559 11.9739 10.0934 13.6152C10.5297 14.2181 11.0541 14.8876 11.5805 15.414C12.1069 15.9404 12.7764 16.4647 13.3792 16.901C15.0206 18.0889 17.1417 18.0559 18.7946 17.116L18.9233 17.0428C19.9669 16.4494 21.2782 16.6265 22.1271 17.4753L23.3656 18.7138C24.407 19.7552 24.407 21.4437 23.3656 22.4851L22.6515 23.1991C22.1357 23.7149 21.5672 23.8774 21.1024 23.7657C19.1437 23.2949 15.1125 21.7744 10.1663 16.8282C5.22003 11.882 3.69954 7.85079 3.2288 5.89207C3.11708 5.42722 3.27956 4.85872 3.79536 4.34292L4.5094 3.62887Z" fill="#008080"/>
</svg>
